solid damper
facet normal 0 0 0
 outer loop
 vertex 0.00648613 0 0.00846696
 vertex 0.00644131 0.000881678 0.00874991
 vertex 0.012006 0.000881678 0.0118663
 endloop
endfacet
facet normal 0 0 0
 outer loop
 vertex 0.00648613 0 0.00846696
 vertex 0.012006 0.000881678 0.0118663
 vertex 0.0122239 0 0.0116802
 endloop
endfacet
facet normal 0 0 0
 outer loop
 vertex 0.00644131 0.000881678 0.00874991
 vertex 0.00632399 0.00142658 0.00949067
 vertex 0.0114357 0.00142658 0.0123534
 endloop
endfacet
facet normal 0 0 0
 outer loop
 vertex 0.00644131 0.000881678 0.00874991
 vertex 0.0114357 0.00142658 0.0123534
 vertex 0.012006 0.000881678 0.0118663
 endloop
endfacet
facet normal 0 0 0
 outer loop
 vertex 0.00632399 0.00142658 0.00949067
 vertex 0.00617896 0.00142658 0.0104063
 vertex 0.0107308 0.00142658 0.0129555
 endloop
endfacet
facet normal 0 0 0
 outer loop
 vertex 0.00632399 0.00142658 0.00949067
 vertex 0.0107308 0.00142658 0.0129555
 vertex 0.0114357 0.00142658 0.0123534
 endloop
endfacet
facet normal 0 0 0
 outer loop
 vertex 0.00617896 0.00142658 0.0104063
 vertex 0.00606164 0.000881678 0.0111471
 vertex 0.0101605 0.000881678 0.0134425
 endloop
endfacet
facet normal 0 0 0
 outer loop
 vertex 0.00617896 0.00142658 0.0104063
 vertex 0.0101605 0.000881678 0.0134425
 vertex 0.0107308 0.00142658 0.0129555
 endloop
endfacet
facet normal 0 0 0
 outer loop
 vertex 0.00606164 0.000881678 0.0111471
 vertex 0.00601682 -1.31134e-10 0.01143
 vertex 0.00994264 -1.31134e-10 0.0136286
 endloop
endfacet
facet normal 0 0 0
 outer loop
 vertex 0.00606164 0.000881678 0.0111471
 vertex 0.00994264 -1.31134e-10 0.0136286
 vertex 0.0101605 0.000881678 0.0134425
 endloop
endfacet
facet normal 0 0 0
 outer loop
 vertex 0.00601682 -1.31134e-10 0.01143
 vertex 0.00606164 -0.000881678 0.0111471
 vertex 0.0101605 -0.000881678 0.0134425
 endloop
endfacet
facet normal 0 0 0
 outer loop
 vertex 0.00601682 -1.31134e-10 0.01143
 vertex 0.0101605 -0.000881678 0.0134425
 vertex 0.00994264 -1.31134e-10 0.0136286
 endloop
endfacet
facet normal 0 0 0
 outer loop
 vertex 0.00606164 -0.000881678 0.0111471
 vertex 0.00617896 -0.00142658 0.0104063
 vertex 0.0107308 -0.00142658 0.0129555
 endloop
endfacet
facet normal 0 0 0
 outer loop
 vertex 0.00606164 -0.000881678 0.0111471
 vertex 0.0107308 -0.00142658 0.0129555
 vertex 0.0101605 -0.000881678 0.0134425
 endloop
endfacet
facet normal 0 0 0
 outer loop
 vertex 0.00617896 -0.00142658 0.0104063
 vertex 0.00632399 -0.00142658 0.00949067
 vertex 0.0114357 -0.00142658 0.0123534
 endloop
endfacet
facet normal 0 0 0
 outer loop
 vertex 0.00617896 -0.00142658 0.0104063
 vertex 0.0114357 -0.00142658 0.0123534
 vertex 0.0107308 -0.00142658 0.0129555
 endloop
endfacet
facet normal 0 0 0
 outer loop
 vertex 0.00632399 -0.00142658 0.00949067
 vertex 0.00644131 -0.000881678 0.00874991
 vertex 0.012006 -0.000881678 0.0118663
 endloop
endfacet
facet normal 0 0 0
 outer loop
 vertex 0.00632399 -0.00142658 0.00949067
 vertex 0.012006 -0.000881678 0.0118663
 vertex 0.0114357 -0.00142658 0.0123534
 endloop
endfacet
facet normal 0 0 0
 outer loop
 vertex 0.00644131 -0.000881678 0.00874991
 vertex 0.00648613 2.62268e-10 0.00846696
 vertex 0.0122239 2.62268e-10 0.0116802
 endloop
endfacet
facet normal 0 0 0
 outer loop
 vertex 0.00644131 -0.000881678 0.00874991
 vertex 0.0122239 2.62268e-10 0.0116802
 vertex 0.012006 -0.000881678 0.0118663
 endloop
endfacet
facet normal 0 0 0
 outer loop
 vertex 0.0122239 0 0.0116802
 vertex 0.012006 0.000881678 0.0118663
 vertex 0.0142135 0.000881678 0.01785
 endloop
endfacet
facet normal 0 0 0
 outer loop
 vertex 0.0122239 0 0.0116802
 vertex 0.0142135 0.000881678 0.01785
 vertex 0.0145 0 0.01785
 endloop
endfacet
facet normal 0 0 0
 outer loop
 vertex 0.012006 0.000881678 0.0118663
 vertex 0.0114357 0.00142658 0.0123534
 vertex 0.0134635 0.00142658 0.01785
 endloop
endfacet
facet normal 0 0 0
 outer loop
 vertex 0.012006 0.000881678 0.0118663
 vertex 0.0134635 0.00142658 0.01785
 vertex 0.0142135 0.000881678 0.01785
 endloop
endfacet
facet normal 0 0 0
 outer loop
 vertex 0.0114357 0.00142658 0.0123534
 vertex 0.0107308 0.00142658 0.0129555
 vertex 0.0125365 0.00142658 0.01785
 endloop
endfacet
facet normal 0 0 0
 outer loop
 vertex 0.0114357 0.00142658 0.0123534
 vertex 0.0125365 0.00142658 0.01785
 vertex 0.0134635 0.00142658 0.01785
 endloop
endfacet
facet normal 0 0 0
 outer loop
 vertex 0.0107308 0.00142658 0.0129555
 vertex 0.0101605 0.000881678 0.0134425
 vertex 0.0117865 0.000881678 0.01785
 endloop
endfacet
facet normal 0 0 0
 outer loop
 vertex 0.0107308 0.00142658 0.0129555
 vertex 0.0117865 0.000881678 0.01785
 vertex 0.0125365 0.00142658 0.01785
 endloop
endfacet
facet normal 0 0 0
 outer loop
 vertex 0.0101605 0.000881678 0.0134425
 vertex 0.00994264 -1.31134e-10 0.0136286
 vertex 0.0115 -1.31134e-10 0.01785
 endloop
endfacet
facet normal 0 0 0
 outer loop
 vertex 0.0101605 0.000881678 0.0134425
 vertex 0.0115 -1.31134e-10 0.01785
 vertex 0.0117865 0.000881678 0.01785
 endloop
endfacet
facet normal 0 0 0
 outer loop
 vertex 0.00994264 -1.31134e-10 0.0136286
 vertex 0.0101605 -0.000881678 0.0134425
 vertex 0.0117865 -0.000881678 0.01785
 endloop
endfacet
facet normal 0 0 0
 outer loop
 vertex 0.00994264 -1.31134e-10 0.0136286
 vertex 0.0117865 -0.000881678 0.01785
 vertex 0.0115 -1.31134e-10 0.01785
 endloop
endfacet
facet normal 0 0 0
 outer loop
 vertex 0.0101605 -0.000881678 0.0134425
 vertex 0.0107308 -0.00142658 0.0129555
 vertex 0.0125365 -0.00142658 0.01785
 endloop
endfacet
facet normal 0 0 0
 outer loop
 vertex 0.0101605 -0.000881678 0.0134425
 vertex 0.0125365 -0.00142658 0.01785
 vertex 0.0117865 -0.000881678 0.01785
 endloop
endfacet
facet normal 0 0 0
 outer loop
 vertex 0.0107308 -0.00142658 0.0129555
 vertex 0.0114357 -0.00142658 0.0123534
 vertex 0.0134635 -0.00142658 0.01785
 endloop
endfacet
facet normal 0 0 0
 outer loop
 vertex 0.0107308 -0.00142658 0.0129555
 vertex 0.0134635 -0.00142658 0.01785
 vertex 0.0125365 -0.00142658 0.01785
 endloop
endfacet
facet normal 0 0 0
 outer loop
 vertex 0.0114357 -0.00142658 0.0123534
 vertex 0.012006 -0.000881678 0.0118663
 vertex 0.0142135 -0.000881678 0.01785
 endloop
endfacet
facet normal 0 0 0
 outer loop
 vertex 0.0114357 -0.00142658 0.0123534
 vertex 0.0142135 -0.000881678 0.01785
 vertex 0.0134635 -0.00142658 0.01785
 endloop
endfacet
facet normal 0 0 0
 outer loop
 vertex 0.012006 -0.000881678 0.0118663
 vertex 0.0122239 2.62268e-10 0.0116802
 vertex 0.0145 2.62268e-10 0.01785
 endloop
endfacet
facet normal 0 0 0
 outer loop
 vertex 0.012006 -0.000881678 0.0118663
 vertex 0.0145 2.62268e-10 0.01785
 vertex 0.0142135 -0.000881678 0.01785
 endloop
endfacet
facet normal 0 0 0
 outer loop
 vertex 0.0145 0 0.01785
 vertex 0.0142135 0.000881678 0.01785
 vertex 0.012006 0.000881678 0.0238337
 endloop
endfacet
facet normal 0 0 0
 outer loop
 vertex 0.0145 0 0.01785
 vertex 0.012006 0.000881678 0.0238337
 vertex 0.0122239 0 0.0240198
 endloop
endfacet
facet normal 0 0 0
 outer loop
 vertex 0.0142135 0.000881678 0.01785
 vertex 0.0134635 0.00142658 0.01785
 vertex 0.0114357 0.00142658 0.0233466
 endloop
endfacet
facet normal 0 0 0
 outer loop
 vertex 0.0142135 0.000881678 0.01785
 vertex 0.0114357 0.00142658 0.0233466
 vertex 0.012006 0.000881678 0.0238337
 endloop
endfacet
facet normal 0 0 0
 outer loop
 vertex 0.0134635 0.00142658 0.01785
 vertex 0.0125365 0.00142658 0.01785
 vertex 0.0107308 0.00142658 0.0227445
 endloop
endfacet
facet normal 0 0 0
 outer loop
 vertex 0.0134635 0.00142658 0.01785
 vertex 0.0107308 0.00142658 0.0227445
 vertex 0.0114357 0.00142658 0.0233466
 endloop
endfacet
facet normal 0 0 0
 outer loop
 vertex 0.0125365 0.00142658 0.01785
 vertex 0.0117865 0.000881678 0.01785
 vertex 0.0101605 0.000881678 0.0222575
 endloop
endfacet
facet normal 0 0 0
 outer loop
 vertex 0.0125365 0.00142658 0.01785
 vertex 0.0101605 0.000881678 0.0222575
 vertex 0.0107308 0.00142658 0.0227445
 endloop
endfacet
facet normal 0 0 0
 outer loop
 vertex 0.0117865 0.000881678 0.01785
 vertex 0.0115 -1.31134e-10 0.01785
 vertex 0.00994264 -1.31134e-10 0.0220714
 endloop
endfacet
facet normal 0 0 0
 outer loop
 vertex 0.0117865 0.000881678 0.01785
 vertex 0.00994264 -1.31134e-10 0.0220714
 vertex 0.0101605 0.000881678 0.0222575
 endloop
endfacet
facet normal 0 0 0
 outer loop
 vertex 0.0115 -1.31134e-10 0.01785
 vertex 0.0117865 -0.000881678 0.01785
 vertex 0.0101605 -0.000881678 0.0222575
 endloop
endfacet
facet normal 0 0 0
 outer loop
 vertex 0.0115 -1.31134e-10 0.01785
 vertex 0.0101605 -0.000881678 0.0222575
 vertex 0.00994264 -1.31134e-10 0.0220714
 endloop
endfacet
facet normal 0 0 0
 outer loop
 vertex 0.0117865 -0.000881678 0.01785
 vertex 0.0125365 -0.00142658 0.01785
 vertex 0.0107308 -0.00142658 0.0227445
 endloop
endfacet
facet normal 0 0 0
 outer loop
 vertex 0.0117865 -0.000881678 0.01785
 vertex 0.0107308 -0.00142658 0.0227445
 vertex 0.0101605 -0.000881678 0.0222575
 endloop
endfacet
facet normal 0 0 0
 outer loop
 vertex 0.0125365 -0.00142658 0.01785
 vertex 0.0134635 -0.00142658 0.01785
 vertex 0.0114357 -0.00142658 0.0233466
 endloop
endfacet
facet normal 0 0 0
 outer loop
 vertex 0.0125365 -0.00142658 0.01785
 vertex 0.0114357 -0.00142658 0.0233466
 vertex 0.0107308 -0.00142658 0.0227445
 endloop
endfacet
facet normal 0 0 0
 outer loop
 vertex 0.0134635 -0.00142658 0.01785
 vertex 0.0142135 -0.000881678 0.01785
 vertex 0.012006 -0.000881678 0.0238337
 endloop
endfacet
facet normal 0 0 0
 outer loop
 vertex 0.0134635 -0.00142658 0.01785
 vertex 0.012006 -0.000881678 0.0238337
 vertex 0.0114357 -0.00142658 0.0233466
 endloop
endfacet
facet normal 0 0 0
 outer loop
 vertex 0.0142135 -0.000881678 0.01785
 vertex 0.0145 2.62268e-10 0.01785
 vertex 0.0122239 2.62268e-10 0.0240198
 endloop
endfacet
facet normal 0 0 0
 outer loop
 vertex 0.0142135 -0.000881678 0.01785
 vertex 0.0122239 2.62268e-10 0.0240198
 vertex 0.012006 -0.000881678 0.0238337
 endloop
endfacet
facet normal 0 0 0
 outer loop
 vertex 0.0122239 0 0.0240198
 vertex 0.012006 0.000881678 0.0238337
 vertex 0.00644131 0.000881678 0.0269501
 endloop
endfacet
facet normal 0 0 0
 outer loop
 vertex 0.0122239 0 0.0240198
 vertex 0.00644131 0.000881678 0.0269501
 vertex 0.00648613 0 0.027233
 endloop
endfacet
facet normal 0 0 0
 outer loop
 vertex 0.012006 0.000881678 0.0238337
 vertex 0.0114357 0.00142658 0.0233466
 vertex 0.00632399 0.00142658 0.0262093
 endloop
endfacet
facet normal 0 0 0
 outer loop
 vertex 0.012006 0.000881678 0.0238337
 vertex 0.00632399 0.00142658 0.0262093
 vertex 0.00644131 0.000881678 0.0269501
 endloop
endfacet
facet normal 0 0 0
 outer loop
 vertex 0.0114357 0.00142658 0.0233466
 vertex 0.0107308 0.00142658 0.0227445
 vertex 0.00617896 0.00142658 0.0252937
 endloop
endfacet
facet normal 0 0 0
 outer loop
 vertex 0.0114357 0.00142658 0.0233466
 vertex 0.00617896 0.00142658 0.0252937
 vertex 0.00632399 0.00142658 0.0262093
 endloop
endfacet
facet normal 0 0 0
 outer loop
 vertex 0.0107308 0.00142658 0.0227445
 vertex 0.0101605 0.000881678 0.0222575
 vertex 0.00606164 0.000881678 0.0245529
 endloop
endfacet
facet normal 0 0 0
 outer loop
 vertex 0.0107308 0.00142658 0.0227445
 vertex 0.00606164 0.000881678 0.0245529
 vertex 0.00617896 0.00142658 0.0252937
 endloop
endfacet
facet normal 0 0 0
 outer loop
 vertex 0.0101605 0.000881678 0.0222575
 vertex 0.00994264 -1.31134e-10 0.0220714
 vertex 0.00601682 -1.31134e-10 0.02427
 endloop
endfacet
facet normal 0 0 0
 outer loop
 vertex 0.0101605 0.000881678 0.0222575
 vertex 0.00601682 -1.31134e-10 0.02427
 vertex 0.00606164 0.000881678 0.0245529
 endloop
endfacet
facet normal 0 0 0
 outer loop
 vertex 0.00994264 -1.31134e-10 0.0220714
 vertex 0.0101605 -0.000881678 0.0222575
 vertex 0.00606164 -0.000881678 0.0245529
 endloop
endfacet
facet normal 0 0 0
 outer loop
 vertex 0.00994264 -1.31134e-10 0.0220714
 vertex 0.00606164 -0.000881678 0.0245529
 vertex 0.00601682 -1.31134e-10 0.02427
 endloop
endfacet
facet normal 0 0 0
 outer loop
 vertex 0.0101605 -0.000881678 0.0222575
 vertex 0.0107308 -0.00142658 0.0227445
 vertex 0.00617896 -0.00142658 0.0252937
 endloop
endfacet
facet normal 0 0 0
 outer loop
 vertex 0.0101605 -0.000881678 0.0222575
 vertex 0.00617896 -0.00142658 0.0252937
 vertex 0.00606164 -0.000881678 0.0245529
 endloop
endfacet
facet normal 0 0 0
 outer loop
 vertex 0.0107308 -0.00142658 0.0227445
 vertex 0.0114357 -0.00142658 0.0233466
 vertex 0.00632399 -0.00142658 0.0262093
 endloop
endfacet
facet normal 0 0 0
 outer loop
 vertex 0.0107308 -0.00142658 0.0227445
 vertex 0.00632399 -0.00142658 0.0262093
 vertex 0.00617896 -0.00142658 0.0252937
 endloop
endfacet
facet normal 0 0 0
 outer loop
 vertex 0.0114357 -0.00142658 0.0233466
 vertex 0.012006 -0.000881678 0.0238337
 vertex 0.00644131 -0.000881678 0.0269501
 endloop
endfacet
facet normal 0 0 0
 outer loop
 vertex 0.0114357 -0.00142658 0.0233466
 vertex 0.00644131 -0.000881678 0.0269501
 vertex 0.00632399 -0.00142658 0.0262093
 endloop
endfacet
facet normal 0 0 0
 outer loop
 vertex 0.012006 -0.000881678 0.0238337
 vertex 0.0122239 2.62268e-10 0.0240198
 vertex 0.00648613 2.62268e-10 0.027233
 endloop
endfacet
facet normal 0 0 0
 outer loop
 vertex 0.012006 -0.000881678 0.0238337
 vertex 0.00648613 2.62268e-10 0.027233
 vertex 0.00644131 -0.000881678 0.0269501
 endloop
endfacet
facet normal 0 0 0
 outer loop
 vertex 0.0564861 0 0.00846696
 vertex 0.0564413 0.000881678 0.00874991
 vertex 0.062006 0.000881678 0.0118663
 endloop
endfacet
facet normal 0 0 0
 outer loop
 vertex 0.0564861 0 0.00846696
 vertex 0.062006 0.000881678 0.0118663
 vertex 0.0622239 0 0.0116802
 endloop
endfacet
facet normal 0 0 0
 outer loop
 vertex 0.0564413 0.000881678 0.00874991
 vertex 0.056324 0.00142658 0.00949067
 vertex 0.0614357 0.00142658 0.0123534
 endloop
endfacet
facet normal 0 0 0
 outer loop
 vertex 0.0564413 0.000881678 0.00874991
 vertex 0.0614357 0.00142658 0.0123534
 vertex 0.062006 0.000881678 0.0118663
 endloop
endfacet
facet normal 0 0 0
 outer loop
 vertex 0.056324 0.00142658 0.00949067
 vertex 0.056179 0.00142658 0.0104063
 vertex 0.0607308 0.00142658 0.0129555
 endloop
endfacet
facet normal 0 0 0
 outer loop
 vertex 0.056324 0.00142658 0.00949067
 vertex 0.0607308 0.00142658 0.0129555
 vertex 0.0614357 0.00142658 0.0123534
 endloop
endfacet
facet normal 0 0 0
 outer loop
 vertex 0.056179 0.00142658 0.0104063
 vertex 0.0560616 0.000881678 0.0111471
 vertex 0.0601605 0.000881678 0.0134425
 endloop
endfacet
facet normal 0 0 0
 outer loop
 vertex 0.056179 0.00142658 0.0104063
 vertex 0.0601605 0.000881678 0.0134425
 vertex 0.0607308 0.00142658 0.0129555
 endloop
endfacet
facet normal 0 0 0
 outer loop
 vertex 0.0560616 0.000881678 0.0111471
 vertex 0.0560168 -1.31134e-10 0.01143
 vertex 0.0599426 -1.31134e-10 0.0136286
 endloop
endfacet
facet normal 0 0 0
 outer loop
 vertex 0.0560616 0.000881678 0.0111471
 vertex 0.0599426 -1.31134e-10 0.0136286
 vertex 0.0601605 0.000881678 0.0134425
 endloop
endfacet
facet normal 0 0 0
 outer loop
 vertex 0.0560168 -1.31134e-10 0.01143
 vertex 0.0560616 -0.000881678 0.0111471
 vertex 0.0601605 -0.000881678 0.0134425
 endloop
endfacet
facet normal 0 0 0
 outer loop
 vertex 0.0560168 -1.31134e-10 0.01143
 vertex 0.0601605 -0.000881678 0.0134425
 vertex 0.0599426 -1.31134e-10 0.0136286
 endloop
endfacet
facet normal 0 0 0
 outer loop
 vertex 0.0560616 -0.000881678 0.0111471
 vertex 0.056179 -0.00142658 0.0104063
 vertex 0.0607308 -0.00142658 0.0129555
 endloop
endfacet
facet normal 0 0 0
 outer loop
 vertex 0.0560616 -0.000881678 0.0111471
 vertex 0.0607308 -0.00142658 0.0129555
 vertex 0.0601605 -0.000881678 0.0134425
 endloop
endfacet
facet normal 0 0 0
 outer loop
 vertex 0.056179 -0.00142658 0.0104063
 vertex 0.056324 -0.00142658 0.00949067
 vertex 0.0614357 -0.00142658 0.0123534
 endloop
endfacet
facet normal 0 0 0
 outer loop
 vertex 0.056179 -0.00142658 0.0104063
 vertex 0.0614357 -0.00142658 0.0123534
 vertex 0.0607308 -0.00142658 0.0129555
 endloop
endfacet
facet normal 0 0 0
 outer loop
 vertex 0.056324 -0.00142658 0.00949067
 vertex 0.0564413 -0.000881678 0.00874991
 vertex 0.062006 -0.000881678 0.0118663
 endloop
endfacet
facet normal 0 0 0
 outer loop
 vertex 0.056324 -0.00142658 0.00949067
 vertex 0.062006 -0.000881678 0.0118663
 vertex 0.0614357 -0.00142658 0.0123534
 endloop
endfacet
facet normal 0 0 0
 outer loop
 vertex 0.0564413 -0.000881678 0.00874991
 vertex 0.0564861 2.62268e-10 0.00846696
 vertex 0.0622239 2.62268e-10 0.0116802
 endloop
endfacet
facet normal 0 0 0
 outer loop
 vertex 0.0564413 -0.000881678 0.00874991
 vertex 0.0622239 2.62268e-10 0.0116802
 vertex 0.062006 -0.000881678 0.0118663
 endloop
endfacet
facet normal 0 0 0
 outer loop
 vertex 0.0622239 0 0.0116802
 vertex 0.062006 0.000881678 0.0118663
 vertex 0.0642135 0.000881678 0.01785
 endloop
endfacet
facet normal 0 0 0
 outer loop
 vertex 0.0622239 0 0.0116802
 vertex 0.0642135 0.000881678 0.01785
 vertex 0.0645 0 0.01785
 endloop
endfacet
facet normal 0 0 0
 outer loop
 vertex 0.062006 0.000881678 0.0118663
 vertex 0.0614357 0.00142658 0.0123534
 vertex 0.0634635 0.00142658 0.01785
 endloop
endfacet
facet normal 0 0 0
 outer loop
 vertex 0.062006 0.000881678 0.0118663
 vertex 0.0634635 0.00142658 0.01785
 vertex 0.0642135 0.000881678 0.01785
 endloop
endfacet
facet normal 0 0 0
 outer loop
 vertex 0.0614357 0.00142658 0.0123534
 vertex 0.0607308 0.00142658 0.0129555
 vertex 0.0625365 0.00142658 0.01785
 endloop
endfacet
facet normal 0 0 0
 outer loop
 vertex 0.0614357 0.00142658 0.0123534
 vertex 0.0625365 0.00142658 0.01785
 vertex 0.0634635 0.00142658 0.01785
 endloop
endfacet
facet normal 0 0 0
 outer loop
 vertex 0.0607308 0.00142658 0.0129555
 vertex 0.0601605 0.000881678 0.0134425
 vertex 0.0617865 0.000881678 0.01785
 endloop
endfacet
facet normal 0 0 0
 outer loop
 vertex 0.0607308 0.00142658 0.0129555
 vertex 0.0617865 0.000881678 0.01785
 vertex 0.0625365 0.00142658 0.01785
 endloop
endfacet
facet normal 0 0 0
 outer loop
 vertex 0.0601605 0.000881678 0.0134425
 vertex 0.0599426 -1.31134e-10 0.0136286
 vertex 0.0615 -1.31134e-10 0.01785
 endloop
endfacet
facet normal 0 0 0
 outer loop
 vertex 0.0601605 0.000881678 0.0134425
 vertex 0.0615 -1.31134e-10 0.01785
 vertex 0.0617865 0.000881678 0.01785
 endloop
endfacet
facet normal 0 0 0
 outer loop
 vertex 0.0599426 -1.31134e-10 0.0136286
 vertex 0.0601605 -0.000881678 0.0134425
 vertex 0.0617865 -0.000881678 0.01785
 endloop
endfacet
facet normal 0 0 0
 outer loop
 vertex 0.0599426 -1.31134e-10 0.0136286
 vertex 0.0617865 -0.000881678 0.01785
 vertex 0.0615 -1.31134e-10 0.01785
 endloop
endfacet
facet normal 0 0 0
 outer loop
 vertex 0.0601605 -0.000881678 0.0134425
 vertex 0.0607308 -0.00142658 0.0129555
 vertex 0.0625365 -0.00142658 0.01785
 endloop
endfacet
facet normal 0 0 0
 outer loop
 vertex 0.0601605 -0.000881678 0.0134425
 vertex 0.0625365 -0.00142658 0.01785
 vertex 0.0617865 -0.000881678 0.01785
 endloop
endfacet
facet normal 0 0 0
 outer loop
 vertex 0.0607308 -0.00142658 0.0129555
 vertex 0.0614357 -0.00142658 0.0123534
 vertex 0.0634635 -0.00142658 0.01785
 endloop
endfacet
facet normal 0 0 0
 outer loop
 vertex 0.0607308 -0.00142658 0.0129555
 vertex 0.0634635 -0.00142658 0.01785
 vertex 0.0625365 -0.00142658 0.01785
 endloop
endfacet
facet normal 0 0 0
 outer loop
 vertex 0.0614357 -0.00142658 0.0123534
 vertex 0.062006 -0.000881678 0.0118663
 vertex 0.0642135 -0.000881678 0.01785
 endloop
endfacet
facet normal 0 0 0
 outer loop
 vertex 0.0614357 -0.00142658 0.0123534
 vertex 0.0642135 -0.000881678 0.01785
 vertex 0.0634635 -0.00142658 0.01785
 endloop
endfacet
facet normal 0 0 0
 outer loop
 vertex 0.062006 -0.000881678 0.0118663
 vertex 0.0622239 2.62268e-10 0.0116802
 vertex 0.0645 2.62268e-10 0.01785
 endloop
endfacet
facet normal 0 0 0
 outer loop
 vertex 0.062006 -0.000881678 0.0118663
 vertex 0.0645 2.62268e-10 0.01785
 vertex 0.0642135 -0.000881678 0.01785
 endloop
endfacet
facet normal 0 0 0
 outer loop
 vertex 0.0645 0 0.01785
 vertex 0.0642135 0.000881678 0.01785
 vertex 0.062006 0.000881678 0.0238337
 endloop
endfacet
facet normal 0 0 0
 outer loop
 vertex 0.0645 0 0.01785
 vertex 0.062006 0.000881678 0.0238337
 vertex 0.0622239 0 0.0240198
 endloop
endfacet
facet normal 0 0 0
 outer loop
 vertex 0.0642135 0.000881678 0.01785
 vertex 0.0634635 0.00142658 0.01785
 vertex 0.0614357 0.00142658 0.0233466
 endloop
endfacet
facet normal 0 0 0
 outer loop
 vertex 0.0642135 0.000881678 0.01785
 vertex 0.0614357 0.00142658 0.0233466
 vertex 0.062006 0.000881678 0.0238337
 endloop
endfacet
facet normal 0 0 0
 outer loop
 vertex 0.0634635 0.00142658 0.01785
 vertex 0.0625365 0.00142658 0.01785
 vertex 0.0607308 0.00142658 0.0227445
 endloop
endfacet
facet normal 0 0 0
 outer loop
 vertex 0.0634635 0.00142658 0.01785
 vertex 0.0607308 0.00142658 0.0227445
 vertex 0.0614357 0.00142658 0.0233466
 endloop
endfacet
facet normal 0 0 0
 outer loop
 vertex 0.0625365 0.00142658 0.01785
 vertex 0.0617865 0.000881678 0.01785
 vertex 0.0601605 0.000881678 0.0222575
 endloop
endfacet
facet normal 0 0 0
 outer loop
 vertex 0.0625365 0.00142658 0.01785
 vertex 0.0601605 0.000881678 0.0222575
 vertex 0.0607308 0.00142658 0.0227445
 endloop
endfacet
facet normal 0 0 0
 outer loop
 vertex 0.0617865 0.000881678 0.01785
 vertex 0.0615 -1.31134e-10 0.01785
 vertex 0.0599426 -1.31134e-10 0.0220714
 endloop
endfacet
facet normal 0 0 0
 outer loop
 vertex 0.0617865 0.000881678 0.01785
 vertex 0.0599426 -1.31134e-10 0.0220714
 vertex 0.0601605 0.000881678 0.0222575
 endloop
endfacet
facet normal 0 0 0
 outer loop
 vertex 0.0615 -1.31134e-10 0.01785
 vertex 0.0617865 -0.000881678 0.01785
 vertex 0.0601605 -0.000881678 0.0222575
 endloop
endfacet
facet normal 0 0 0
 outer loop
 vertex 0.0615 -1.31134e-10 0.01785
 vertex 0.0601605 -0.000881678 0.0222575
 vertex 0.0599426 -1.31134e-10 0.0220714
 endloop
endfacet
facet normal 0 0 0
 outer loop
 vertex 0.0617865 -0.000881678 0.01785
 vertex 0.0625365 -0.00142658 0.01785
 vertex 0.0607308 -0.00142658 0.0227445
 endloop
endfacet
facet normal 0 0 0
 outer loop
 vertex 0.0617865 -0.000881678 0.01785
 vertex 0.0607308 -0.00142658 0.0227445
 vertex 0.0601605 -0.000881678 0.0222575
 endloop
endfacet
facet normal 0 0 0
 outer loop
 vertex 0.0625365 -0.00142658 0.01785
 vertex 0.0634635 -0.00142658 0.01785
 vertex 0.0614357 -0.00142658 0.0233466
 endloop
endfacet
facet normal 0 0 0
 outer loop
 vertex 0.0625365 -0.00142658 0.01785
 vertex 0.0614357 -0.00142658 0.0233466
 vertex 0.0607308 -0.00142658 0.0227445
 endloop
endfacet
facet normal 0 0 0
 outer loop
 vertex 0.0634635 -0.00142658 0.01785
 vertex 0.0642135 -0.000881678 0.01785
 vertex 0.062006 -0.000881678 0.0238337
 endloop
endfacet
facet normal 0 0 0
 outer loop
 vertex 0.0634635 -0.00142658 0.01785
 vertex 0.062006 -0.000881678 0.0238337
 vertex 0.0614357 -0.00142658 0.0233466
 endloop
endfacet
facet normal 0 0 0
 outer loop
 vertex 0.0642135 -0.000881678 0.01785
 vertex 0.0645 2.62268e-10 0.01785
 vertex 0.0622239 2.62268e-10 0.0240198
 endloop
endfacet
facet normal 0 0 0
 outer loop
 vertex 0.0642135 -0.000881678 0.01785
 vertex 0.0622239 2.62268e-10 0.0240198
 vertex 0.062006 -0.000881678 0.0238337
 endloop
endfacet
facet normal 0 0 0
 outer loop
 vertex 0.0622239 0 0.0240198
 vertex 0.062006 0.000881678 0.0238337
 vertex 0.0564413 0.000881678 0.0269501
 endloop
endfacet
facet normal 0 0 0
 outer loop
 vertex 0.0622239 0 0.0240198
 vertex 0.0564413 0.000881678 0.0269501
 vertex 0.0564861 0 0.027233
 endloop
endfacet
facet normal 0 0 0
 outer loop
 vertex 0.062006 0.000881678 0.0238337
 vertex 0.0614357 0.00142658 0.0233466
 vertex 0.056324 0.00142658 0.0262093
 endloop
endfacet
facet normal 0 0 0
 outer loop
 vertex 0.062006 0.000881678 0.0238337
 vertex 0.056324 0.00142658 0.0262093
 vertex 0.0564413 0.000881678 0.0269501
 endloop
endfacet
facet normal 0 0 0
 outer loop
 vertex 0.0614357 0.00142658 0.0233466
 vertex 0.0607308 0.00142658 0.0227445
 vertex 0.056179 0.00142658 0.0252937
 endloop
endfacet
facet normal 0 0 0
 outer loop
 vertex 0.0614357 0.00142658 0.0233466
 vertex 0.056179 0.00142658 0.0252937
 vertex 0.056324 0.00142658 0.0262093
 endloop
endfacet
facet normal 0 0 0
 outer loop
 vertex 0.0607308 0.00142658 0.0227445
 vertex 0.0601605 0.000881678 0.0222575
 vertex 0.0560616 0.000881678 0.0245529
 endloop
endfacet
facet normal 0 0 0
 outer loop
 vertex 0.0607308 0.00142658 0.0227445
 vertex 0.0560616 0.000881678 0.0245529
 vertex 0.056179 0.00142658 0.0252937
 endloop
endfacet
facet normal 0 0 0
 outer loop
 vertex 0.0601605 0.000881678 0.0222575
 vertex 0.0599426 -1.31134e-10 0.0220714
 vertex 0.0560168 -1.31134e-10 0.02427
 endloop
endfacet
facet normal 0 0 0
 outer loop
 vertex 0.0601605 0.000881678 0.0222575
 vertex 0.0560168 -1.31134e-10 0.02427
 vertex 0.0560616 0.000881678 0.0245529
 endloop
endfacet
facet normal 0 0 0
 outer loop
 vertex 0.0599426 -1.31134e-10 0.0220714
 vertex 0.0601605 -0.000881678 0.0222575
 vertex 0.0560616 -0.000881678 0.0245529
 endloop
endfacet
facet normal 0 0 0
 outer loop
 vertex 0.0599426 -1.31134e-10 0.0220714
 vertex 0.0560616 -0.000881678 0.0245529
 vertex 0.0560168 -1.31134e-10 0.02427
 endloop
endfacet
facet normal 0 0 0
 outer loop
 vertex 0.0601605 -0.000881678 0.0222575
 vertex 0.0607308 -0.00142658 0.0227445
 vertex 0.056179 -0.00142658 0.0252937
 endloop
endfacet
facet normal 0 0 0
 outer loop
 vertex 0.0601605 -0.000881678 0.0222575
 vertex 0.056179 -0.00142658 0.0252937
 vertex 0.0560616 -0.000881678 0.0245529
 endloop
endfacet
facet normal 0 0 0
 outer loop
 vertex 0.0607308 -0.00142658 0.0227445
 vertex 0.0614357 -0.00142658 0.0233466
 vertex 0.056324 -0.00142658 0.0262093
 endloop
endfacet
facet normal 0 0 0
 outer loop
 vertex 0.0607308 -0.00142658 0.0227445
 vertex 0.056324 -0.00142658 0.0262093
 vertex 0.056179 -0.00142658 0.0252937
 endloop
endfacet
facet normal 0 0 0
 outer loop
 vertex 0.0614357 -0.00142658 0.0233466
 vertex 0.062006 -0.000881678 0.0238337
 vertex 0.0564413 -0.000881678 0.0269501
 endloop
endfacet
facet normal 0 0 0
 outer loop
 vertex 0.0614357 -0.00142658 0.0233466
 vertex 0.0564413 -0.000881678 0.0269501
 vertex 0.056324 -0.00142658 0.0262093
 endloop
endfacet
facet normal 0 0 0
 outer loop
 vertex 0.062006 -0.000881678 0.0238337
 vertex 0.0622239 2.62268e-10 0.0240198
 vertex 0.0564861 2.62268e-10 0.027233
 endloop
endfacet
facet normal 0 0 0
 outer loop
 vertex 0.062006 -0.000881678 0.0238337
 vertex 0.0564861 2.62268e-10 0.027233
 vertex 0.0564413 -0.000881678 0.0269501
 endloop
endfacet
facet normal 0 0 0
 outer loop
 vertex 0.00648613 0.0154586 -0.018308
 vertex 0.00644131 0.0163402 -0.0180251
 vertex 0.012006 0.0163402 -0.0149087
 endloop
endfacet
facet normal 0 0 0
 outer loop
 vertex 0.00648613 0.0154586 -0.018308
 vertex 0.012006 0.0163402 -0.0149087
 vertex 0.0122239 0.0154586 -0.0150948
 endloop
endfacet
facet normal 0 0 0
 outer loop
 vertex 0.00644131 0.0163402 -0.0180251
 vertex 0.00632399 0.0168851 -0.0172843
 vertex 0.0114357 0.0168851 -0.0144216
 endloop
endfacet
facet normal 0 0 0
 outer loop
 vertex 0.00644131 0.0163402 -0.0180251
 vertex 0.0114357 0.0168851 -0.0144216
 vertex 0.012006 0.0163402 -0.0149087
 endloop
endfacet
facet normal 0 0 0
 outer loop
 vertex 0.00632399 0.0168851 -0.0172843
 vertex 0.00617896 0.0168851 -0.0163687
 vertex 0.0107308 0.0168851 -0.0138195
 endloop
endfacet
facet normal 0 0 0
 outer loop
 vertex 0.00632399 0.0168851 -0.0172843
 vertex 0.0107308 0.0168851 -0.0138195
 vertex 0.0114357 0.0168851 -0.0144216
 endloop
endfacet
facet normal 0 0 0
 outer loop
 vertex 0.00617896 0.0168851 -0.0163687
 vertex 0.00606164 0.0163402 -0.0156279
 vertex 0.0101605 0.0163402 -0.0133325
 endloop
endfacet
facet normal 0 0 0
 outer loop
 vertex 0.00617896 0.0168851 -0.0163687
 vertex 0.0101605 0.0163402 -0.0133325
 vertex 0.0107308 0.0168851 -0.0138195
 endloop
endfacet
facet normal 0 0 0
 outer loop
 vertex 0.00606164 0.0163402 -0.0156279
 vertex 0.00601682 0.0154586 -0.015345
 vertex 0.00994264 0.0154586 -0.0131464
 endloop
endfacet
facet normal 0 0 0
 outer loop
 vertex 0.00606164 0.0163402 -0.0156279
 vertex 0.00994264 0.0154586 -0.0131464
 vertex 0.0101605 0.0163402 -0.0133325
 endloop
endfacet
facet normal 0 0 0
 outer loop
 vertex 0.00601682 0.0154586 -0.015345
 vertex 0.00606164 0.0145769 -0.0156279
 vertex 0.0101605 0.0145769 -0.0133325
 endloop
endfacet
facet normal 0 0 0
 outer loop
 vertex 0.00601682 0.0154586 -0.015345
 vertex 0.0101605 0.0145769 -0.0133325
 vertex 0.00994264 0.0154586 -0.0131464
 endloop
endfacet
facet normal 0 0 0
 outer loop
 vertex 0.00606164 0.0145769 -0.0156279
 vertex 0.00617896 0.014032 -0.0163687
 vertex 0.0107308 0.014032 -0.0138195
 endloop
endfacet
facet normal 0 0 0
 outer loop
 vertex 0.00606164 0.0145769 -0.0156279
 vertex 0.0107308 0.014032 -0.0138195
 vertex 0.0101605 0.0145769 -0.0133325
 endloop
endfacet
facet normal 0 0 0
 outer loop
 vertex 0.00617896 0.014032 -0.0163687
 vertex 0.00632399 0.014032 -0.0172843
 vertex 0.0114357 0.014032 -0.0144216
 endloop
endfacet
facet normal 0 0 0
 outer loop
 vertex 0.00617896 0.014032 -0.0163687
 vertex 0.0114357 0.014032 -0.0144216
 vertex 0.0107308 0.014032 -0.0138195
 endloop
endfacet
facet normal 0 0 0
 outer loop
 vertex 0.00632399 0.014032 -0.0172843
 vertex 0.00644131 0.0145769 -0.0180251
 vertex 0.012006 0.0145769 -0.0149087
 endloop
endfacet
facet normal 0 0 0
 outer loop
 vertex 0.00632399 0.014032 -0.0172843
 vertex 0.012006 0.0145769 -0.0149087
 vertex 0.0114357 0.014032 -0.0144216
 endloop
endfacet
facet normal 0 0 0
 outer loop
 vertex 0.00644131 0.0145769 -0.0180251
 vertex 0.00648613 0.0154586 -0.018308
 vertex 0.0122239 0.0154586 -0.0150948
 endloop
endfacet
facet normal 0 0 0
 outer loop
 vertex 0.00644131 0.0145769 -0.0180251
 vertex 0.0122239 0.0154586 -0.0150948
 vertex 0.012006 0.0145769 -0.0149087
 endloop
endfacet
facet normal 0 0 0
 outer loop
 vertex 0.0122239 0.0154586 -0.0150948
 vertex 0.012006 0.0163402 -0.0149087
 vertex 0.0142135 0.0163402 -0.008925
 endloop
endfacet
facet normal 0 0 0
 outer loop
 vertex 0.0122239 0.0154586 -0.0150948
 vertex 0.0142135 0.0163402 -0.008925
 vertex 0.0145 0.0154586 -0.008925
 endloop
endfacet
facet normal 0 0 0
 outer loop
 vertex 0.012006 0.0163402 -0.0149087
 vertex 0.0114357 0.0168851 -0.0144216
 vertex 0.0134635 0.0168851 -0.008925
 endloop
endfacet
facet normal 0 0 0
 outer loop
 vertex 0.012006 0.0163402 -0.0149087
 vertex 0.0134635 0.0168851 -0.008925
 vertex 0.0142135 0.0163402 -0.008925
 endloop
endfacet
facet normal 0 0 0
 outer loop
 vertex 0.0114357 0.0168851 -0.0144216
 vertex 0.0107308 0.0168851 -0.0138195
 vertex 0.0125365 0.0168851 -0.008925
 endloop
endfacet
facet normal 0 0 0
 outer loop
 vertex 0.0114357 0.0168851 -0.0144216
 vertex 0.0125365 0.0168851 -0.008925
 vertex 0.0134635 0.0168851 -0.008925
 endloop
endfacet
facet normal 0 0 0
 outer loop
 vertex 0.0107308 0.0168851 -0.0138195
 vertex 0.0101605 0.0163402 -0.0133325
 vertex 0.0117865 0.0163402 -0.008925
 endloop
endfacet
facet normal 0 0 0
 outer loop
 vertex 0.0107308 0.0168851 -0.0138195
 vertex 0.0117865 0.0163402 -0.008925
 vertex 0.0125365 0.0168851 -0.008925
 endloop
endfacet
facet normal 0 0 0
 outer loop
 vertex 0.0101605 0.0163402 -0.0133325
 vertex 0.00994264 0.0154586 -0.0131464
 vertex 0.0115 0.0154586 -0.008925
 endloop
endfacet
facet normal 0 0 0
 outer loop
 vertex 0.0101605 0.0163402 -0.0133325
 vertex 0.0115 0.0154586 -0.008925
 vertex 0.0117865 0.0163402 -0.008925
 endloop
endfacet
facet normal 0 0 0
 outer loop
 vertex 0.00994264 0.0154586 -0.0131464
 vertex 0.0101605 0.0145769 -0.0133325
 vertex 0.0117865 0.0145769 -0.008925
 endloop
endfacet
facet normal 0 0 0
 outer loop
 vertex 0.00994264 0.0154586 -0.0131464
 vertex 0.0117865 0.0145769 -0.008925
 vertex 0.0115 0.0154586 -0.008925
 endloop
endfacet
facet normal 0 0 0
 outer loop
 vertex 0.0101605 0.0145769 -0.0133325
 vertex 0.0107308 0.014032 -0.0138195
 vertex 0.0125365 0.014032 -0.008925
 endloop
endfacet
facet normal 0 0 0
 outer loop
 vertex 0.0101605 0.0145769 -0.0133325
 vertex 0.0125365 0.014032 -0.008925
 vertex 0.0117865 0.0145769 -0.008925
 endloop
endfacet
facet normal 0 0 0
 outer loop
 vertex 0.0107308 0.014032 -0.0138195
 vertex 0.0114357 0.014032 -0.0144216
 vertex 0.0134635 0.014032 -0.008925
 endloop
endfacet
facet normal 0 0 0
 outer loop
 vertex 0.0107308 0.014032 -0.0138195
 vertex 0.0134635 0.014032 -0.008925
 vertex 0.0125365 0.014032 -0.008925
 endloop
endfacet
facet normal 0 0 0
 outer loop
 vertex 0.0114357 0.014032 -0.0144216
 vertex 0.012006 0.0145769 -0.0149087
 vertex 0.0142135 0.0145769 -0.008925
 endloop
endfacet
facet normal 0 0 0
 outer loop
 vertex 0.0114357 0.014032 -0.0144216
 vertex 0.0142135 0.0145769 -0.008925
 vertex 0.0134635 0.014032 -0.008925
 endloop
endfacet
facet normal 0 0 0
 outer loop
 vertex 0.012006 0.0145769 -0.0149087
 vertex 0.0122239 0.0154586 -0.0150948
 vertex 0.0145 0.0154586 -0.008925
 endloop
endfacet
facet normal 0 0 0
 outer loop
 vertex 0.012006 0.0145769 -0.0149087
 vertex 0.0145 0.0154586 -0.008925
 vertex 0.0142135 0.0145769 -0.008925
 endloop
endfacet
facet normal 0 0 0
 outer loop
 vertex 0.0145 0.0154586 -0.008925
 vertex 0.0142135 0.0163402 -0.008925
 vertex 0.012006 0.0163402 -0.0029413
 endloop
endfacet
facet normal 0 0 0
 outer loop
 vertex 0.0145 0.0154586 -0.008925
 vertex 0.012006 0.0163402 -0.0029413
 vertex 0.0122239 0.0154586 -0.00275524
 endloop
endfacet
facet normal 0 0 0
 outer loop
 vertex 0.0142135 0.0163402 -0.008925
 vertex 0.0134635 0.0168851 -0.008925
 vertex 0.0114357 0.0168851 -0.00342838
 endloop
endfacet
facet normal 0 0 0
 outer loop
 vertex 0.0142135 0.0163402 -0.008925
 vertex 0.0114357 0.0168851 -0.00342838
 vertex 0.012006 0.0163402 -0.0029413
 endloop
endfacet
facet normal 0 0 0
 outer loop
 vertex 0.0134635 0.0168851 -0.008925
 vertex 0.0125365 0.0168851 -0.008925
 vertex 0.0107308 0.0168851 -0.00403045
 endloop
endfacet
facet normal 0 0 0
 outer loop
 vertex 0.0134635 0.0168851 -0.008925
 vertex 0.0107308 0.0168851 -0.00403045
 vertex 0.0114357 0.0168851 -0.00342838
 endloop
endfacet
facet normal 0 0 0
 outer loop
 vertex 0.0125365 0.0168851 -0.008925
 vertex 0.0117865 0.0163402 -0.008925
 vertex 0.0101605 0.0163402 -0.00451754
 endloop
endfacet
facet normal 0 0 0
 outer loop
 vertex 0.0125365 0.0168851 -0.008925
 vertex 0.0101605 0.0163402 -0.00451754
 vertex 0.0107308 0.0168851 -0.00403045
 endloop
endfacet
facet normal 0 0 0
 outer loop
 vertex 0.0117865 0.0163402 -0.008925
 vertex 0.0115 0.0154586 -0.008925
 vertex 0.00994264 0.0154586 -0.00470359
 endloop
endfacet
facet normal 0 0 0
 outer loop
 vertex 0.0117865 0.0163402 -0.008925
 vertex 0.00994264 0.0154586 -0.00470359
 vertex 0.0101605 0.0163402 -0.00451754
 endloop
endfacet
facet normal 0 0 0
 outer loop
 vertex 0.0115 0.0154586 -0.008925
 vertex 0.0117865 0.0145769 -0.008925
 vertex 0.0101605 0.0145769 -0.00451754
 endloop
endfacet
facet normal 0 0 0
 outer loop
 vertex 0.0115 0.0154586 -0.008925
 vertex 0.0101605 0.0145769 -0.00451754
 vertex 0.00994264 0.0154586 -0.00470359
 endloop
endfacet
facet normal 0 0 0
 outer loop
 vertex 0.0117865 0.0145769 -0.008925
 vertex 0.0125365 0.014032 -0.008925
 vertex 0.0107308 0.014032 -0.00403045
 endloop
endfacet
facet normal 0 0 0
 outer loop
 vertex 0.0117865 0.0145769 -0.008925
 vertex 0.0107308 0.014032 -0.00403045
 vertex 0.0101605 0.0145769 -0.00451754
 endloop
endfacet
facet normal 0 0 0
 outer loop
 vertex 0.0125365 0.014032 -0.008925
 vertex 0.0134635 0.014032 -0.008925
 vertex 0.0114357 0.014032 -0.00342838
 endloop
endfacet
facet normal 0 0 0
 outer loop
 vertex 0.0125365 0.014032 -0.008925
 vertex 0.0114357 0.014032 -0.00342838
 vertex 0.0107308 0.014032 -0.00403045
 endloop
endfacet
facet normal 0 0 0
 outer loop
 vertex 0.0134635 0.014032 -0.008925
 vertex 0.0142135 0.0145769 -0.008925
 vertex 0.012006 0.0145769 -0.0029413
 endloop
endfacet
facet normal 0 0 0
 outer loop
 vertex 0.0134635 0.014032 -0.008925
 vertex 0.012006 0.0145769 -0.0029413
 vertex 0.0114357 0.014032 -0.00342838
 endloop
endfacet
facet normal 0 0 0
 outer loop
 vertex 0.0142135 0.0145769 -0.008925
 vertex 0.0145 0.0154586 -0.008925
 vertex 0.0122239 0.0154586 -0.00275524
 endloop
endfacet
facet normal 0 0 0
 outer loop
 vertex 0.0142135 0.0145769 -0.008925
 vertex 0.0122239 0.0154586 -0.00275524
 vertex 0.012006 0.0145769 -0.0029413
 endloop
endfacet
facet normal 0 0 0
 outer loop
 vertex 0.0122239 0.0154586 -0.00275524
 vertex 0.012006 0.0163402 -0.0029413
 vertex 0.00644131 0.0163402 0.000175091
 endloop
endfacet
facet normal 0 0 0
 outer loop
 vertex 0.0122239 0.0154586 -0.00275524
 vertex 0.00644131 0.0163402 0.000175091
 vertex 0.00648613 0.0154586 0.000458039
 endloop
endfacet
facet normal 0 0 0
 outer loop
 vertex 0.012006 0.0163402 -0.0029413
 vertex 0.0114357 0.0168851 -0.00342838
 vertex 0.00632399 0.0168851 -0.000565675
 endloop
endfacet
facet normal 0 0 0
 outer loop
 vertex 0.012006 0.0163402 -0.0029413
 vertex 0.00632399 0.0168851 -0.000565675
 vertex 0.00644131 0.0163402 0.000175091
 endloop
endfacet
facet normal 0 0 0
 outer loop
 vertex 0.0114357 0.0168851 -0.00342838
 vertex 0.0107308 0.0168851 -0.00403045
 vertex 0.00617896 0.0168851 -0.00148131
 endloop
endfacet
facet normal 0 0 0
 outer loop
 vertex 0.0114357 0.0168851 -0.00342838
 vertex 0.00617896 0.0168851 -0.00148131
 vertex 0.00632399 0.0168851 -0.000565675
 endloop
endfacet
facet normal 0 0 0
 outer loop
 vertex 0.0107308 0.0168851 -0.00403045
 vertex 0.0101605 0.0163402 -0.00451754
 vertex 0.00606164 0.0163402 -0.00222208
 endloop
endfacet
facet normal 0 0 0
 outer loop
 vertex 0.0107308 0.0168851 -0.00403045
 vertex 0.00606164 0.0163402 -0.00222208
 vertex 0.00617896 0.0168851 -0.00148131
 endloop
endfacet
facet normal 0 0 0
 outer loop
 vertex 0.0101605 0.0163402 -0.00451754
 vertex 0.00994264 0.0154586 -0.00470359
 vertex 0.00601682 0.0154586 -0.00250503
 endloop
endfacet
facet normal 0 0 0
 outer loop
 vertex 0.0101605 0.0163402 -0.00451754
 vertex 0.00601682 0.0154586 -0.00250503
 vertex 0.00606164 0.0163402 -0.00222208
 endloop
endfacet
facet normal 0 0 0
 outer loop
 vertex 0.00994264 0.0154586 -0.00470359
 vertex 0.0101605 0.0145769 -0.00451754
 vertex 0.00606164 0.0145769 -0.00222208
 endloop
endfacet
facet normal 0 0 0
 outer loop
 vertex 0.00994264 0.0154586 -0.00470359
 vertex 0.00606164 0.0145769 -0.00222208
 vertex 0.00601682 0.0154586 -0.00250503
 endloop
endfacet
facet normal 0 0 0
 outer loop
 vertex 0.0101605 0.0145769 -0.00451754
 vertex 0.0107308 0.014032 -0.00403045
 vertex 0.00617896 0.014032 -0.00148131
 endloop
endfacet
facet normal 0 0 0
 outer loop
 vertex 0.0101605 0.0145769 -0.00451754
 vertex 0.00617896 0.014032 -0.00148131
 vertex 0.00606164 0.0145769 -0.00222208
 endloop
endfacet
facet normal 0 0 0
 outer loop
 vertex 0.0107308 0.014032 -0.00403045
 vertex 0.0114357 0.014032 -0.00342838
 vertex 0.00632399 0.014032 -0.000565675
 endloop
endfacet
facet normal 0 0 0
 outer loop
 vertex 0.0107308 0.014032 -0.00403045
 vertex 0.00632399 0.014032 -0.000565675
 vertex 0.00617896 0.014032 -0.00148131
 endloop
endfacet
facet normal 0 0 0
 outer loop
 vertex 0.0114357 0.014032 -0.00342838
 vertex 0.012006 0.0145769 -0.0029413
 vertex 0.00644131 0.0145769 0.000175091
 endloop
endfacet
facet normal 0 0 0
 outer loop
 vertex 0.0114357 0.014032 -0.00342838
 vertex 0.00644131 0.0145769 0.000175091
 vertex 0.00632399 0.014032 -0.000565675
 endloop
endfacet
facet normal 0 0 0
 outer loop
 vertex 0.012006 0.0145769 -0.0029413
 vertex 0.0122239 0.0154586 -0.00275524
 vertex 0.00648613 0.0154586 0.000458039
 endloop
endfacet
facet normal 0 0 0
 outer loop
 vertex 0.012006 0.0145769 -0.0029413
 vertex 0.00648613 0.0154586 0.000458039
 vertex 0.00644131 0.0145769 0.000175091
 endloop
endfacet
facet normal 0 0 0
 outer loop
 vertex 0.0564861 0.0154586 -0.018308
 vertex 0.0564413 0.0163402 -0.0180251
 vertex 0.062006 0.0163402 -0.0149087
 endloop
endfacet
facet normal 0 0 0
 outer loop
 vertex 0.0564861 0.0154586 -0.018308
 vertex 0.062006 0.0163402 -0.0149087
 vertex 0.0622239 0.0154586 -0.0150948
 endloop
endfacet
facet normal 0 0 0
 outer loop
 vertex 0.0564413 0.0163402 -0.0180251
 vertex 0.056324 0.0168851 -0.0172843
 vertex 0.0614357 0.0168851 -0.0144216
 endloop
endfacet
facet normal 0 0 0
 outer loop
 vertex 0.0564413 0.0163402 -0.0180251
 vertex 0.0614357 0.0168851 -0.0144216
 vertex 0.062006 0.0163402 -0.0149087
 endloop
endfacet
facet normal 0 0 0
 outer loop
 vertex 0.056324 0.0168851 -0.0172843
 vertex 0.056179 0.0168851 -0.0163687
 vertex 0.0607308 0.0168851 -0.0138195
 endloop
endfacet
facet normal 0 0 0
 outer loop
 vertex 0.056324 0.0168851 -0.0172843
 vertex 0.0607308 0.0168851 -0.0138195
 vertex 0.0614357 0.0168851 -0.0144216
 endloop
endfacet
facet normal 0 0 0
 outer loop
 vertex 0.056179 0.0168851 -0.0163687
 vertex 0.0560616 0.0163402 -0.0156279
 vertex 0.0601605 0.0163402 -0.0133325
 endloop
endfacet
facet normal 0 0 0
 outer loop
 vertex 0.056179 0.0168851 -0.0163687
 vertex 0.0601605 0.0163402 -0.0133325
 vertex 0.0607308 0.0168851 -0.0138195
 endloop
endfacet
facet normal 0 0 0
 outer loop
 vertex 0.0560616 0.0163402 -0.0156279
 vertex 0.0560168 0.0154586 -0.015345
 vertex 0.0599426 0.0154586 -0.0131464
 endloop
endfacet
facet normal 0 0 0
 outer loop
 vertex 0.0560616 0.0163402 -0.0156279
 vertex 0.0599426 0.0154586 -0.0131464
 vertex 0.0601605 0.0163402 -0.0133325
 endloop
endfacet
facet normal 0 0 0
 outer loop
 vertex 0.0560168 0.0154586 -0.015345
 vertex 0.0560616 0.0145769 -0.0156279
 vertex 0.0601605 0.0145769 -0.0133325
 endloop
endfacet
facet normal 0 0 0
 outer loop
 vertex 0.0560168 0.0154586 -0.015345
 vertex 0.0601605 0.0145769 -0.0133325
 vertex 0.0599426 0.0154586 -0.0131464
 endloop
endfacet
facet normal 0 0 0
 outer loop
 vertex 0.0560616 0.0145769 -0.0156279
 vertex 0.056179 0.014032 -0.0163687
 vertex 0.0607308 0.014032 -0.0138195
 endloop
endfacet
facet normal 0 0 0
 outer loop
 vertex 0.0560616 0.0145769 -0.0156279
 vertex 0.0607308 0.014032 -0.0138195
 vertex 0.0601605 0.0145769 -0.0133325
 endloop
endfacet
facet normal 0 0 0
 outer loop
 vertex 0.056179 0.014032 -0.0163687
 vertex 0.056324 0.014032 -0.0172843
 vertex 0.0614357 0.014032 -0.0144216
 endloop
endfacet
facet normal 0 0 0
 outer loop
 vertex 0.056179 0.014032 -0.0163687
 vertex 0.0614357 0.014032 -0.0144216
 vertex 0.0607308 0.014032 -0.0138195
 endloop
endfacet
facet normal 0 0 0
 outer loop
 vertex 0.056324 0.014032 -0.0172843
 vertex 0.0564413 0.0145769 -0.0180251
 vertex 0.062006 0.0145769 -0.0149087
 endloop
endfacet
facet normal 0 0 0
 outer loop
 vertex 0.056324 0.014032 -0.0172843
 vertex 0.062006 0.0145769 -0.0149087
 vertex 0.0614357 0.014032 -0.0144216
 endloop
endfacet
facet normal 0 0 0
 outer loop
 vertex 0.0564413 0.0145769 -0.0180251
 vertex 0.0564861 0.0154586 -0.018308
 vertex 0.0622239 0.0154586 -0.0150948
 endloop
endfacet
facet normal 0 0 0
 outer loop
 vertex 0.0564413 0.0145769 -0.0180251
 vertex 0.0622239 0.0154586 -0.0150948
 vertex 0.062006 0.0145769 -0.0149087
 endloop
endfacet
facet normal 0 0 0
 outer loop
 vertex 0.0622239 0.0154586 -0.0150948
 vertex 0.062006 0.0163402 -0.0149087
 vertex 0.0642135 0.0163402 -0.008925
 endloop
endfacet
facet normal 0 0 0
 outer loop
 vertex 0.0622239 0.0154586 -0.0150948
 vertex 0.0642135 0.0163402 -0.008925
 vertex 0.0645 0.0154586 -0.008925
 endloop
endfacet
facet normal 0 0 0
 outer loop
 vertex 0.062006 0.0163402 -0.0149087
 vertex 0.0614357 0.0168851 -0.0144216
 vertex 0.0634635 0.0168851 -0.008925
 endloop
endfacet
facet normal 0 0 0
 outer loop
 vertex 0.062006 0.0163402 -0.0149087
 vertex 0.0634635 0.0168851 -0.008925
 vertex 0.0642135 0.0163402 -0.008925
 endloop
endfacet
facet normal 0 0 0
 outer loop
 vertex 0.0614357 0.0168851 -0.0144216
 vertex 0.0607308 0.0168851 -0.0138195
 vertex 0.0625365 0.0168851 -0.008925
 endloop
endfacet
facet normal 0 0 0
 outer loop
 vertex 0.0614357 0.0168851 -0.0144216
 vertex 0.0625365 0.0168851 -0.008925
 vertex 0.0634635 0.0168851 -0.008925
 endloop
endfacet
facet normal 0 0 0
 outer loop
 vertex 0.0607308 0.0168851 -0.0138195
 vertex 0.0601605 0.0163402 -0.0133325
 vertex 0.0617865 0.0163402 -0.008925
 endloop
endfacet
facet normal 0 0 0
 outer loop
 vertex 0.0607308 0.0168851 -0.0138195
 vertex 0.0617865 0.0163402 -0.008925
 vertex 0.0625365 0.0168851 -0.008925
 endloop
endfacet
facet normal 0 0 0
 outer loop
 vertex 0.0601605 0.0163402 -0.0133325
 vertex 0.0599426 0.0154586 -0.0131464
 vertex 0.0615 0.0154586 -0.008925
 endloop
endfacet
facet normal 0 0 0
 outer loop
 vertex 0.0601605 0.0163402 -0.0133325
 vertex 0.0615 0.0154586 -0.008925
 vertex 0.0617865 0.0163402 -0.008925
 endloop
endfacet
facet normal 0 0 0
 outer loop
 vertex 0.0599426 0.0154586 -0.0131464
 vertex 0.0601605 0.0145769 -0.0133325
 vertex 0.0617865 0.0145769 -0.008925
 endloop
endfacet
facet normal 0 0 0
 outer loop
 vertex 0.0599426 0.0154586 -0.0131464
 vertex 0.0617865 0.0145769 -0.008925
 vertex 0.0615 0.0154586 -0.008925
 endloop
endfacet
facet normal 0 0 0
 outer loop
 vertex 0.0601605 0.0145769 -0.0133325
 vertex 0.0607308 0.014032 -0.0138195
 vertex 0.0625365 0.014032 -0.008925
 endloop
endfacet
facet normal 0 0 0
 outer loop
 vertex 0.0601605 0.0145769 -0.0133325
 vertex 0.0625365 0.014032 -0.008925
 vertex 0.0617865 0.0145769 -0.008925
 endloop
endfacet
facet normal 0 0 0
 outer loop
 vertex 0.0607308 0.014032 -0.0138195
 vertex 0.0614357 0.014032 -0.0144216
 vertex 0.0634635 0.014032 -0.008925
 endloop
endfacet
facet normal 0 0 0
 outer loop
 vertex 0.0607308 0.014032 -0.0138195
 vertex 0.0634635 0.014032 -0.008925
 vertex 0.0625365 0.014032 -0.008925
 endloop
endfacet
facet normal 0 0 0
 outer loop
 vertex 0.0614357 0.014032 -0.0144216
 vertex 0.062006 0.0145769 -0.0149087
 vertex 0.0642135 0.0145769 -0.008925
 endloop
endfacet
facet normal 0 0 0
 outer loop
 vertex 0.0614357 0.014032 -0.0144216
 vertex 0.0642135 0.0145769 -0.008925
 vertex 0.0634635 0.014032 -0.008925
 endloop
endfacet
facet normal 0 0 0
 outer loop
 vertex 0.062006 0.0145769 -0.0149087
 vertex 0.0622239 0.0154586 -0.0150948
 vertex 0.0645 0.0154586 -0.008925
 endloop
endfacet
facet normal 0 0 0
 outer loop
 vertex 0.062006 0.0145769 -0.0149087
 vertex 0.0645 0.0154586 -0.008925
 vertex 0.0642135 0.0145769 -0.008925
 endloop
endfacet
facet normal 0 0 0
 outer loop
 vertex 0.0645 0.0154586 -0.008925
 vertex 0.0642135 0.0163402 -0.008925
 vertex 0.062006 0.0163402 -0.0029413
 endloop
endfacet
facet normal 0 0 0
 outer loop
 vertex 0.0645 0.0154586 -0.008925
 vertex 0.062006 0.0163402 -0.0029413
 vertex 0.0622239 0.0154586 -0.00275524
 endloop
endfacet
facet normal 0 0 0
 outer loop
 vertex 0.0642135 0.0163402 -0.008925
 vertex 0.0634635 0.0168851 -0.008925
 vertex 0.0614357 0.0168851 -0.00342838
 endloop
endfacet
facet normal 0 0 0
 outer loop
 vertex 0.0642135 0.0163402 -0.008925
 vertex 0.0614357 0.0168851 -0.00342838
 vertex 0.062006 0.0163402 -0.0029413
 endloop
endfacet
facet normal 0 0 0
 outer loop
 vertex 0.0634635 0.0168851 -0.008925
 vertex 0.0625365 0.0168851 -0.008925
 vertex 0.0607308 0.0168851 -0.00403045
 endloop
endfacet
facet normal 0 0 0
 outer loop
 vertex 0.0634635 0.0168851 -0.008925
 vertex 0.0607308 0.0168851 -0.00403045
 vertex 0.0614357 0.0168851 -0.00342838
 endloop
endfacet
facet normal 0 0 0
 outer loop
 vertex 0.0625365 0.0168851 -0.008925
 vertex 0.0617865 0.0163402 -0.008925
 vertex 0.0601605 0.0163402 -0.00451754
 endloop
endfacet
facet normal 0 0 0
 outer loop
 vertex 0.0625365 0.0168851 -0.008925
 vertex 0.0601605 0.0163402 -0.00451754
 vertex 0.0607308 0.0168851 -0.00403045
 endloop
endfacet
facet normal 0 0 0
 outer loop
 vertex 0.0617865 0.0163402 -0.008925
 vertex 0.0615 0.0154586 -0.008925
 vertex 0.0599426 0.0154586 -0.00470359
 endloop
endfacet
facet normal 0 0 0
 outer loop
 vertex 0.0617865 0.0163402 -0.008925
 vertex 0.0599426 0.0154586 -0.00470359
 vertex 0.0601605 0.0163402 -0.00451754
 endloop
endfacet
facet normal 0 0 0
 outer loop
 vertex 0.0615 0.0154586 -0.008925
 vertex 0.0617865 0.0145769 -0.008925
 vertex 0.0601605 0.0145769 -0.00451754
 endloop
endfacet
facet normal 0 0 0
 outer loop
 vertex 0.0615 0.0154586 -0.008925
 vertex 0.0601605 0.0145769 -0.00451754
 vertex 0.0599426 0.0154586 -0.00470359
 endloop
endfacet
facet normal 0 0 0
 outer loop
 vertex 0.0617865 0.0145769 -0.008925
 vertex 0.0625365 0.014032 -0.008925
 vertex 0.0607308 0.014032 -0.00403045
 endloop
endfacet
facet normal 0 0 0
 outer loop
 vertex 0.0617865 0.0145769 -0.008925
 vertex 0.0607308 0.014032 -0.00403045
 vertex 0.0601605 0.0145769 -0.00451754
 endloop
endfacet
facet normal 0 0 0
 outer loop
 vertex 0.0625365 0.014032 -0.008925
 vertex 0.0634635 0.014032 -0.008925
 vertex 0.0614357 0.014032 -0.00342838
 endloop
endfacet
facet normal 0 0 0
 outer loop
 vertex 0.0625365 0.014032 -0.008925
 vertex 0.0614357 0.014032 -0.00342838
 vertex 0.0607308 0.014032 -0.00403045
 endloop
endfacet
facet normal 0 0 0
 outer loop
 vertex 0.0634635 0.014032 -0.008925
 vertex 0.0642135 0.0145769 -0.008925
 vertex 0.062006 0.0145769 -0.0029413
 endloop
endfacet
facet normal 0 0 0
 outer loop
 vertex 0.0634635 0.014032 -0.008925
 vertex 0.062006 0.0145769 -0.0029413
 vertex 0.0614357 0.014032 -0.00342838
 endloop
endfacet
facet normal 0 0 0
 outer loop
 vertex 0.0642135 0.0145769 -0.008925
 vertex 0.0645 0.0154586 -0.008925
 vertex 0.0622239 0.0154586 -0.00275524
 endloop
endfacet
facet normal 0 0 0
 outer loop
 vertex 0.0642135 0.0145769 -0.008925
 vertex 0.0622239 0.0154586 -0.00275524
 vertex 0.062006 0.0145769 -0.0029413
 endloop
endfacet
facet normal 0 0 0
 outer loop
 vertex 0.0622239 0.0154586 -0.00275524
 vertex 0.062006 0.0163402 -0.0029413
 vertex 0.0564413 0.0163402 0.000175091
 endloop
endfacet
facet normal 0 0 0
 outer loop
 vertex 0.0622239 0.0154586 -0.00275524
 vertex 0.0564413 0.0163402 0.000175091
 vertex 0.0564861 0.0154586 0.000458039
 endloop
endfacet
facet normal 0 0 0
 outer loop
 vertex 0.062006 0.0163402 -0.0029413
 vertex 0.0614357 0.0168851 -0.00342838
 vertex 0.056324 0.0168851 -0.000565675
 endloop
endfacet
facet normal 0 0 0
 outer loop
 vertex 0.062006 0.0163402 -0.0029413
 vertex 0.056324 0.0168851 -0.000565675
 vertex 0.0564413 0.0163402 0.000175091
 endloop
endfacet
facet normal 0 0 0
 outer loop
 vertex 0.0614357 0.0168851 -0.00342838
 vertex 0.0607308 0.0168851 -0.00403045
 vertex 0.056179 0.0168851 -0.00148131
 endloop
endfacet
facet normal 0 0 0
 outer loop
 vertex 0.0614357 0.0168851 -0.00342838
 vertex 0.056179 0.0168851 -0.00148131
 vertex 0.056324 0.0168851 -0.000565675
 endloop
endfacet
facet normal 0 0 0
 outer loop
 vertex 0.0607308 0.0168851 -0.00403045
 vertex 0.0601605 0.0163402 -0.00451754
 vertex 0.0560616 0.0163402 -0.00222208
 endloop
endfacet
facet normal 0 0 0
 outer loop
 vertex 0.0607308 0.0168851 -0.00403045
 vertex 0.0560616 0.0163402 -0.00222208
 vertex 0.056179 0.0168851 -0.00148131
 endloop
endfacet
facet normal 0 0 0
 outer loop
 vertex 0.0601605 0.0163402 -0.00451754
 vertex 0.0599426 0.0154586 -0.00470359
 vertex 0.0560168 0.0154586 -0.00250503
 endloop
endfacet
facet normal 0 0 0
 outer loop
 vertex 0.0601605 0.0163402 -0.00451754
 vertex 0.0560168 0.0154586 -0.00250503
 vertex 0.0560616 0.0163402 -0.00222208
 endloop
endfacet
facet normal 0 0 0
 outer loop
 vertex 0.0599426 0.0154586 -0.00470359
 vertex 0.0601605 0.0145769 -0.00451754
 vertex 0.0560616 0.0145769 -0.00222208
 endloop
endfacet
facet normal 0 0 0
 outer loop
 vertex 0.0599426 0.0154586 -0.00470359
 vertex 0.0560616 0.0145769 -0.00222208
 vertex 0.0560168 0.0154586 -0.00250503
 endloop
endfacet
facet normal 0 0 0
 outer loop
 vertex 0.0601605 0.0145769 -0.00451754
 vertex 0.0607308 0.014032 -0.00403045
 vertex 0.056179 0.014032 -0.00148131
 endloop
endfacet
facet normal 0 0 0
 outer loop
 vertex 0.0601605 0.0145769 -0.00451754
 vertex 0.056179 0.014032 -0.00148131
 vertex 0.0560616 0.0145769 -0.00222208
 endloop
endfacet
facet normal 0 0 0
 outer loop
 vertex 0.0607308 0.014032 -0.00403045
 vertex 0.0614357 0.014032 -0.00342838
 vertex 0.056324 0.014032 -0.000565675
 endloop
endfacet
facet normal 0 0 0
 outer loop
 vertex 0.0607308 0.014032 -0.00403045
 vertex 0.056324 0.014032 -0.000565675
 vertex 0.056179 0.014032 -0.00148131
 endloop
endfacet
facet normal 0 0 0
 outer loop
 vertex 0.0614357 0.014032 -0.00342838
 vertex 0.062006 0.0145769 -0.0029413
 vertex 0.0564413 0.0145769 0.000175091
 endloop
endfacet
facet normal 0 0 0
 outer loop
 vertex 0.0614357 0.014032 -0.00342838
 vertex 0.0564413 0.0145769 0.000175091
 vertex 0.056324 0.014032 -0.000565675
 endloop
endfacet
facet normal 0 0 0
 outer loop
 vertex 0.062006 0.0145769 -0.0029413
 vertex 0.0622239 0.0154586 -0.00275524
 vertex 0.0564861 0.0154586 0.000458039
 endloop
endfacet
facet normal 0 0 0
 outer loop
 vertex 0.062006 0.0145769 -0.0029413
 vertex 0.0564861 0.0154586 0.000458039
 vertex 0.0564413 0.0145769 0.000175091
 endloop
endfacet
facet normal 0 0 0
 outer loop
 vertex 0.00648613 -0.0154586 -0.018308
 vertex 0.00644131 -0.0145769 -0.0180251
 vertex 0.012006 -0.0145769 -0.0149087
 endloop
endfacet
facet normal 0 0 0
 outer loop
 vertex 0.00648613 -0.0154586 -0.018308
 vertex 0.012006 -0.0145769 -0.0149087
 vertex 0.0122239 -0.0154586 -0.0150948
 endloop
endfacet
facet normal 0 0 0
 outer loop
 vertex 0.00644131 -0.0145769 -0.0180251
 vertex 0.00632399 -0.014032 -0.0172843
 vertex 0.0114357 -0.014032 -0.0144216
 endloop
endfacet
facet normal 0 0 0
 outer loop
 vertex 0.00644131 -0.0145769 -0.0180251
 vertex 0.0114357 -0.014032 -0.0144216
 vertex 0.012006 -0.0145769 -0.0149087
 endloop
endfacet
facet normal 0 0 0
 outer loop
 vertex 0.00632399 -0.014032 -0.0172843
 vertex 0.00617896 -0.014032 -0.0163687
 vertex 0.0107308 -0.014032 -0.0138195
 endloop
endfacet
facet normal 0 0 0
 outer loop
 vertex 0.00632399 -0.014032 -0.0172843
 vertex 0.0107308 -0.014032 -0.0138195
 vertex 0.0114357 -0.014032 -0.0144216
 endloop
endfacet
facet normal 0 0 0
 outer loop
 vertex 0.00617896 -0.014032 -0.0163687
 vertex 0.00606164 -0.0145769 -0.0156279
 vertex 0.0101605 -0.0145769 -0.0133325
 endloop
endfacet
facet normal 0 0 0
 outer loop
 vertex 0.00617896 -0.014032 -0.0163687
 vertex 0.0101605 -0.0145769 -0.0133325
 vertex 0.0107308 -0.014032 -0.0138195
 endloop
endfacet
facet normal 0 0 0
 outer loop
 vertex 0.00606164 -0.0145769 -0.0156279
 vertex 0.00601682 -0.0154586 -0.015345
 vertex 0.00994264 -0.0154586 -0.0131464
 endloop
endfacet
facet normal 0 0 0
 outer loop
 vertex 0.00606164 -0.0145769 -0.0156279
 vertex 0.00994264 -0.0154586 -0.0131464
 vertex 0.0101605 -0.0145769 -0.0133325
 endloop
endfacet
facet normal 0 0 0
 outer loop
 vertex 0.00601682 -0.0154586 -0.015345
 vertex 0.00606164 -0.0163402 -0.0156279
 vertex 0.0101605 -0.0163402 -0.0133325
 endloop
endfacet
facet normal 0 0 0
 outer loop
 vertex 0.00601682 -0.0154586 -0.015345
 vertex 0.0101605 -0.0163402 -0.0133325
 vertex 0.00994264 -0.0154586 -0.0131464
 endloop
endfacet
facet normal 0 0 0
 outer loop
 vertex 0.00606164 -0.0163402 -0.0156279
 vertex 0.00617896 -0.0168851 -0.0163687
 vertex 0.0107308 -0.0168851 -0.0138195
 endloop
endfacet
facet normal 0 0 0
 outer loop
 vertex 0.00606164 -0.0163402 -0.0156279
 vertex 0.0107308 -0.0168851 -0.0138195
 vertex 0.0101605 -0.0163402 -0.0133325
 endloop
endfacet
facet normal 0 0 0
 outer loop
 vertex 0.00617896 -0.0168851 -0.0163687
 vertex 0.00632399 -0.0168851 -0.0172843
 vertex 0.0114357 -0.0168851 -0.0144216
 endloop
endfacet
facet normal 0 0 0
 outer loop
 vertex 0.00617896 -0.0168851 -0.0163687
 vertex 0.0114357 -0.0168851 -0.0144216
 vertex 0.0107308 -0.0168851 -0.0138195
 endloop
endfacet
facet normal 0 0 0
 outer loop
 vertex 0.00632399 -0.0168851 -0.0172843
 vertex 0.00644131 -0.0163402 -0.0180251
 vertex 0.012006 -0.0163402 -0.0149087
 endloop
endfacet
facet normal 0 0 0
 outer loop
 vertex 0.00632399 -0.0168851 -0.0172843
 vertex 0.012006 -0.0163402 -0.0149087
 vertex 0.0114357 -0.0168851 -0.0144216
 endloop
endfacet
facet normal 0 0 0
 outer loop
 vertex 0.00644131 -0.0163402 -0.0180251
 vertex 0.00648613 -0.0154586 -0.018308
 vertex 0.0122239 -0.0154586 -0.0150948
 endloop
endfacet
facet normal 0 0 0
 outer loop
 vertex 0.00644131 -0.0163402 -0.0180251
 vertex 0.0122239 -0.0154586 -0.0150948
 vertex 0.012006 -0.0163402 -0.0149087
 endloop
endfacet
facet normal 0 0 0
 outer loop
 vertex 0.0122239 -0.0154586 -0.0150948
 vertex 0.012006 -0.0145769 -0.0149087
 vertex 0.0142135 -0.0145769 -0.008925
 endloop
endfacet
facet normal 0 0 0
 outer loop
 vertex 0.0122239 -0.0154586 -0.0150948
 vertex 0.0142135 -0.0145769 -0.008925
 vertex 0.0145 -0.0154586 -0.008925
 endloop
endfacet
facet normal 0 0 0
 outer loop
 vertex 0.012006 -0.0145769 -0.0149087
 vertex 0.0114357 -0.014032 -0.0144216
 vertex 0.0134635 -0.014032 -0.008925
 endloop
endfacet
facet normal 0 0 0
 outer loop
 vertex 0.012006 -0.0145769 -0.0149087
 vertex 0.0134635 -0.014032 -0.008925
 vertex 0.0142135 -0.0145769 -0.008925
 endloop
endfacet
facet normal 0 0 0
 outer loop
 vertex 0.0114357 -0.014032 -0.0144216
 vertex 0.0107308 -0.014032 -0.0138195
 vertex 0.0125365 -0.014032 -0.008925
 endloop
endfacet
facet normal 0 0 0
 outer loop
 vertex 0.0114357 -0.014032 -0.0144216
 vertex 0.0125365 -0.014032 -0.008925
 vertex 0.0134635 -0.014032 -0.008925
 endloop
endfacet
facet normal 0 0 0
 outer loop
 vertex 0.0107308 -0.014032 -0.0138195
 vertex 0.0101605 -0.0145769 -0.0133325
 vertex 0.0117865 -0.0145769 -0.008925
 endloop
endfacet
facet normal 0 0 0
 outer loop
 vertex 0.0107308 -0.014032 -0.0138195
 vertex 0.0117865 -0.0145769 -0.008925
 vertex 0.0125365 -0.014032 -0.008925
 endloop
endfacet
facet normal 0 0 0
 outer loop
 vertex 0.0101605 -0.0145769 -0.0133325
 vertex 0.00994264 -0.0154586 -0.0131464
 vertex 0.0115 -0.0154586 -0.008925
 endloop
endfacet
facet normal 0 0 0
 outer loop
 vertex 0.0101605 -0.0145769 -0.0133325
 vertex 0.0115 -0.0154586 -0.008925
 vertex 0.0117865 -0.0145769 -0.008925
 endloop
endfacet
facet normal 0 0 0
 outer loop
 vertex 0.00994264 -0.0154586 -0.0131464
 vertex 0.0101605 -0.0163402 -0.0133325
 vertex 0.0117865 -0.0163402 -0.008925
 endloop
endfacet
facet normal 0 0 0
 outer loop
 vertex 0.00994264 -0.0154586 -0.0131464
 vertex 0.0117865 -0.0163402 -0.008925
 vertex 0.0115 -0.0154586 -0.008925
 endloop
endfacet
facet normal 0 0 0
 outer loop
 vertex 0.0101605 -0.0163402 -0.0133325
 vertex 0.0107308 -0.0168851 -0.0138195
 vertex 0.0125365 -0.0168851 -0.008925
 endloop
endfacet
facet normal 0 0 0
 outer loop
 vertex 0.0101605 -0.0163402 -0.0133325
 vertex 0.0125365 -0.0168851 -0.008925
 vertex 0.0117865 -0.0163402 -0.008925
 endloop
endfacet
facet normal 0 0 0
 outer loop
 vertex 0.0107308 -0.0168851 -0.0138195
 vertex 0.0114357 -0.0168851 -0.0144216
 vertex 0.0134635 -0.0168851 -0.008925
 endloop
endfacet
facet normal 0 0 0
 outer loop
 vertex 0.0107308 -0.0168851 -0.0138195
 vertex 0.0134635 -0.0168851 -0.008925
 vertex 0.0125365 -0.0168851 -0.008925
 endloop
endfacet
facet normal 0 0 0
 outer loop
 vertex 0.0114357 -0.0168851 -0.0144216
 vertex 0.012006 -0.0163402 -0.0149087
 vertex 0.0142135 -0.0163402 -0.008925
 endloop
endfacet
facet normal 0 0 0
 outer loop
 vertex 0.0114357 -0.0168851 -0.0144216
 vertex 0.0142135 -0.0163402 -0.008925
 vertex 0.0134635 -0.0168851 -0.008925
 endloop
endfacet
facet normal 0 0 0
 outer loop
 vertex 0.012006 -0.0163402 -0.0149087
 vertex 0.0122239 -0.0154586 -0.0150948
 vertex 0.0145 -0.0154586 -0.008925
 endloop
endfacet
facet normal 0 0 0
 outer loop
 vertex 0.012006 -0.0163402 -0.0149087
 vertex 0.0145 -0.0154586 -0.008925
 vertex 0.0142135 -0.0163402 -0.008925
 endloop
endfacet
facet normal 0 0 0
 outer loop
 vertex 0.0145 -0.0154586 -0.008925
 vertex 0.0142135 -0.0145769 -0.008925
 vertex 0.012006 -0.0145769 -0.00294129
 endloop
endfacet
facet normal 0 0 0
 outer loop
 vertex 0.0145 -0.0154586 -0.008925
 vertex 0.012006 -0.0145769 -0.00294129
 vertex 0.0122239 -0.0154586 -0.00275524
 endloop
endfacet
facet normal 0 0 0
 outer loop
 vertex 0.0142135 -0.0145769 -0.008925
 vertex 0.0134635 -0.014032 -0.008925
 vertex 0.0114357 -0.014032 -0.00342838
 endloop
endfacet
facet normal 0 0 0
 outer loop
 vertex 0.0142135 -0.0145769 -0.008925
 vertex 0.0114357 -0.014032 -0.00342838
 vertex 0.012006 -0.0145769 -0.00294129
 endloop
endfacet
facet normal 0 0 0
 outer loop
 vertex 0.0134635 -0.014032 -0.008925
 vertex 0.0125365 -0.014032 -0.008925
 vertex 0.0107308 -0.014032 -0.00403045
 endloop
endfacet
facet normal 0 0 0
 outer loop
 vertex 0.0134635 -0.014032 -0.008925
 vertex 0.0107308 -0.014032 -0.00403045
 vertex 0.0114357 -0.014032 -0.00342838
 endloop
endfacet
facet normal 0 0 0
 outer loop
 vertex 0.0125365 -0.014032 -0.008925
 vertex 0.0117865 -0.0145769 -0.008925
 vertex 0.0101605 -0.0145769 -0.00451754
 endloop
endfacet
facet normal 0 0 0
 outer loop
 vertex 0.0125365 -0.014032 -0.008925
 vertex 0.0101605 -0.0145769 -0.00451754
 vertex 0.0107308 -0.014032 -0.00403045
 endloop
endfacet
facet normal 0 0 0
 outer loop
 vertex 0.0117865 -0.0145769 -0.008925
 vertex 0.0115 -0.0154586 -0.008925
 vertex 0.00994264 -0.0154586 -0.00470359
 endloop
endfacet
facet normal 0 0 0
 outer loop
 vertex 0.0117865 -0.0145769 -0.008925
 vertex 0.00994264 -0.0154586 -0.00470359
 vertex 0.0101605 -0.0145769 -0.00451754
 endloop
endfacet
facet normal 0 0 0
 outer loop
 vertex 0.0115 -0.0154586 -0.008925
 vertex 0.0117865 -0.0163402 -0.008925
 vertex 0.0101605 -0.0163402 -0.00451754
 endloop
endfacet
facet normal 0 0 0
 outer loop
 vertex 0.0115 -0.0154586 -0.008925
 vertex 0.0101605 -0.0163402 -0.00451754
 vertex 0.00994264 -0.0154586 -0.00470359
 endloop
endfacet
facet normal 0 0 0
 outer loop
 vertex 0.0117865 -0.0163402 -0.008925
 vertex 0.0125365 -0.0168851 -0.008925
 vertex 0.0107308 -0.0168851 -0.00403045
 endloop
endfacet
facet normal 0 0 0
 outer loop
 vertex 0.0117865 -0.0163402 -0.008925
 vertex 0.0107308 -0.0168851 -0.00403045
 vertex 0.0101605 -0.0163402 -0.00451754
 endloop
endfacet
facet normal 0 0 0
 outer loop
 vertex 0.0125365 -0.0168851 -0.008925
 vertex 0.0134635 -0.0168851 -0.008925
 vertex 0.0114357 -0.0168851 -0.00342838
 endloop
endfacet
facet normal 0 0 0
 outer loop
 vertex 0.0125365 -0.0168851 -0.008925
 vertex 0.0114357 -0.0168851 -0.00342838
 vertex 0.0107308 -0.0168851 -0.00403045
 endloop
endfacet
facet normal 0 0 0
 outer loop
 vertex 0.0134635 -0.0168851 -0.008925
 vertex 0.0142135 -0.0163402 -0.008925
 vertex 0.012006 -0.0163402 -0.00294129
 endloop
endfacet
facet normal 0 0 0
 outer loop
 vertex 0.0134635 -0.0168851 -0.008925
 vertex 0.012006 -0.0163402 -0.00294129
 vertex 0.0114357 -0.0168851 -0.00342838
 endloop
endfacet
facet normal 0 0 0
 outer loop
 vertex 0.0142135 -0.0163402 -0.008925
 vertex 0.0145 -0.0154586 -0.008925
 vertex 0.0122239 -0.0154586 -0.00275524
 endloop
endfacet
facet normal 0 0 0
 outer loop
 vertex 0.0142135 -0.0163402 -0.008925
 vertex 0.0122239 -0.0154586 -0.00275524
 vertex 0.012006 -0.0163402 -0.00294129
 endloop
endfacet
facet normal 0 0 0
 outer loop
 vertex 0.0122239 -0.0154586 -0.00275524
 vertex 0.012006 -0.0145769 -0.00294129
 vertex 0.00644131 -0.0145769 0.000175094
 endloop
endfacet
facet normal 0 0 0
 outer loop
 vertex 0.0122239 -0.0154586 -0.00275524
 vertex 0.00644131 -0.0145769 0.000175094
 vertex 0.00648613 -0.0154586 0.000458042
 endloop
endfacet
facet normal 0 0 0
 outer loop
 vertex 0.012006 -0.0145769 -0.00294129
 vertex 0.0114357 -0.014032 -0.00342838
 vertex 0.00632399 -0.014032 -0.000565672
 endloop
endfacet
facet normal 0 0 0
 outer loop
 vertex 0.012006 -0.0145769 -0.00294129
 vertex 0.00632399 -0.014032 -0.000565672
 vertex 0.00644131 -0.0145769 0.000175094
 endloop
endfacet
facet normal 0 0 0
 outer loop
 vertex 0.0114357 -0.014032 -0.00342838
 vertex 0.0107308 -0.014032 -0.00403045
 vertex 0.00617896 -0.014032 -0.00148131
 endloop
endfacet
facet normal 0 0 0
 outer loop
 vertex 0.0114357 -0.014032 -0.00342838
 vertex 0.00617896 -0.014032 -0.00148131
 vertex 0.00632399 -0.014032 -0.000565672
 endloop
endfacet
facet normal 0 0 0
 outer loop
 vertex 0.0107308 -0.014032 -0.00403045
 vertex 0.0101605 -0.0145769 -0.00451754
 vertex 0.00606164 -0.0145769 -0.00222208
 endloop
endfacet
facet normal 0 0 0
 outer loop
 vertex 0.0107308 -0.014032 -0.00403045
 vertex 0.00606164 -0.0145769 -0.00222208
 vertex 0.00617896 -0.014032 -0.00148131
 endloop
endfacet
facet normal 0 0 0
 outer loop
 vertex 0.0101605 -0.0145769 -0.00451754
 vertex 0.00994264 -0.0154586 -0.00470359
 vertex 0.00601682 -0.0154586 -0.00250502
 endloop
endfacet
facet normal 0 0 0
 outer loop
 vertex 0.0101605 -0.0145769 -0.00451754
 vertex 0.00601682 -0.0154586 -0.00250502
 vertex 0.00606164 -0.0145769 -0.00222208
 endloop
endfacet
facet normal 0 0 0
 outer loop
 vertex 0.00994264 -0.0154586 -0.00470359
 vertex 0.0101605 -0.0163402 -0.00451754
 vertex 0.00606164 -0.0163402 -0.00222208
 endloop
endfacet
facet normal 0 0 0
 outer loop
 vertex 0.00994264 -0.0154586 -0.00470359
 vertex 0.00606164 -0.0163402 -0.00222208
 vertex 0.00601682 -0.0154586 -0.00250502
 endloop
endfacet
facet normal 0 0 0
 outer loop
 vertex 0.0101605 -0.0163402 -0.00451754
 vertex 0.0107308 -0.0168851 -0.00403045
 vertex 0.00617896 -0.0168851 -0.00148131
 endloop
endfacet
facet normal 0 0 0
 outer loop
 vertex 0.0101605 -0.0163402 -0.00451754
 vertex 0.00617896 -0.0168851 -0.00148131
 vertex 0.00606164 -0.0163402 -0.00222208
 endloop
endfacet
facet normal 0 0 0
 outer loop
 vertex 0.0107308 -0.0168851 -0.00403045
 vertex 0.0114357 -0.0168851 -0.00342838
 vertex 0.00632399 -0.0168851 -0.000565672
 endloop
endfacet
facet normal 0 0 0
 outer loop
 vertex 0.0107308 -0.0168851 -0.00403045
 vertex 0.00632399 -0.0168851 -0.000565672
 vertex 0.00617896 -0.0168851 -0.00148131
 endloop
endfacet
facet normal 0 0 0
 outer loop
 vertex 0.0114357 -0.0168851 -0.00342838
 vertex 0.012006 -0.0163402 -0.00294129
 vertex 0.00644131 -0.0163402 0.000175094
 endloop
endfacet
facet normal 0 0 0
 outer loop
 vertex 0.0114357 -0.0168851 -0.00342838
 vertex 0.00644131 -0.0163402 0.000175094
 vertex 0.00632399 -0.0168851 -0.000565672
 endloop
endfacet
facet normal 0 0 0
 outer loop
 vertex 0.012006 -0.0163402 -0.00294129
 vertex 0.0122239 -0.0154586 -0.00275524
 vertex 0.00648613 -0.0154586 0.000458042
 endloop
endfacet
facet normal 0 0 0
 outer loop
 vertex 0.012006 -0.0163402 -0.00294129
 vertex 0.00648613 -0.0154586 0.000458042
 vertex 0.00644131 -0.0163402 0.000175094
 endloop
endfacet
facet normal 0 0 0
 outer loop
 vertex 0.0564861 -0.0154586 -0.018308
 vertex 0.0564413 -0.0145769 -0.0180251
 vertex 0.062006 -0.0145769 -0.0149087
 endloop
endfacet
facet normal 0 0 0
 outer loop
 vertex 0.0564861 -0.0154586 -0.018308
 vertex 0.062006 -0.0145769 -0.0149087
 vertex 0.0622239 -0.0154586 -0.0150948
 endloop
endfacet
facet normal 0 0 0
 outer loop
 vertex 0.0564413 -0.0145769 -0.0180251
 vertex 0.056324 -0.014032 -0.0172843
 vertex 0.0614357 -0.014032 -0.0144216
 endloop
endfacet
facet normal 0 0 0
 outer loop
 vertex 0.0564413 -0.0145769 -0.0180251
 vertex 0.0614357 -0.014032 -0.0144216
 vertex 0.062006 -0.0145769 -0.0149087
 endloop
endfacet
facet normal 0 0 0
 outer loop
 vertex 0.056324 -0.014032 -0.0172843
 vertex 0.056179 -0.014032 -0.0163687
 vertex 0.0607308 -0.014032 -0.0138195
 endloop
endfacet
facet normal 0 0 0
 outer loop
 vertex 0.056324 -0.014032 -0.0172843
 vertex 0.0607308 -0.014032 -0.0138195
 vertex 0.0614357 -0.014032 -0.0144216
 endloop
endfacet
facet normal 0 0 0
 outer loop
 vertex 0.056179 -0.014032 -0.0163687
 vertex 0.0560616 -0.0145769 -0.0156279
 vertex 0.0601605 -0.0145769 -0.0133325
 endloop
endfacet
facet normal 0 0 0
 outer loop
 vertex 0.056179 -0.014032 -0.0163687
 vertex 0.0601605 -0.0145769 -0.0133325
 vertex 0.0607308 -0.014032 -0.0138195
 endloop
endfacet
facet normal 0 0 0
 outer loop
 vertex 0.0560616 -0.0145769 -0.0156279
 vertex 0.0560168 -0.0154586 -0.015345
 vertex 0.0599426 -0.0154586 -0.0131464
 endloop
endfacet
facet normal 0 0 0
 outer loop
 vertex 0.0560616 -0.0145769 -0.0156279
 vertex 0.0599426 -0.0154586 -0.0131464
 vertex 0.0601605 -0.0145769 -0.0133325
 endloop
endfacet
facet normal 0 0 0
 outer loop
 vertex 0.0560168 -0.0154586 -0.015345
 vertex 0.0560616 -0.0163402 -0.0156279
 vertex 0.0601605 -0.0163402 -0.0133325
 endloop
endfacet
facet normal 0 0 0
 outer loop
 vertex 0.0560168 -0.0154586 -0.015345
 vertex 0.0601605 -0.0163402 -0.0133325
 vertex 0.0599426 -0.0154586 -0.0131464
 endloop
endfacet
facet normal 0 0 0
 outer loop
 vertex 0.0560616 -0.0163402 -0.0156279
 vertex 0.056179 -0.0168851 -0.0163687
 vertex 0.0607308 -0.0168851 -0.0138195
 endloop
endfacet
facet normal 0 0 0
 outer loop
 vertex 0.0560616 -0.0163402 -0.0156279
 vertex 0.0607308 -0.0168851 -0.0138195
 vertex 0.0601605 -0.0163402 -0.0133325
 endloop
endfacet
facet normal 0 0 0
 outer loop
 vertex 0.056179 -0.0168851 -0.0163687
 vertex 0.056324 -0.0168851 -0.0172843
 vertex 0.0614357 -0.0168851 -0.0144216
 endloop
endfacet
facet normal 0 0 0
 outer loop
 vertex 0.056179 -0.0168851 -0.0163687
 vertex 0.0614357 -0.0168851 -0.0144216
 vertex 0.0607308 -0.0168851 -0.0138195
 endloop
endfacet
facet normal 0 0 0
 outer loop
 vertex 0.056324 -0.0168851 -0.0172843
 vertex 0.0564413 -0.0163402 -0.0180251
 vertex 0.062006 -0.0163402 -0.0149087
 endloop
endfacet
facet normal 0 0 0
 outer loop
 vertex 0.056324 -0.0168851 -0.0172843
 vertex 0.062006 -0.0163402 -0.0149087
 vertex 0.0614357 -0.0168851 -0.0144216
 endloop
endfacet
facet normal 0 0 0
 outer loop
 vertex 0.0564413 -0.0163402 -0.0180251
 vertex 0.0564861 -0.0154586 -0.018308
 vertex 0.0622239 -0.0154586 -0.0150948
 endloop
endfacet
facet normal 0 0 0
 outer loop
 vertex 0.0564413 -0.0163402 -0.0180251
 vertex 0.0622239 -0.0154586 -0.0150948
 vertex 0.062006 -0.0163402 -0.0149087
 endloop
endfacet
facet normal 0 0 0
 outer loop
 vertex 0.0622239 -0.0154586 -0.0150948
 vertex 0.062006 -0.0145769 -0.0149087
 vertex 0.0642135 -0.0145769 -0.008925
 endloop
endfacet
facet normal 0 0 0
 outer loop
 vertex 0.0622239 -0.0154586 -0.0150948
 vertex 0.0642135 -0.0145769 -0.008925
 vertex 0.0645 -0.0154586 -0.008925
 endloop
endfacet
facet normal 0 0 0
 outer loop
 vertex 0.062006 -0.0145769 -0.0149087
 vertex 0.0614357 -0.014032 -0.0144216
 vertex 0.0634635 -0.014032 -0.008925
 endloop
endfacet
facet normal 0 0 0
 outer loop
 vertex 0.062006 -0.0145769 -0.0149087
 vertex 0.0634635 -0.014032 -0.008925
 vertex 0.0642135 -0.0145769 -0.008925
 endloop
endfacet
facet normal 0 0 0
 outer loop
 vertex 0.0614357 -0.014032 -0.0144216
 vertex 0.0607308 -0.014032 -0.0138195
 vertex 0.0625365 -0.014032 -0.008925
 endloop
endfacet
facet normal 0 0 0
 outer loop
 vertex 0.0614357 -0.014032 -0.0144216
 vertex 0.0625365 -0.014032 -0.008925
 vertex 0.0634635 -0.014032 -0.008925
 endloop
endfacet
facet normal 0 0 0
 outer loop
 vertex 0.0607308 -0.014032 -0.0138195
 vertex 0.0601605 -0.0145769 -0.0133325
 vertex 0.0617865 -0.0145769 -0.008925
 endloop
endfacet
facet normal 0 0 0
 outer loop
 vertex 0.0607308 -0.014032 -0.0138195
 vertex 0.0617865 -0.0145769 -0.008925
 vertex 0.0625365 -0.014032 -0.008925
 endloop
endfacet
facet normal 0 0 0
 outer loop
 vertex 0.0601605 -0.0145769 -0.0133325
 vertex 0.0599426 -0.0154586 -0.0131464
 vertex 0.0615 -0.0154586 -0.008925
 endloop
endfacet
facet normal 0 0 0
 outer loop
 vertex 0.0601605 -0.0145769 -0.0133325
 vertex 0.0615 -0.0154586 -0.008925
 vertex 0.0617865 -0.0145769 -0.008925
 endloop
endfacet
facet normal 0 0 0
 outer loop
 vertex 0.0599426 -0.0154586 -0.0131464
 vertex 0.0601605 -0.0163402 -0.0133325
 vertex 0.0617865 -0.0163402 -0.008925
 endloop
endfacet
facet normal 0 0 0
 outer loop
 vertex 0.0599426 -0.0154586 -0.0131464
 vertex 0.0617865 -0.0163402 -0.008925
 vertex 0.0615 -0.0154586 -0.008925
 endloop
endfacet
facet normal 0 0 0
 outer loop
 vertex 0.0601605 -0.0163402 -0.0133325
 vertex 0.0607308 -0.0168851 -0.0138195
 vertex 0.0625365 -0.0168851 -0.008925
 endloop
endfacet
facet normal 0 0 0
 outer loop
 vertex 0.0601605 -0.0163402 -0.0133325
 vertex 0.0625365 -0.0168851 -0.008925
 vertex 0.0617865 -0.0163402 -0.008925
 endloop
endfacet
facet normal 0 0 0
 outer loop
 vertex 0.0607308 -0.0168851 -0.0138195
 vertex 0.0614357 -0.0168851 -0.0144216
 vertex 0.0634635 -0.0168851 -0.008925
 endloop
endfacet
facet normal 0 0 0
 outer loop
 vertex 0.0607308 -0.0168851 -0.0138195
 vertex 0.0634635 -0.0168851 -0.008925
 vertex 0.0625365 -0.0168851 -0.008925
 endloop
endfacet
facet normal 0 0 0
 outer loop
 vertex 0.0614357 -0.0168851 -0.0144216
 vertex 0.062006 -0.0163402 -0.0149087
 vertex 0.0642135 -0.0163402 -0.008925
 endloop
endfacet
facet normal 0 0 0
 outer loop
 vertex 0.0614357 -0.0168851 -0.0144216
 vertex 0.0642135 -0.0163402 -0.008925
 vertex 0.0634635 -0.0168851 -0.008925
 endloop
endfacet
facet normal 0 0 0
 outer loop
 vertex 0.062006 -0.0163402 -0.0149087
 vertex 0.0622239 -0.0154586 -0.0150948
 vertex 0.0645 -0.0154586 -0.008925
 endloop
endfacet
facet normal 0 0 0
 outer loop
 vertex 0.062006 -0.0163402 -0.0149087
 vertex 0.0645 -0.0154586 -0.008925
 vertex 0.0642135 -0.0163402 -0.008925
 endloop
endfacet
facet normal 0 0 0
 outer loop
 vertex 0.0645 -0.0154586 -0.008925
 vertex 0.0642135 -0.0145769 -0.008925
 vertex 0.062006 -0.0145769 -0.00294129
 endloop
endfacet
facet normal 0 0 0
 outer loop
 vertex 0.0645 -0.0154586 -0.008925
 vertex 0.062006 -0.0145769 -0.00294129
 vertex 0.0622239 -0.0154586 -0.00275524
 endloop
endfacet
facet normal 0 0 0
 outer loop
 vertex 0.0642135 -0.0145769 -0.008925
 vertex 0.0634635 -0.014032 -0.008925
 vertex 0.0614357 -0.014032 -0.00342838
 endloop
endfacet
facet normal 0 0 0
 outer loop
 vertex 0.0642135 -0.0145769 -0.008925
 vertex 0.0614357 -0.014032 -0.00342838
 vertex 0.062006 -0.0145769 -0.00294129
 endloop
endfacet
facet normal 0 0 0
 outer loop
 vertex 0.0634635 -0.014032 -0.008925
 vertex 0.0625365 -0.014032 -0.008925
 vertex 0.0607308 -0.014032 -0.00403045
 endloop
endfacet
facet normal 0 0 0
 outer loop
 vertex 0.0634635 -0.014032 -0.008925
 vertex 0.0607308 -0.014032 -0.00403045
 vertex 0.0614357 -0.014032 -0.00342838
 endloop
endfacet
facet normal 0 0 0
 outer loop
 vertex 0.0625365 -0.014032 -0.008925
 vertex 0.0617865 -0.0145769 -0.008925
 vertex 0.0601605 -0.0145769 -0.00451754
 endloop
endfacet
facet normal 0 0 0
 outer loop
 vertex 0.0625365 -0.014032 -0.008925
 vertex 0.0601605 -0.0145769 -0.00451754
 vertex 0.0607308 -0.014032 -0.00403045
 endloop
endfacet
facet normal 0 0 0
 outer loop
 vertex 0.0617865 -0.0145769 -0.008925
 vertex 0.0615 -0.0154586 -0.008925
 vertex 0.0599426 -0.0154586 -0.00470359
 endloop
endfacet
facet normal 0 0 0
 outer loop
 vertex 0.0617865 -0.0145769 -0.008925
 vertex 0.0599426 -0.0154586 -0.00470359
 vertex 0.0601605 -0.0145769 -0.00451754
 endloop
endfacet
facet normal 0 0 0
 outer loop
 vertex 0.0615 -0.0154586 -0.008925
 vertex 0.0617865 -0.0163402 -0.008925
 vertex 0.0601605 -0.0163402 -0.00451754
 endloop
endfacet
facet normal 0 0 0
 outer loop
 vertex 0.0615 -0.0154586 -0.008925
 vertex 0.0601605 -0.0163402 -0.00451754
 vertex 0.0599426 -0.0154586 -0.00470359
 endloop
endfacet
facet normal 0 0 0
 outer loop
 vertex 0.0617865 -0.0163402 -0.008925
 vertex 0.0625365 -0.0168851 -0.008925
 vertex 0.0607308 -0.0168851 -0.00403045
 endloop
endfacet
facet normal 0 0 0
 outer loop
 vertex 0.0617865 -0.0163402 -0.008925
 vertex 0.0607308 -0.0168851 -0.00403045
 vertex 0.0601605 -0.0163402 -0.00451754
 endloop
endfacet
facet normal 0 0 0
 outer loop
 vertex 0.0625365 -0.0168851 -0.008925
 vertex 0.0634635 -0.0168851 -0.008925
 vertex 0.0614357 -0.0168851 -0.00342838
 endloop
endfacet
facet normal 0 0 0
 outer loop
 vertex 0.0625365 -0.0168851 -0.008925
 vertex 0.0614357 -0.0168851 -0.00342838
 vertex 0.0607308 -0.0168851 -0.00403045
 endloop
endfacet
facet normal 0 0 0
 outer loop
 vertex 0.0634635 -0.0168851 -0.008925
 vertex 0.0642135 -0.0163402 -0.008925
 vertex 0.062006 -0.0163402 -0.00294129
 endloop
endfacet
facet normal 0 0 0
 outer loop
 vertex 0.0634635 -0.0168851 -0.008925
 vertex 0.062006 -0.0163402 -0.00294129
 vertex 0.0614357 -0.0168851 -0.00342838
 endloop
endfacet
facet normal 0 0 0
 outer loop
 vertex 0.0642135 -0.0163402 -0.008925
 vertex 0.0645 -0.0154586 -0.008925
 vertex 0.0622239 -0.0154586 -0.00275524
 endloop
endfacet
facet normal 0 0 0
 outer loop
 vertex 0.0642135 -0.0163402 -0.008925
 vertex 0.0622239 -0.0154586 -0.00275524
 vertex 0.062006 -0.0163402 -0.00294129
 endloop
endfacet
facet normal 0 0 0
 outer loop
 vertex 0.0622239 -0.0154586 -0.00275524
 vertex 0.062006 -0.0145769 -0.00294129
 vertex 0.0564413 -0.0145769 0.000175094
 endloop
endfacet
facet normal 0 0 0
 outer loop
 vertex 0.0622239 -0.0154586 -0.00275524
 vertex 0.0564413 -0.0145769 0.000175094
 vertex 0.0564861 -0.0154586 0.000458042
 endloop
endfacet
facet normal 0 0 0
 outer loop
 vertex 0.062006 -0.0145769 -0.00294129
 vertex 0.0614357 -0.014032 -0.00342838
 vertex 0.056324 -0.014032 -0.000565672
 endloop
endfacet
facet normal 0 0 0
 outer loop
 vertex 0.062006 -0.0145769 -0.00294129
 vertex 0.056324 -0.014032 -0.000565672
 vertex 0.0564413 -0.0145769 0.000175094
 endloop
endfacet
facet normal 0 0 0
 outer loop
 vertex 0.0614357 -0.014032 -0.00342838
 vertex 0.0607308 -0.014032 -0.00403045
 vertex 0.056179 -0.014032 -0.00148131
 endloop
endfacet
facet normal 0 0 0
 outer loop
 vertex 0.0614357 -0.014032 -0.00342838
 vertex 0.056179 -0.014032 -0.00148131
 vertex 0.056324 -0.014032 -0.000565672
 endloop
endfacet
facet normal 0 0 0
 outer loop
 vertex 0.0607308 -0.014032 -0.00403045
 vertex 0.0601605 -0.0145769 -0.00451754
 vertex 0.0560616 -0.0145769 -0.00222208
 endloop
endfacet
facet normal 0 0 0
 outer loop
 vertex 0.0607308 -0.014032 -0.00403045
 vertex 0.0560616 -0.0145769 -0.00222208
 vertex 0.056179 -0.014032 -0.00148131
 endloop
endfacet
facet normal 0 0 0
 outer loop
 vertex 0.0601605 -0.0145769 -0.00451754
 vertex 0.0599426 -0.0154586 -0.00470359
 vertex 0.0560168 -0.0154586 -0.00250502
 endloop
endfacet
facet normal 0 0 0
 outer loop
 vertex 0.0601605 -0.0145769 -0.00451754
 vertex 0.0560168 -0.0154586 -0.00250502
 vertex 0.0560616 -0.0145769 -0.00222208
 endloop
endfacet
facet normal 0 0 0
 outer loop
 vertex 0.0599426 -0.0154586 -0.00470359
 vertex 0.0601605 -0.0163402 -0.00451754
 vertex 0.0560616 -0.0163402 -0.00222208
 endloop
endfacet
facet normal 0 0 0
 outer loop
 vertex 0.0599426 -0.0154586 -0.00470359
 vertex 0.0560616 -0.0163402 -0.00222208
 vertex 0.0560168 -0.0154586 -0.00250502
 endloop
endfacet
facet normal 0 0 0
 outer loop
 vertex 0.0601605 -0.0163402 -0.00451754
 vertex 0.0607308 -0.0168851 -0.00403045
 vertex 0.056179 -0.0168851 -0.00148131
 endloop
endfacet
facet normal 0 0 0
 outer loop
 vertex 0.0601605 -0.0163402 -0.00451754
 vertex 0.056179 -0.0168851 -0.00148131
 vertex 0.0560616 -0.0163402 -0.00222208
 endloop
endfacet
facet normal 0 0 0
 outer loop
 vertex 0.0607308 -0.0168851 -0.00403045
 vertex 0.0614357 -0.0168851 -0.00342838
 vertex 0.056324 -0.0168851 -0.000565672
 endloop
endfacet
facet normal 0 0 0
 outer loop
 vertex 0.0607308 -0.0168851 -0.00403045
 vertex 0.056324 -0.0168851 -0.000565672
 vertex 0.056179 -0.0168851 -0.00148131
 endloop
endfacet
facet normal 0 0 0
 outer loop
 vertex 0.0614357 -0.0168851 -0.00342838
 vertex 0.062006 -0.0163402 -0.00294129
 vertex 0.0564413 -0.0163402 0.000175094
 endloop
endfacet
facet normal 0 0 0
 outer loop
 vertex 0.0614357 -0.0168851 -0.00342838
 vertex 0.0564413 -0.0163402 0.000175094
 vertex 0.056324 -0.0168851 -0.000565672
 endloop
endfacet
facet normal 0 0 0
 outer loop
 vertex 0.062006 -0.0163402 -0.00294129
 vertex 0.0622239 -0.0154586 -0.00275524
 vertex 0.0564861 -0.0154586 0.000458042
 endloop
endfacet
facet normal 0 0 0
 outer loop
 vertex 0.062006 -0.0163402 -0.00294129
 vertex 0.0564861 -0.0154586 0.000458042
 vertex 0.0564413 -0.0163402 0.000175094
 endloop
endfacet
facet normal 0 0 0
 outer loop
 vertex -0.015 0.03 -0.035
 vertex 0.075 0.03 -0.035
 vertex 0.075 0.055 -0.035
 endloop
endfacet
facet normal 0 0 0
 outer loop
 vertex -0.015 0.03 -0.035
 vertex 0.075 0.055 -0.035
 vertex -0.015 0.055 -0.035
 endloop
endfacet
facet normal 0 0 0
 outer loop
 vertex -0.015 0.03 0.035
 vertex 0.075 0.055 0.035
 vertex 0.075 0.03 0.035
 endloop
endfacet
facet normal 0 0 0
 outer loop
 vertex -0.015 0.03 0.035
 vertex -0.015 0.055 0.035
 vertex 0.075 0.055 0.035
 endloop
endfacet
facet normal 0 0 0
 outer loop
 vertex -0.015 0.03 -0.035
 vertex -0.015 0.055 -0.035
 vertex -0.015 0.055 0.035
 endloop
endfacet
facet normal 0 0 0
 outer loop
 vertex -0.015 0.03 -0.035
 vertex -0.015 0.055 0.035
 vertex -0.015 0.03 0.035
 endloop
endfacet
facet normal 0 0 0
 outer loop
 vertex 0.075 0.03 -0.035
 vertex 0.075 0.03 0.035
 vertex 0.075 0.055 0.035
 endloop
endfacet
facet normal 0 0 0
 outer loop
 vertex 0.075 0.03 -0.035
 vertex 0.075 0.055 0.035
 vertex 0.075 0.055 -0.035
 endloop
endfacet
facet normal 0 0 0
 outer loop
 vertex -0.015 0.03 -0.035
 vertex -0.015 0.03 0.035
 vertex 0.075 0.03 0.035
 endloop
endfacet
facet normal 0 0 0
 outer loop
 vertex -0.015 0.03 -0.035
 vertex 0.075 0.03 0.035
 vertex 0.075 0.03 -0.035
 endloop
endfacet
facet normal 0 0 0
 outer loop
 vertex -0.015 0.055 -0.035
 vertex 0.075 0.055 -0.035
 vertex 0.075 0.055 0.035
 endloop
endfacet
facet normal 0 0 0
 outer loop
 vertex -0.015 0.055 -0.035
 vertex 0.075 0.055 0.035
 vertex -0.015 0.055 0.035
 endloop
endfacet
facet normal 0 0 0
 outer loop
 vertex -0.2 0.04 -0.01
 vertex -0.185 0.04 -0.01
 vertex -0.185 0.055 -0.01
 endloop
endfacet
facet normal 0 0 0
 outer loop
 vertex -0.2 0.04 -0.01
 vertex -0.185 0.055 -0.01
 vertex -0.2 0.055 -0.01
 endloop
endfacet
facet normal 0 0 0
 outer loop
 vertex -0.2 0.04 0.01
 vertex -0.185 0.055 0.01
 vertex -0.185 0.04 0.01
 endloop
endfacet
facet normal 0 0 0
 outer loop
 vertex -0.2 0.04 0.01
 vertex -0.2 0.055 0.01
 vertex -0.185 0.055 0.01
 endloop
endfacet
facet normal 0 0 0
 outer loop
 vertex -0.2 0.04 -0.01
 vertex -0.2 0.055 -0.01
 vertex -0.2 0.055 0.01
 endloop
endfacet
facet normal 0 0 0
 outer loop
 vertex -0.2 0.04 -0.01
 vertex -0.2 0.055 0.01
 vertex -0.2 0.04 0.01
 endloop
endfacet
facet normal 0 0 0
 outer loop
 vertex -0.185 0.04 -0.01
 vertex -0.185 0.04 0.01
 vertex -0.185 0.055 0.01
 endloop
endfacet
facet normal 0 0 0
 outer loop
 vertex -0.185 0.04 -0.01
 vertex -0.185 0.055 0.01
 vertex -0.185 0.055 -0.01
 endloop
endfacet
facet normal 0 0 0
 outer loop
 vertex -0.2 0.04 -0.01
 vertex -0.2 0.04 0.01
 vertex -0.185 0.04 0.01
 endloop
endfacet
facet normal 0 0 0
 outer loop
 vertex -0.2 0.04 -0.01
 vertex -0.185 0.04 0.01
 vertex -0.185 0.04 -0.01
 endloop
endfacet
facet normal 0 0 0
 outer loop
 vertex -0.2 0.055 -0.01
 vertex -0.185 0.055 -0.01
 vertex -0.185 0.055 0.01
 endloop
endfacet
facet normal 0 0 0
 outer loop
 vertex -0.2 0.055 -0.01
 vertex -0.185 0.055 0.01
 vertex -0.2 0.055 0.01
 endloop
endfacet
endsolid damper
