solid bandage
facet normal 0 0 0
 outer loop
 vertex -0.1 0 0.018
 vertex -0.1 0.00234947 0.017846
 vertex 0.2 0.00234947 0.017846
 endloop
endfacet
facet normal 0 0 0
 outer loop
 vertex -0.1 0 0.018
 vertex 0.2 0.00234947 0.017846
 vertex 0.2 0 0.018
 endloop
endfacet
facet normal 0 0 0
 outer loop
 vertex 0.2 0 0.0175
 vertex 0.2 0.00228421 0.0173503
 vertex -0.1 0.00228421 0.0173503
 endloop
endfacet
facet normal 0 0 0
 outer loop
 vertex 0.2 0 0.0175
 vertex -0.1 0.00228421 0.0173503
 vertex -0.1 0 0.0175
 endloop
endfacet
facet normal 0 0 0
 outer loop
 vertex -0.1 0.00234947 0.017846
 vertex -0.1 0.00465874 0.0173867
 vertex 0.2 0.00465874 0.0173867
 endloop
endfacet
facet normal 0 0 0
 outer loop
 vertex -0.1 0.00234947 0.017846
 vertex 0.2 0.00465874 0.0173867
 vertex 0.2 0.00234947 0.017846
 endloop
endfacet
facet normal 0 0 0
 outer loop
 vertex 0.2 0.00228421 0.0173503
 vertex 0.2 0.00452933 0.0169037
 vertex -0.1 0.00452933 0.0169037
 endloop
endfacet
facet normal 0 0 0
 outer loop
 vertex 0.2 0.00228421 0.0173503
 vertex -0.1 0.00452933 0.0169037
 vertex -0.1 0.00228421 0.0173503
 endloop
endfacet
facet normal 0 0 0
 outer loop
 vertex -0.1 0.00465874 0.0173867
 vertex -0.1 0.0068883 0.0166298
 vertex 0.2 0.0068883 0.0166298
 endloop
endfacet
facet normal 0 0 0
 outer loop
 vertex -0.1 0.00465874 0.0173867
 vertex 0.2 0.0068883 0.0166298
 vertex 0.2 0.00465874 0.0173867
 endloop
endfacet
facet normal 0 0 0
 outer loop
 vertex 0.2 0.00452933 0.0169037
 vertex 0.2 0.00669696 0.0161679
 vertex -0.1 0.00669696 0.0161679
 endloop
endfacet
facet normal 0 0 0
 outer loop
 vertex 0.2 0.00452933 0.0169037
 vertex -0.1 0.00669696 0.0161679
 vertex -0.1 0.00452933 0.0169037
 endloop
endfacet
facet normal 0 0 0
 outer loop
 vertex -0.1 0.0068883 0.0166298
 vertex -0.1 0.009 0.0155885
 vertex 0.2 0.009 0.0155885
 endloop
endfacet
facet normal 0 0 0
 outer loop
 vertex -0.1 0.0068883 0.0166298
 vertex 0.2 0.009 0.0155885
 vertex 0.2 0.0068883 0.0166298
 endloop
endfacet
facet normal 0 0 0
 outer loop
 vertex 0.2 0.00669696 0.0161679
 vertex 0.2 0.00875 0.0151554
 vertex -0.1 0.00875 0.0151554
 endloop
endfacet
facet normal 0 0 0
 outer loop
 vertex 0.2 0.00669696 0.0161679
 vertex -0.1 0.00875 0.0151554
 vertex -0.1 0.00669696 0.0161679
 endloop
endfacet
facet normal 0 0 0
 outer loop
 vertex -0.1 0.009 0.0155885
 vertex -0.1 0.0109577 0.0142804
 vertex 0.2 0.0109577 0.0142804
 endloop
endfacet
facet normal 0 0 0
 outer loop
 vertex -0.1 0.009 0.0155885
 vertex 0.2 0.0109577 0.0142804
 vertex 0.2 0.009 0.0155885
 endloop
endfacet
facet normal 0 0 0
 outer loop
 vertex 0.2 0.00875 0.0151554
 vertex 0.2 0.0106533 0.0138837
 vertex -0.1 0.0106533 0.0138837
 endloop
endfacet
facet normal 0 0 0
 outer loop
 vertex 0.2 0.00875 0.0151554
 vertex -0.1 0.0106533 0.0138837
 vertex -0.1 0.00875 0.0151554
 endloop
endfacet
facet normal 0 0 0
 outer loop
 vertex -0.1 0.0109577 0.0142804
 vertex -0.1 0.0127279 0.0127279
 vertex 0.2 0.0127279 0.0127279
 endloop
endfacet
facet normal 0 0 0
 outer loop
 vertex -0.1 0.0109577 0.0142804
 vertex 0.2 0.0127279 0.0127279
 vertex 0.2 0.0109577 0.0142804
 endloop
endfacet
facet normal 0 0 0
 outer loop
 vertex 0.2 0.0106533 0.0138837
 vertex 0.2 0.0123744 0.0123744
 vertex -0.1 0.0123744 0.0123744
 endloop
endfacet
facet normal 0 0 0
 outer loop
 vertex 0.2 0.0106533 0.0138837
 vertex -0.1 0.0123744 0.0123744
 vertex -0.1 0.0106533 0.0138837
 endloop
endfacet
facet normal 0 0 0
 outer loop
 vertex -0.1 0.0127279 0.0127279
 vertex -0.1 0.0142804 0.0109577
 vertex 0.2 0.0142804 0.0109577
 endloop
endfacet
facet normal 0 0 0
 outer loop
 vertex -0.1 0.0127279 0.0127279
 vertex 0.2 0.0142804 0.0109577
 vertex 0.2 0.0127279 0.0127279
 endloop
endfacet
facet normal 0 0 0
 outer loop
 vertex 0.2 0.0123744 0.0123744
 vertex 0.2 0.0138837 0.0106533
 vertex -0.1 0.0138837 0.0106533
 endloop
endfacet
facet normal 0 0 0
 outer loop
 vertex 0.2 0.0123744 0.0123744
 vertex -0.1 0.0138837 0.0106533
 vertex -0.1 0.0123744 0.0123744
 endloop
endfacet
facet normal 0 0 0
 outer loop
 vertex -0.1 0.0142804 0.0109577
 vertex -0.1 0.0155885 0.009
 vertex 0.2 0.0155885 0.009
 endloop
endfacet
facet normal 0 0 0
 outer loop
 vertex -0.1 0.0142804 0.0109577
 vertex 0.2 0.0155885 0.009
 vertex 0.2 0.0142804 0.0109577
 endloop
endfacet
facet normal 0 0 0
 outer loop
 vertex 0.2 0.0138837 0.0106533
 vertex 0.2 0.0151554 0.00875
 vertex -0.1 0.0151554 0.00875
 endloop
endfacet
facet normal 0 0 0
 outer loop
 vertex 0.2 0.0138837 0.0106533
 vertex -0.1 0.0151554 0.00875
 vertex -0.1 0.0138837 0.0106533
 endloop
endfacet
facet normal 0 0 0
 outer loop
 vertex -0.1 0.0155885 0.009
 vertex -0.1 0.0166298 0.0068883
 vertex 0.2 0.0166298 0.0068883
 endloop
endfacet
facet normal 0 0 0
 outer loop
 vertex -0.1 0.0155885 0.009
 vertex 0.2 0.0166298 0.0068883
 vertex 0.2 0.0155885 0.009
 endloop
endfacet
facet normal 0 0 0
 outer loop
 vertex 0.2 0.0151554 0.00875
 vertex 0.2 0.0161679 0.00669696
 vertex -0.1 0.0161679 0.00669696
 endloop
endfacet
facet normal 0 0 0
 outer loop
 vertex 0.2 0.0151554 0.00875
 vertex -0.1 0.0161679 0.00669696
 vertex -0.1 0.0151554 0.00875
 endloop
endfacet
facet normal 0 0 0
 outer loop
 vertex -0.1 0.0166298 0.0068883
 vertex -0.1 0.0173867 0.00465874
 vertex 0.2 0.0173867 0.00465874
 endloop
endfacet
facet normal 0 0 0
 outer loop
 vertex -0.1 0.0166298 0.0068883
 vertex 0.2 0.0173867 0.00465874
 vertex 0.2 0.0166298 0.0068883
 endloop
endfacet
facet normal 0 0 0
 outer loop
 vertex 0.2 0.0161679 0.00669696
 vertex 0.2 0.0169037 0.00452933
 vertex -0.1 0.0169037 0.00452933
 endloop
endfacet
facet normal 0 0 0
 outer loop
 vertex 0.2 0.0161679 0.00669696
 vertex -0.1 0.0169037 0.00452933
 vertex -0.1 0.0161679 0.00669696
 endloop
endfacet
facet normal 0 0 0
 outer loop
 vertex -0.1 0.0173867 0.00465874
 vertex -0.1 0.017846 0.00234947
 vertex 0.2 0.017846 0.00234947
 endloop
endfacet
facet normal 0 0 0
 outer loop
 vertex -0.1 0.0173867 0.00465874
 vertex 0.2 0.017846 0.00234947
 vertex 0.2 0.0173867 0.00465874
 endloop
endfacet
facet normal 0 0 0
 outer loop
 vertex 0.2 0.0169037 0.00452933
 vertex 0.2 0.0173503 0.00228421
 vertex -0.1 0.0173503 0.00228421
 endloop
endfacet
facet normal 0 0 0
 outer loop
 vertex 0.2 0.0169037 0.00452933
 vertex -0.1 0.0173503 0.00228421
 vertex -0.1 0.0169037 0.00452933
 endloop
endfacet
facet normal 0 0 0
 outer loop
 vertex -0.1 0.017846 0.00234947
 vertex -0.1 0.018 -7.86805e-10
 vertex 0.2 0.018 -7.86805e-10
 endloop
endfacet
facet normal 0 0 0
 outer loop
 vertex -0.1 0.017846 0.00234947
 vertex 0.2 0.018 -7.86805e-10
 vertex 0.2 0.017846 0.00234947
 endloop
endfacet
facet normal 0 0 0
 outer loop
 vertex 0.2 0.0173503 0.00228421
 vertex 0.2 0.0175 -7.64949e-10
 vertex -0.1 0.0175 -7.64949e-10
 endloop
endfacet
facet normal 0 0 0
 outer loop
 vertex 0.2 0.0173503 0.00228421
 vertex -0.1 0.0175 -7.64949e-10
 vertex -0.1 0.0173503 0.00228421
 endloop
endfacet
facet normal 0 0 0
 outer loop
 vertex -0.1 0.018 -7.86805e-10
 vertex -0.1 0.017846 -0.00234947
 vertex 0.2 0.017846 -0.00234947
 endloop
endfacet
facet normal 0 0 0
 outer loop
 vertex -0.1 0.018 -7.86805e-10
 vertex 0.2 0.017846 -0.00234947
 vertex 0.2 0.018 -7.86805e-10
 endloop
endfacet
facet normal 0 0 0
 outer loop
 vertex 0.2 0.0175 -7.64949e-10
 vertex 0.2 0.0173503 -0.00228421
 vertex -0.1 0.0173503 -0.00228421
 endloop
endfacet
facet normal 0 0 0
 outer loop
 vertex 0.2 0.0175 -7.64949e-10
 vertex -0.1 0.0173503 -0.00228421
 vertex -0.1 0.0175 -7.64949e-10
 endloop
endfacet
facet normal 0 0 0
 outer loop
 vertex -0.1 0.017846 -0.00234947
 vertex -0.1 0.0173867 -0.00465874
 vertex 0.2 0.0173867 -0.00465874
 endloop
endfacet
facet normal 0 0 0
 outer loop
 vertex -0.1 0.017846 -0.00234947
 vertex 0.2 0.0173867 -0.00465874
 vertex 0.2 0.017846 -0.00234947
 endloop
endfacet
facet normal 0 0 0
 outer loop
 vertex 0.2 0.0173503 -0.00228421
 vertex 0.2 0.0169037 -0.00452933
 vertex -0.1 0.0169037 -0.00452933
 endloop
endfacet
facet normal 0 0 0
 outer loop
 vertex 0.2 0.0173503 -0.00228421
 vertex -0.1 0.0169037 -0.00452933
 vertex -0.1 0.0173503 -0.00228421
 endloop
endfacet
facet normal 0 0 0
 outer loop
 vertex -0.1 0.0173867 -0.00465874
 vertex -0.1 0.0166298 -0.0068883
 vertex 0.2 0.0166298 -0.0068883
 endloop
endfacet
facet normal 0 0 0
 outer loop
 vertex -0.1 0.0173867 -0.00465874
 vertex 0.2 0.0166298 -0.0068883
 vertex 0.2 0.0173867 -0.00465874
 endloop
endfacet
facet normal 0 0 0
 outer loop
 vertex 0.2 0.0169037 -0.00452933
 vertex 0.2 0.0161679 -0.00669696
 vertex -0.1 0.0161679 -0.00669696
 endloop
endfacet
facet normal 0 0 0
 outer loop
 vertex 0.2 0.0169037 -0.00452933
 vertex -0.1 0.0161679 -0.00669696
 vertex -0.1 0.0169037 -0.00452933
 endloop
endfacet
facet normal 0 0 0
 outer loop
 vertex -0.1 0.0166298 -0.0068883
 vertex -0.1 0.0155885 -0.009
 vertex 0.2 0.0155885 -0.009
 endloop
endfacet
facet normal 0 0 0
 outer loop
 vertex -0.1 0.0166298 -0.0068883
 vertex 0.2 0.0155885 -0.009
 vertex 0.2 0.0166298 -0.0068883
 endloop
endfacet
facet normal 0 0 0
 outer loop
 vertex 0.2 0.0161679 -0.00669696
 vertex 0.2 0.0151554 -0.00875
 vertex -0.1 0.0151554 -0.00875
 endloop
endfacet
facet normal 0 0 0
 outer loop
 vertex 0.2 0.0161679 -0.00669696
 vertex -0.1 0.0151554 -0.00875
 vertex -0.1 0.0161679 -0.00669696
 endloop
endfacet
facet normal 0 0 0
 outer loop
 vertex -0.1 0.0155885 -0.009
 vertex -0.1 0.0142804 -0.0109577
 vertex 0.2 0.0142804 -0.0109577
 endloop
endfacet
facet normal 0 0 0
 outer loop
 vertex -0.1 0.0155885 -0.009
 vertex 0.2 0.0142804 -0.0109577
 vertex 0.2 0.0155885 -0.009
 endloop
endfacet
facet normal 0 0 0
 outer loop
 vertex 0.2 0.0151554 -0.00875
 vertex 0.2 0.0138837 -0.0106533
 vertex -0.1 0.0138837 -0.0106533
 endloop
endfacet
facet normal 0 0 0
 outer loop
 vertex 0.2 0.0151554 -0.00875
 vertex -0.1 0.0138837 -0.0106533
 vertex -0.1 0.0151554 -0.00875
 endloop
endfacet
facet normal 0 0 0
 outer loop
 vertex -0.1 0.0142804 -0.0109577
 vertex -0.1 0.0127279 -0.0127279
 vertex 0.2 0.0127279 -0.0127279
 endloop
endfacet
facet normal 0 0 0
 outer loop
 vertex -0.1 0.0142804 -0.0109577
 vertex 0.2 0.0127279 -0.0127279
 vertex 0.2 0.0142804 -0.0109577
 endloop
endfacet
facet normal 0 0 0
 outer loop
 vertex 0.2 0.0138837 -0.0106533
 vertex 0.2 0.0123744 -0.0123744
 vertex -0.1 0.0123744 -0.0123744
 endloop
endfacet
facet normal 0 0 0
 outer loop
 vertex 0.2 0.0138837 -0.0106533
 vertex -0.1 0.0123744 -0.0123744
 vertex -0.1 0.0138837 -0.0106533
 endloop
endfacet
facet normal 0 0 0
 outer loop
 vertex -0.1 0.0127279 -0.0127279
 vertex -0.1 0.0109577 -0.0142804
 vertex 0.2 0.0109577 -0.0142804
 endloop
endfacet
facet normal 0 0 0
 outer loop
 vertex -0.1 0.0127279 -0.0127279
 vertex 0.2 0.0109577 -0.0142804
 vertex 0.2 0.0127279 -0.0127279
 endloop
endfacet
facet normal 0 0 0
 outer loop
 vertex 0.2 0.0123744 -0.0123744
 vertex 0.2 0.0106533 -0.0138837
 vertex -0.1 0.0106533 -0.0138837
 endloop
endfacet
facet normal 0 0 0
 outer loop
 vertex 0.2 0.0123744 -0.0123744
 vertex -0.1 0.0106533 -0.0138837
 vertex -0.1 0.0123744 -0.0123744
 endloop
endfacet
facet normal 0 0 0
 outer loop
 vertex -0.1 0.0109577 -0.0142804
 vertex -0.1 0.009 -0.0155885
 vertex 0.2 0.009 -0.0155885
 endloop
endfacet
facet normal 0 0 0
 outer loop
 vertex -0.1 0.0109577 -0.0142804
 vertex 0.2 0.009 -0.0155885
 vertex 0.2 0.0109577 -0.0142804
 endloop
endfacet
facet normal 0 0 0
 outer loop
 vertex 0.2 0.0106533 -0.0138837
 vertex 0.2 0.00875 -0.0151554
 vertex -0.1 0.00875 -0.0151554
 endloop
endfacet
facet normal 0 0 0
 outer loop
 vertex 0.2 0.0106533 -0.0138837
 vertex -0.1 0.00875 -0.0151554
 vertex -0.1 0.0106533 -0.0138837
 endloop
endfacet
facet normal 0 0 0
 outer loop
 vertex -0.1 0.009 -0.0155885
 vertex -0.1 0.0068883 -0.0166298
 vertex 0.2 0.0068883 -0.0166298
 endloop
endfacet
facet normal 0 0 0
 outer loop
 vertex -0.1 0.009 -0.0155885
 vertex 0.2 0.0068883 -0.0166298
 vertex 0.2 0.009 -0.0155885
 endloop
endfacet
facet normal 0 0 0
 outer loop
 vertex 0.2 0.00875 -0.0151554
 vertex 0.2 0.00669696 -0.0161679
 vertex -0.1 0.00669696 -0.0161679
 endloop
endfacet
facet normal 0 0 0
 outer loop
 vertex 0.2 0.00875 -0.0151554
 vertex -0.1 0.00669696 -0.0161679
 vertex -0.1 0.00875 -0.0151554
 endloop
endfacet
facet normal 0 0 0
 outer loop
 vertex -0.1 0.0068883 -0.0166298
 vertex -0.1 0.00465874 -0.0173867
 vertex 0.2 0.00465874 -0.0173867
 endloop
endfacet
facet normal 0 0 0
 outer loop
 vertex -0.1 0.0068883 -0.0166298
 vertex 0.2 0.00465874 -0.0173867
 vertex 0.2 0.0068883 -0.0166298
 endloop
endfacet
facet normal 0 0 0
 outer loop
 vertex 0.2 0.00669696 -0.0161679
 vertex 0.2 0.00452934 -0.0169037
 vertex -0.1 0.00452934 -0.0169037
 endloop
endfacet
facet normal 0 0 0
 outer loop
 vertex 0.2 0.00669696 -0.0161679
 vertex -0.1 0.00452934 -0.0169037
 vertex -0.1 0.00669696 -0.0161679
 endloop
endfacet
facet normal 0 0 0
 outer loop
 vertex -0.1 0.00465874 -0.0173867
 vertex -0.1 0.00234947 -0.017846
 vertex 0.2 0.00234947 -0.017846
 endloop
endfacet
facet normal 0 0 0
 outer loop
 vertex -0.1 0.00465874 -0.0173867
 vertex 0.2 0.00234947 -0.017846
 vertex 0.2 0.00465874 -0.0173867
 endloop
endfacet
facet normal 0 0 0
 outer loop
 vertex 0.2 0.00452934 -0.0169037
 vertex 0.2 0.00228421 -0.0173503
 vertex -0.1 0.00228421 -0.0173503
 endloop
endfacet
facet normal 0 0 0
 outer loop
 vertex 0.2 0.00452934 -0.0169037
 vertex -0.1 0.00228421 -0.0173503
 vertex -0.1 0.00452934 -0.0169037
 endloop
endfacet
facet normal 0 0 0
 outer loop
 vertex -0.1 0.00234947 -0.017846
 vertex -0.1 -1.57361e-09 -0.018
 vertex 0.2 -1.57361e-09 -0.018
 endloop
endfacet
facet normal 0 0 0
 outer loop
 vertex -0.1 0.00234947 -0.017846
 vertex 0.2 -1.57361e-09 -0.018
 vertex 0.2 0.00234947 -0.017846
 endloop
endfacet
facet normal 0 0 0
 outer loop
 vertex 0.2 0.00228421 -0.0173503
 vertex 0.2 -1.5299e-09 -0.0175
 vertex -0.1 -1.5299e-09 -0.0175
 endloop
endfacet
facet normal 0 0 0
 outer loop
 vertex 0.2 0.00228421 -0.0173503
 vertex -0.1 -1.5299e-09 -0.0175
 vertex -0.1 0.00228421 -0.0173503
 endloop
endfacet
facet normal 0 0 0
 outer loop
 vertex -0.1 -1.57361e-09 -0.018
 vertex -0.1 -0.00234947 -0.017846
 vertex 0.2 -0.00234947 -0.017846
 endloop
endfacet
facet normal 0 0 0
 outer loop
 vertex -0.1 -1.57361e-09 -0.018
 vertex 0.2 -0.00234947 -0.017846
 vertex 0.2 -1.57361e-09 -0.018
 endloop
endfacet
facet normal 0 0 0
 outer loop
 vertex 0.2 -1.5299e-09 -0.0175
 vertex 0.2 -0.00228421 -0.0173503
 vertex -0.1 -0.00228421 -0.0173503
 endloop
endfacet
facet normal 0 0 0
 outer loop
 vertex 0.2 -1.5299e-09 -0.0175
 vertex -0.1 -0.00228421 -0.0173503
 vertex -0.1 -1.5299e-09 -0.0175
 endloop
endfacet
facet normal 0 0 0
 outer loop
 vertex -0.1 -0.00234947 -0.017846
 vertex -0.1 -0.00465874 -0.0173867
 vertex 0.2 -0.00465874 -0.0173867
 endloop
endfacet
facet normal 0 0 0
 outer loop
 vertex -0.1 -0.00234947 -0.017846
 vertex 0.2 -0.00465874 -0.0173867
 vertex 0.2 -0.00234947 -0.017846
 endloop
endfacet
facet normal 0 0 0
 outer loop
 vertex 0.2 -0.00228421 -0.0173503
 vertex 0.2 -0.00452933 -0.0169037
 vertex -0.1 -0.00452933 -0.0169037
 endloop
endfacet
facet normal 0 0 0
 outer loop
 vertex 0.2 -0.00228421 -0.0173503
 vertex -0.1 -0.00452933 -0.0169037
 vertex -0.1 -0.00228421 -0.0173503
 endloop
endfacet
facet normal 0 0 0
 outer loop
 vertex -0.1 -0.00465874 -0.0173867
 vertex -0.1 -0.0068883 -0.0166298
 vertex 0.2 -0.0068883 -0.0166298
 endloop
endfacet
facet normal 0 0 0
 outer loop
 vertex -0.1 -0.00465874 -0.0173867
 vertex 0.2 -0.0068883 -0.0166298
 vertex 0.2 -0.00465874 -0.0173867
 endloop
endfacet
facet normal 0 0 0
 outer loop
 vertex 0.2 -0.00452933 -0.0169037
 vertex 0.2 -0.00669696 -0.0161679
 vertex -0.1 -0.00669696 -0.0161679
 endloop
endfacet
facet normal 0 0 0
 outer loop
 vertex 0.2 -0.00452933 -0.0169037
 vertex -0.1 -0.00669696 -0.0161679
 vertex -0.1 -0.00452933 -0.0169037
 endloop
endfacet
facet normal 0 0 0
 outer loop
 vertex -0.1 -0.0068883 -0.0166298
 vertex -0.1 -0.009 -0.0155885
 vertex 0.2 -0.009 -0.0155885
 endloop
endfacet
facet normal 0 0 0
 outer loop
 vertex -0.1 -0.0068883 -0.0166298
 vertex 0.2 -0.009 -0.0155885
 vertex 0.2 -0.0068883 -0.0166298
 endloop
endfacet
facet normal 0 0 0
 outer loop
 vertex 0.2 -0.00669696 -0.0161679
 vertex 0.2 -0.00875 -0.0151554
 vertex -0.1 -0.00875 -0.0151554
 endloop
endfacet
facet normal 0 0 0
 outer loop
 vertex 0.2 -0.00669696 -0.0161679
 vertex -0.1 -0.00875 -0.0151554
 vertex -0.1 -0.00669696 -0.0161679
 endloop
endfacet
facet normal 0 0 0
 outer loop
 vertex -0.1 -0.009 -0.0155885
 vertex -0.1 -0.0109577 -0.0142804
 vertex 0.2 -0.0109577 -0.0142804
 endloop
endfacet
facet normal 0 0 0
 outer loop
 vertex -0.1 -0.009 -0.0155885
 vertex 0.2 -0.0109577 -0.0142804
 vertex 0.2 -0.009 -0.0155885
 endloop
endfacet
facet normal 0 0 0
 outer loop
 vertex 0.2 -0.00875 -0.0151554
 vertex 0.2 -0.0106533 -0.0138837
 vertex -0.1 -0.0106533 -0.0138837
 endloop
endfacet
facet normal 0 0 0
 outer loop
 vertex 0.2 -0.00875 -0.0151554
 vertex -0.1 -0.0106533 -0.0138837
 vertex -0.1 -0.00875 -0.0151554
 endloop
endfacet
facet normal 0 0 0
 outer loop
 vertex -0.1 -0.0109577 -0.0142804
 vertex -0.1 -0.0127279 -0.0127279
 vertex 0.2 -0.0127279 -0.0127279
 endloop
endfacet
facet normal 0 0 0
 outer loop
 vertex -0.1 -0.0109577 -0.0142804
 vertex 0.2 -0.0127279 -0.0127279
 vertex 0.2 -0.0109577 -0.0142804
 endloop
endfacet
facet normal 0 0 0
 outer loop
 vertex 0.2 -0.0106533 -0.0138837
 vertex 0.2 -0.0123744 -0.0123744
 vertex -0.1 -0.0123744 -0.0123744
 endloop
endfacet
facet normal 0 0 0
 outer loop
 vertex 0.2 -0.0106533 -0.0138837
 vertex -0.1 -0.0123744 -0.0123744
 vertex -0.1 -0.0106533 -0.0138837
 endloop
endfacet
facet normal 0 0 0
 outer loop
 vertex -0.1 -0.0127279 -0.0127279
 vertex -0.1 -0.0142804 -0.0109577
 vertex 0.2 -0.0142804 -0.0109577
 endloop
endfacet
facet normal 0 0 0
 outer loop
 vertex -0.1 -0.0127279 -0.0127279
 vertex 0.2 -0.0142804 -0.0109577
 vertex 0.2 -0.0127279 -0.0127279
 endloop
endfacet
facet normal 0 0 0
 outer loop
 vertex 0.2 -0.0123744 -0.0123744
 vertex 0.2 -0.0138837 -0.0106533
 vertex -0.1 -0.0138837 -0.0106533
 endloop
endfacet
facet normal 0 0 0
 outer loop
 vertex 0.2 -0.0123744 -0.0123744
 vertex -0.1 -0.0138837 -0.0106533
 vertex -0.1 -0.0123744 -0.0123744
 endloop
endfacet
facet normal 0 0 0
 outer loop
 vertex -0.1 -0.0142804 -0.0109577
 vertex -0.1 -0.0155885 -0.009
 vertex 0.2 -0.0155885 -0.009
 endloop
endfacet
facet normal 0 0 0
 outer loop
 vertex -0.1 -0.0142804 -0.0109577
 vertex 0.2 -0.0155885 -0.009
 vertex 0.2 -0.0142804 -0.0109577
 endloop
endfacet
facet normal 0 0 0
 outer loop
 vertex 0.2 -0.0138837 -0.0106533
 vertex 0.2 -0.0151554 -0.00875
 vertex -0.1 -0.0151554 -0.00875
 endloop
endfacet
facet normal 0 0 0
 outer loop
 vertex 0.2 -0.0138837 -0.0106533
 vertex -0.1 -0.0151554 -0.00875
 vertex -0.1 -0.0138837 -0.0106533
 endloop
endfacet
facet normal 0 0 0
 outer loop
 vertex -0.1 -0.0155885 -0.009
 vertex -0.1 -0.0166298 -0.0068883
 vertex 0.2 -0.0166298 -0.0068883
 endloop
endfacet
facet normal 0 0 0
 outer loop
 vertex -0.1 -0.0155885 -0.009
 vertex 0.2 -0.0166298 -0.0068883
 vertex 0.2 -0.0155885 -0.009
 endloop
endfacet
facet normal 0 0 0
 outer loop
 vertex 0.2 -0.0151554 -0.00875
 vertex 0.2 -0.0161679 -0.00669696
 vertex -0.1 -0.0161679 -0.00669696
 endloop
endfacet
facet normal 0 0 0
 outer loop
 vertex 0.2 -0.0151554 -0.00875
 vertex -0.1 -0.0161679 -0.00669696
 vertex -0.1 -0.0151554 -0.00875
 endloop
endfacet
facet normal 0 0 0
 outer loop
 vertex -0.1 -0.0166298 -0.0068883
 vertex -0.1 -0.0173867 -0.00465874
 vertex 0.2 -0.0173867 -0.00465874
 endloop
endfacet
facet normal 0 0 0
 outer loop
 vertex -0.1 -0.0166298 -0.0068883
 vertex 0.2 -0.0173867 -0.00465874
 vertex 0.2 -0.0166298 -0.0068883
 endloop
endfacet
facet normal 0 0 0
 outer loop
 vertex 0.2 -0.0161679 -0.00669696
 vertex 0.2 -0.0169037 -0.00452933
 vertex -0.1 -0.0169037 -0.00452933
 endloop
endfacet
facet normal 0 0 0
 outer loop
 vertex 0.2 -0.0161679 -0.00669696
 vertex -0.1 -0.0169037 -0.00452933
 vertex -0.1 -0.0161679 -0.00669696
 endloop
endfacet
facet normal 0 0 0
 outer loop
 vertex -0.1 -0.0173867 -0.00465874
 vertex -0.1 -0.017846 -0.00234947
 vertex 0.2 -0.017846 -0.00234947
 endloop
endfacet
facet normal 0 0 0
 outer loop
 vertex -0.1 -0.0173867 -0.00465874
 vertex 0.2 -0.017846 -0.00234947
 vertex 0.2 -0.0173867 -0.00465874
 endloop
endfacet
facet normal 0 0 0
 outer loop
 vertex 0.2 -0.0169037 -0.00452933
 vertex 0.2 -0.0173503 -0.00228421
 vertex -0.1 -0.0173503 -0.00228421
 endloop
endfacet
facet normal 0 0 0
 outer loop
 vertex 0.2 -0.0169037 -0.00452933
 vertex -0.1 -0.0173503 -0.00228421
 vertex -0.1 -0.0169037 -0.00452933
 endloop
endfacet
facet normal 0 0 0
 outer loop
 vertex -0.1 -0.017846 -0.00234947
 vertex -0.1 -0.018 2.14648e-10
 vertex 0.2 -0.018 2.14648e-10
 endloop
endfacet
facet normal 0 0 0
 outer loop
 vertex -0.1 -0.017846 -0.00234947
 vertex 0.2 -0.018 2.14648e-10
 vertex 0.2 -0.017846 -0.00234947
 endloop
endfacet
facet normal 0 0 0
 outer loop
 vertex 0.2 -0.0173503 -0.00228421
 vertex 0.2 -0.0175 2.08685e-10
 vertex -0.1 -0.0175 2.08685e-10
 endloop
endfacet
facet normal 0 0 0
 outer loop
 vertex 0.2 -0.0173503 -0.00228421
 vertex -0.1 -0.0175 2.08685e-10
 vertex -0.1 -0.0173503 -0.00228421
 endloop
endfacet
facet normal 0 0 0
 outer loop
 vertex -0.1 -0.018 2.14648e-10
 vertex -0.1 -0.017846 0.00234948
 vertex 0.2 -0.017846 0.00234948
 endloop
endfacet
facet normal 0 0 0
 outer loop
 vertex -0.1 -0.018 2.14648e-10
 vertex 0.2 -0.017846 0.00234948
 vertex 0.2 -0.018 2.14648e-10
 endloop
endfacet
facet normal 0 0 0
 outer loop
 vertex 0.2 -0.0175 2.08685e-10
 vertex 0.2 -0.0173503 0.00228421
 vertex -0.1 -0.0173503 0.00228421
 endloop
endfacet
facet normal 0 0 0
 outer loop
 vertex 0.2 -0.0175 2.08685e-10
 vertex -0.1 -0.0173503 0.00228421
 vertex -0.1 -0.0175 2.08685e-10
 endloop
endfacet
facet normal 0 0 0
 outer loop
 vertex -0.1 -0.017846 0.00234948
 vertex -0.1 -0.0173867 0.00465874
 vertex 0.2 -0.0173867 0.00465874
 endloop
endfacet
facet normal 0 0 0
 outer loop
 vertex -0.1 -0.017846 0.00234948
 vertex 0.2 -0.0173867 0.00465874
 vertex 0.2 -0.017846 0.00234948
 endloop
endfacet
facet normal 0 0 0
 outer loop
 vertex 0.2 -0.0173503 0.00228421
 vertex 0.2 -0.0169037 0.00452933
 vertex -0.1 -0.0169037 0.00452933
 endloop
endfacet
facet normal 0 0 0
 outer loop
 vertex 0.2 -0.0173503 0.00228421
 vertex -0.1 -0.0169037 0.00452933
 vertex -0.1 -0.0173503 0.00228421
 endloop
endfacet
facet normal 0 0 0
 outer loop
 vertex -0.1 -0.0173867 0.00465874
 vertex -0.1 -0.0166298 0.0068883
 vertex 0.2 -0.0166298 0.0068883
 endloop
endfacet
facet normal 0 0 0
 outer loop
 vertex -0.1 -0.0173867 0.00465874
 vertex 0.2 -0.0166298 0.0068883
 vertex 0.2 -0.0173867 0.00465874
 endloop
endfacet
facet normal 0 0 0
 outer loop
 vertex 0.2 -0.0169037 0.00452933
 vertex 0.2 -0.0161679 0.00669696
 vertex -0.1 -0.0161679 0.00669696
 endloop
endfacet
facet normal 0 0 0
 outer loop
 vertex 0.2 -0.0169037 0.00452933
 vertex -0.1 -0.0161679 0.00669696
 vertex -0.1 -0.0169037 0.00452933
 endloop
endfacet
facet normal 0 0 0
 outer loop
 vertex -0.1 -0.0166298 0.0068883
 vertex -0.1 -0.0155885 0.009
 vertex 0.2 -0.0155885 0.009
 endloop
endfacet
facet normal 0 0 0
 outer loop
 vertex -0.1 -0.0166298 0.0068883
 vertex 0.2 -0.0155885 0.009
 vertex 0.2 -0.0166298 0.0068883
 endloop
endfacet
facet normal 0 0 0
 outer loop
 vertex 0.2 -0.0161679 0.00669696
 vertex 0.2 -0.0151554 0.00875
 vertex -0.1 -0.0151554 0.00875
 endloop
endfacet
facet normal 0 0 0
 outer loop
 vertex 0.2 -0.0161679 0.00669696
 vertex -0.1 -0.0151554 0.00875
 vertex -0.1 -0.0161679 0.00669696
 endloop
endfacet
facet normal 0 0 0
 outer loop
 vertex -0.1 -0.0155885 0.009
 vertex -0.1 -0.0142804 0.0109577
 vertex 0.2 -0.0142804 0.0109577
 endloop
endfacet
facet normal 0 0 0
 outer loop
 vertex -0.1 -0.0155885 0.009
 vertex 0.2 -0.0142804 0.0109577
 vertex 0.2 -0.0155885 0.009
 endloop
endfacet
facet normal 0 0 0
 outer loop
 vertex 0.2 -0.0151554 0.00875
 vertex 0.2 -0.0138837 0.0106533
 vertex -0.1 -0.0138837 0.0106533
 endloop
endfacet
facet normal 0 0 0
 outer loop
 vertex 0.2 -0.0151554 0.00875
 vertex -0.1 -0.0138837 0.0106533
 vertex -0.1 -0.0151554 0.00875
 endloop
endfacet
facet normal 0 0 0
 outer loop
 vertex -0.1 -0.0142804 0.0109577
 vertex -0.1 -0.0127279 0.0127279
 vertex 0.2 -0.0127279 0.0127279
 endloop
endfacet
facet normal 0 0 0
 outer loop
 vertex -0.1 -0.0142804 0.0109577
 vertex 0.2 -0.0127279 0.0127279
 vertex 0.2 -0.0142804 0.0109577
 endloop
endfacet
facet normal 0 0 0
 outer loop
 vertex 0.2 -0.0138837 0.0106533
 vertex 0.2 -0.0123744 0.0123744
 vertex -0.1 -0.0123744 0.0123744
 endloop
endfacet
facet normal 0 0 0
 outer loop
 vertex 0.2 -0.0138837 0.0106533
 vertex -0.1 -0.0123744 0.0123744
 vertex -0.1 -0.0138837 0.0106533
 endloop
endfacet
facet normal 0 0 0
 outer loop
 vertex -0.1 -0.0127279 0.0127279
 vertex -0.1 -0.0109577 0.0142804
 vertex 0.2 -0.0109577 0.0142804
 endloop
endfacet
facet normal 0 0 0
 outer loop
 vertex -0.1 -0.0127279 0.0127279
 vertex 0.2 -0.0109577 0.0142804
 vertex 0.2 -0.0127279 0.0127279
 endloop
endfacet
facet normal 0 0 0
 outer loop
 vertex 0.2 -0.0123744 0.0123744
 vertex 0.2 -0.0106533 0.0138837
 vertex -0.1 -0.0106533 0.0138837
 endloop
endfacet
facet normal 0 0 0
 outer loop
 vertex 0.2 -0.0123744 0.0123744
 vertex -0.1 -0.0106533 0.0138837
 vertex -0.1 -0.0123744 0.0123744
 endloop
endfacet
facet normal 0 0 0
 outer loop
 vertex -0.1 -0.0109577 0.0142804
 vertex -0.1 -0.009 0.0155885
 vertex 0.2 -0.009 0.0155885
 endloop
endfacet
facet normal 0 0 0
 outer loop
 vertex -0.1 -0.0109577 0.0142804
 vertex 0.2 -0.009 0.0155885
 vertex 0.2 -0.0109577 0.0142804
 endloop
endfacet
facet normal 0 0 0
 outer loop
 vertex 0.2 -0.0106533 0.0138837
 vertex 0.2 -0.00875 0.0151554
 vertex -0.1 -0.00875 0.0151554
 endloop
endfacet
facet normal 0 0 0
 outer loop
 vertex 0.2 -0.0106533 0.0138837
 vertex -0.1 -0.00875 0.0151554
 vertex -0.1 -0.0106533 0.0138837
 endloop
endfacet
facet normal 0 0 0
 outer loop
 vertex -0.1 -0.009 0.0155885
 vertex -0.1 -0.0068883 0.0166298
 vertex 0.2 -0.0068883 0.0166298
 endloop
endfacet
facet normal 0 0 0
 outer loop
 vertex -0.1 -0.009 0.0155885
 vertex 0.2 -0.0068883 0.0166298
 vertex 0.2 -0.009 0.0155885
 endloop
endfacet
facet normal 0 0 0
 outer loop
 vertex 0.2 -0.00875 0.0151554
 vertex 0.2 -0.00669696 0.0161679
 vertex -0.1 -0.00669696 0.0161679
 endloop
endfacet
facet normal 0 0 0
 outer loop
 vertex 0.2 -0.00875 0.0151554
 vertex -0.1 -0.00669696 0.0161679
 vertex -0.1 -0.00875 0.0151554
 endloop
endfacet
facet normal 0 0 0
 outer loop
 vertex -0.1 -0.0068883 0.0166298
 vertex -0.1 -0.00465874 0.0173867
 vertex 0.2 -0.00465874 0.0173867
 endloop
endfacet
facet normal 0 0 0
 outer loop
 vertex -0.1 -0.0068883 0.0166298
 vertex 0.2 -0.00465874 0.0173867
 vertex 0.2 -0.0068883 0.0166298
 endloop
endfacet
facet normal 0 0 0
 outer loop
 vertex 0.2 -0.00669696 0.0161679
 vertex 0.2 -0.00452933 0.0169037
 vertex -0.1 -0.00452933 0.0169037
 endloop
endfacet
facet normal 0 0 0
 outer loop
 vertex 0.2 -0.00669696 0.0161679
 vertex -0.1 -0.00452933 0.0169037
 vertex -0.1 -0.00669696 0.0161679
 endloop
endfacet
facet normal 0 0 0
 outer loop
 vertex -0.1 -0.00465874 0.0173867
 vertex -0.1 -0.00234947 0.017846
 vertex 0.2 -0.00234947 0.017846
 endloop
endfacet
facet normal 0 0 0
 outer loop
 vertex -0.1 -0.00465874 0.0173867
 vertex 0.2 -0.00234947 0.017846
 vertex 0.2 -0.00465874 0.0173867
 endloop
endfacet
facet normal 0 0 0
 outer loop
 vertex 0.2 -0.00452933 0.0169037
 vertex 0.2 -0.00228421 0.0173503
 vertex -0.1 -0.00228421 0.0173503
 endloop
endfacet
facet normal 0 0 0
 outer loop
 vertex 0.2 -0.00452933 0.0169037
 vertex -0.1 -0.00228421 0.0173503
 vertex -0.1 -0.00452933 0.0169037
 endloop
endfacet
facet normal 0 0 0
 outer loop
 vertex -0.1 -0.00234947 0.017846
 vertex -0.1 3.14722e-09 0.018
 vertex 0.2 3.14722e-09 0.018
 endloop
endfacet
facet normal 0 0 0
 outer loop
 vertex -0.1 -0.00234947 0.017846
 vertex 0.2 3.14722e-09 0.018
 vertex 0.2 -0.00234947 0.017846
 endloop
endfacet
facet normal 0 0 0
 outer loop
 vertex 0.2 -0.00228421 0.0173503
 vertex 0.2 3.0598e-09 0.0175
 vertex -0.1 3.0598e-09 0.0175
 endloop
endfacet
facet normal 0 0 0
 outer loop
 vertex 0.2 -0.00228421 0.0173503
 vertex -0.1 3.0598e-09 0.0175
 vertex -0.1 -0.00228421 0.0173503
 endloop
endfacet
facet normal 0 0 0
 outer loop
 vertex -0.1 0 0.0175
 vertex -0.1 0.00228421 0.0173503
 vertex -0.1 0.00234947 0.017846
 endloop
endfacet
facet normal 0 0 0
 outer loop
 vertex -0.1 0 0.0175
 vertex -0.1 0.00234947 0.017846
 vertex -0.1 0 0.018
 endloop
endfacet
facet normal 0 0 0
 outer loop
 vertex 0.2 0 0.0175
 vertex 0.2 0 0.018
 vertex 0.2 0.00234947 0.017846
 endloop
endfacet
facet normal 0 0 0
 outer loop
 vertex 0.2 0 0.0175
 vertex 0.2 0.00234947 0.017846
 vertex 0.2 0.00228421 0.0173503
 endloop
endfacet
facet normal 0 0 0
 outer loop
 vertex -0.1 0.00228421 0.0173503
 vertex -0.1 0.00452933 0.0169037
 vertex -0.1 0.00465874 0.0173867
 endloop
endfacet
facet normal 0 0 0
 outer loop
 vertex -0.1 0.00228421 0.0173503
 vertex -0.1 0.00465874 0.0173867
 vertex -0.1 0.00234947 0.017846
 endloop
endfacet
facet normal 0 0 0
 outer loop
 vertex 0.2 0.00228421 0.0173503
 vertex 0.2 0.00234947 0.017846
 vertex 0.2 0.00465874 0.0173867
 endloop
endfacet
facet normal 0 0 0
 outer loop
 vertex 0.2 0.00228421 0.0173503
 vertex 0.2 0.00465874 0.0173867
 vertex 0.2 0.00452933 0.0169037
 endloop
endfacet
facet normal 0 0 0
 outer loop
 vertex -0.1 0.00452933 0.0169037
 vertex -0.1 0.00669696 0.0161679
 vertex -0.1 0.0068883 0.0166298
 endloop
endfacet
facet normal 0 0 0
 outer loop
 vertex -0.1 0.00452933 0.0169037
 vertex -0.1 0.0068883 0.0166298
 vertex -0.1 0.00465874 0.0173867
 endloop
endfacet
facet normal 0 0 0
 outer loop
 vertex 0.2 0.00452933 0.0169037
 vertex 0.2 0.00465874 0.0173867
 vertex 0.2 0.0068883 0.0166298
 endloop
endfacet
facet normal 0 0 0
 outer loop
 vertex 0.2 0.00452933 0.0169037
 vertex 0.2 0.0068883 0.0166298
 vertex 0.2 0.00669696 0.0161679
 endloop
endfacet
facet normal 0 0 0
 outer loop
 vertex -0.1 0.00669696 0.0161679
 vertex -0.1 0.00875 0.0151554
 vertex -0.1 0.009 0.0155885
 endloop
endfacet
facet normal 0 0 0
 outer loop
 vertex -0.1 0.00669696 0.0161679
 vertex -0.1 0.009 0.0155885
 vertex -0.1 0.0068883 0.0166298
 endloop
endfacet
facet normal 0 0 0
 outer loop
 vertex 0.2 0.00669696 0.0161679
 vertex 0.2 0.0068883 0.0166298
 vertex 0.2 0.009 0.0155885
 endloop
endfacet
facet normal 0 0 0
 outer loop
 vertex 0.2 0.00669696 0.0161679
 vertex 0.2 0.009 0.0155885
 vertex 0.2 0.00875 0.0151554
 endloop
endfacet
facet normal 0 0 0
 outer loop
 vertex -0.1 0.00875 0.0151554
 vertex -0.1 0.0106533 0.0138837
 vertex -0.1 0.0109577 0.0142804
 endloop
endfacet
facet normal 0 0 0
 outer loop
 vertex -0.1 0.00875 0.0151554
 vertex -0.1 0.0109577 0.0142804
 vertex -0.1 0.009 0.0155885
 endloop
endfacet
facet normal 0 0 0
 outer loop
 vertex 0.2 0.00875 0.0151554
 vertex 0.2 0.009 0.0155885
 vertex 0.2 0.0109577 0.0142804
 endloop
endfacet
facet normal 0 0 0
 outer loop
 vertex 0.2 0.00875 0.0151554
 vertex 0.2 0.0109577 0.0142804
 vertex 0.2 0.0106533 0.0138837
 endloop
endfacet
facet normal 0 0 0
 outer loop
 vertex -0.1 0.0106533 0.0138837
 vertex -0.1 0.0123744 0.0123744
 vertex -0.1 0.0127279 0.0127279
 endloop
endfacet
facet normal 0 0 0
 outer loop
 vertex -0.1 0.0106533 0.0138837
 vertex -0.1 0.0127279 0.0127279
 vertex -0.1 0.0109577 0.0142804
 endloop
endfacet
facet normal 0 0 0
 outer loop
 vertex 0.2 0.0106533 0.0138837
 vertex 0.2 0.0109577 0.0142804
 vertex 0.2 0.0127279 0.0127279
 endloop
endfacet
facet normal 0 0 0
 outer loop
 vertex 0.2 0.0106533 0.0138837
 vertex 0.2 0.0127279 0.0127279
 vertex 0.2 0.0123744 0.0123744
 endloop
endfacet
facet normal 0 0 0
 outer loop
 vertex -0.1 0.0123744 0.0123744
 vertex -0.1 0.0138837 0.0106533
 vertex -0.1 0.0142804 0.0109577
 endloop
endfacet
facet normal 0 0 0
 outer loop
 vertex -0.1 0.0123744 0.0123744
 vertex -0.1 0.0142804 0.0109577
 vertex -0.1 0.0127279 0.0127279
 endloop
endfacet
facet normal 0 0 0
 outer loop
 vertex 0.2 0.0123744 0.0123744
 vertex 0.2 0.0127279 0.0127279
 vertex 0.2 0.0142804 0.0109577
 endloop
endfacet
facet normal 0 0 0
 outer loop
 vertex 0.2 0.0123744 0.0123744
 vertex 0.2 0.0142804 0.0109577
 vertex 0.2 0.0138837 0.0106533
 endloop
endfacet
facet normal 0 0 0
 outer loop
 vertex -0.1 0.0138837 0.0106533
 vertex -0.1 0.0151554 0.00875
 vertex -0.1 0.0155885 0.009
 endloop
endfacet
facet normal 0 0 0
 outer loop
 vertex -0.1 0.0138837 0.0106533
 vertex -0.1 0.0155885 0.009
 vertex -0.1 0.0142804 0.0109577
 endloop
endfacet
facet normal 0 0 0
 outer loop
 vertex 0.2 0.0138837 0.0106533
 vertex 0.2 0.0142804 0.0109577
 vertex 0.2 0.0155885 0.009
 endloop
endfacet
facet normal 0 0 0
 outer loop
 vertex 0.2 0.0138837 0.0106533
 vertex 0.2 0.0155885 0.009
 vertex 0.2 0.0151554 0.00875
 endloop
endfacet
facet normal 0 0 0
 outer loop
 vertex -0.1 0.0151554 0.00875
 vertex -0.1 0.0161679 0.00669696
 vertex -0.1 0.0166298 0.0068883
 endloop
endfacet
facet normal 0 0 0
 outer loop
 vertex -0.1 0.0151554 0.00875
 vertex -0.1 0.0166298 0.0068883
 vertex -0.1 0.0155885 0.009
 endloop
endfacet
facet normal 0 0 0
 outer loop
 vertex 0.2 0.0151554 0.00875
 vertex 0.2 0.0155885 0.009
 vertex 0.2 0.0166298 0.0068883
 endloop
endfacet
facet normal 0 0 0
 outer loop
 vertex 0.2 0.0151554 0.00875
 vertex 0.2 0.0166298 0.0068883
 vertex 0.2 0.0161679 0.00669696
 endloop
endfacet
facet normal 0 0 0
 outer loop
 vertex -0.1 0.0161679 0.00669696
 vertex -0.1 0.0169037 0.00452933
 vertex -0.1 0.0173867 0.00465874
 endloop
endfacet
facet normal 0 0 0
 outer loop
 vertex -0.1 0.0161679 0.00669696
 vertex -0.1 0.0173867 0.00465874
 vertex -0.1 0.0166298 0.0068883
 endloop
endfacet
facet normal 0 0 0
 outer loop
 vertex 0.2 0.0161679 0.00669696
 vertex 0.2 0.0166298 0.0068883
 vertex 0.2 0.0173867 0.00465874
 endloop
endfacet
facet normal 0 0 0
 outer loop
 vertex 0.2 0.0161679 0.00669696
 vertex 0.2 0.0173867 0.00465874
 vertex 0.2 0.0169037 0.00452933
 endloop
endfacet
facet normal 0 0 0
 outer loop
 vertex -0.1 0.0169037 0.00452933
 vertex -0.1 0.0173503 0.00228421
 vertex -0.1 0.017846 0.00234947
 endloop
endfacet
facet normal 0 0 0
 outer loop
 vertex -0.1 0.0169037 0.00452933
 vertex -0.1 0.017846 0.00234947
 vertex -0.1 0.0173867 0.00465874
 endloop
endfacet
facet normal 0 0 0
 outer loop
 vertex 0.2 0.0169037 0.00452933
 vertex 0.2 0.0173867 0.00465874
 vertex 0.2 0.017846 0.00234947
 endloop
endfacet
facet normal 0 0 0
 outer loop
 vertex 0.2 0.0169037 0.00452933
 vertex 0.2 0.017846 0.00234947
 vertex 0.2 0.0173503 0.00228421
 endloop
endfacet
facet normal 0 0 0
 outer loop
 vertex -0.1 0.0173503 0.00228421
 vertex -0.1 0.0175 -7.64949e-10
 vertex -0.1 0.018 -7.86805e-10
 endloop
endfacet
facet normal 0 0 0
 outer loop
 vertex -0.1 0.0173503 0.00228421
 vertex -0.1 0.018 -7.86805e-10
 vertex -0.1 0.017846 0.00234947
 endloop
endfacet
facet normal 0 0 0
 outer loop
 vertex 0.2 0.0173503 0.00228421
 vertex 0.2 0.017846 0.00234947
 vertex 0.2 0.018 -7.86805e-10
 endloop
endfacet
facet normal 0 0 0
 outer loop
 vertex 0.2 0.0173503 0.00228421
 vertex 0.2 0.018 -7.86805e-10
 vertex 0.2 0.0175 -7.64949e-10
 endloop
endfacet
facet normal 0 0 0
 outer loop
 vertex -0.1 0.0175 -7.64949e-10
 vertex -0.1 0.0173503 -0.00228421
 vertex -0.1 0.017846 -0.00234947
 endloop
endfacet
facet normal 0 0 0
 outer loop
 vertex -0.1 0.0175 -7.64949e-10
 vertex -0.1 0.017846 -0.00234947
 vertex -0.1 0.018 -7.86805e-10
 endloop
endfacet
facet normal 0 0 0
 outer loop
 vertex 0.2 0.0175 -7.64949e-10
 vertex 0.2 0.018 -7.86805e-10
 vertex 0.2 0.017846 -0.00234947
 endloop
endfacet
facet normal 0 0 0
 outer loop
 vertex 0.2 0.0175 -7.64949e-10
 vertex 0.2 0.017846 -0.00234947
 vertex 0.2 0.0173503 -0.00228421
 endloop
endfacet
facet normal 0 0 0
 outer loop
 vertex -0.1 0.0173503 -0.00228421
 vertex -0.1 0.0169037 -0.00452933
 vertex -0.1 0.0173867 -0.00465874
 endloop
endfacet
facet normal 0 0 0
 outer loop
 vertex -0.1 0.0173503 -0.00228421
 vertex -0.1 0.0173867 -0.00465874
 vertex -0.1 0.017846 -0.00234947
 endloop
endfacet
facet normal 0 0 0
 outer loop
 vertex 0.2 0.0173503 -0.00228421
 vertex 0.2 0.017846 -0.00234947
 vertex 0.2 0.0173867 -0.00465874
 endloop
endfacet
facet normal 0 0 0
 outer loop
 vertex 0.2 0.0173503 -0.00228421
 vertex 0.2 0.0173867 -0.00465874
 vertex 0.2 0.0169037 -0.00452933
 endloop
endfacet
facet normal 0 0 0
 outer loop
 vertex -0.1 0.0169037 -0.00452933
 vertex -0.1 0.0161679 -0.00669696
 vertex -0.1 0.0166298 -0.0068883
 endloop
endfacet
facet normal 0 0 0
 outer loop
 vertex -0.1 0.0169037 -0.00452933
 vertex -0.1 0.0166298 -0.0068883
 vertex -0.1 0.0173867 -0.00465874
 endloop
endfacet
facet normal 0 0 0
 outer loop
 vertex 0.2 0.0169037 -0.00452933
 vertex 0.2 0.0173867 -0.00465874
 vertex 0.2 0.0166298 -0.0068883
 endloop
endfacet
facet normal 0 0 0
 outer loop
 vertex 0.2 0.0169037 -0.00452933
 vertex 0.2 0.0166298 -0.0068883
 vertex 0.2 0.0161679 -0.00669696
 endloop
endfacet
facet normal 0 0 0
 outer loop
 vertex -0.1 0.0161679 -0.00669696
 vertex -0.1 0.0151554 -0.00875
 vertex -0.1 0.0155885 -0.009
 endloop
endfacet
facet normal 0 0 0
 outer loop
 vertex -0.1 0.0161679 -0.00669696
 vertex -0.1 0.0155885 -0.009
 vertex -0.1 0.0166298 -0.0068883
 endloop
endfacet
facet normal 0 0 0
 outer loop
 vertex 0.2 0.0161679 -0.00669696
 vertex 0.2 0.0166298 -0.0068883
 vertex 0.2 0.0155885 -0.009
 endloop
endfacet
facet normal 0 0 0
 outer loop
 vertex 0.2 0.0161679 -0.00669696
 vertex 0.2 0.0155885 -0.009
 vertex 0.2 0.0151554 -0.00875
 endloop
endfacet
facet normal 0 0 0
 outer loop
 vertex -0.1 0.0151554 -0.00875
 vertex -0.1 0.0138837 -0.0106533
 vertex -0.1 0.0142804 -0.0109577
 endloop
endfacet
facet normal 0 0 0
 outer loop
 vertex -0.1 0.0151554 -0.00875
 vertex -0.1 0.0142804 -0.0109577
 vertex -0.1 0.0155885 -0.009
 endloop
endfacet
facet normal 0 0 0
 outer loop
 vertex 0.2 0.0151554 -0.00875
 vertex 0.2 0.0155885 -0.009
 vertex 0.2 0.0142804 -0.0109577
 endloop
endfacet
facet normal 0 0 0
 outer loop
 vertex 0.2 0.0151554 -0.00875
 vertex 0.2 0.0142804 -0.0109577
 vertex 0.2 0.0138837 -0.0106533
 endloop
endfacet
facet normal 0 0 0
 outer loop
 vertex -0.1 0.0138837 -0.0106533
 vertex -0.1 0.0123744 -0.0123744
 vertex -0.1 0.0127279 -0.0127279
 endloop
endfacet
facet normal 0 0 0
 outer loop
 vertex -0.1 0.0138837 -0.0106533
 vertex -0.1 0.0127279 -0.0127279
 vertex -0.1 0.0142804 -0.0109577
 endloop
endfacet
facet normal 0 0 0
 outer loop
 vertex 0.2 0.0138837 -0.0106533
 vertex 0.2 0.0142804 -0.0109577
 vertex 0.2 0.0127279 -0.0127279
 endloop
endfacet
facet normal 0 0 0
 outer loop
 vertex 0.2 0.0138837 -0.0106533
 vertex 0.2 0.0127279 -0.0127279
 vertex 0.2 0.0123744 -0.0123744
 endloop
endfacet
facet normal 0 0 0
 outer loop
 vertex -0.1 0.0123744 -0.0123744
 vertex -0.1 0.0106533 -0.0138837
 vertex -0.1 0.0109577 -0.0142804
 endloop
endfacet
facet normal 0 0 0
 outer loop
 vertex -0.1 0.0123744 -0.0123744
 vertex -0.1 0.0109577 -0.0142804
 vertex -0.1 0.0127279 -0.0127279
 endloop
endfacet
facet normal 0 0 0
 outer loop
 vertex 0.2 0.0123744 -0.0123744
 vertex 0.2 0.0127279 -0.0127279
 vertex 0.2 0.0109577 -0.0142804
 endloop
endfacet
facet normal 0 0 0
 outer loop
 vertex 0.2 0.0123744 -0.0123744
 vertex 0.2 0.0109577 -0.0142804
 vertex 0.2 0.0106533 -0.0138837
 endloop
endfacet
facet normal 0 0 0
 outer loop
 vertex -0.1 0.0106533 -0.0138837
 vertex -0.1 0.00875 -0.0151554
 vertex -0.1 0.009 -0.0155885
 endloop
endfacet
facet normal 0 0 0
 outer loop
 vertex -0.1 0.0106533 -0.0138837
 vertex -0.1 0.009 -0.0155885
 vertex -0.1 0.0109577 -0.0142804
 endloop
endfacet
facet normal 0 0 0
 outer loop
 vertex 0.2 0.0106533 -0.0138837
 vertex 0.2 0.0109577 -0.0142804
 vertex 0.2 0.009 -0.0155885
 endloop
endfacet
facet normal 0 0 0
 outer loop
 vertex 0.2 0.0106533 -0.0138837
 vertex 0.2 0.009 -0.0155885
 vertex 0.2 0.00875 -0.0151554
 endloop
endfacet
facet normal 0 0 0
 outer loop
 vertex -0.1 0.00875 -0.0151554
 vertex -0.1 0.00669696 -0.0161679
 vertex -0.1 0.0068883 -0.0166298
 endloop
endfacet
facet normal 0 0 0
 outer loop
 vertex -0.1 0.00875 -0.0151554
 vertex -0.1 0.0068883 -0.0166298
 vertex -0.1 0.009 -0.0155885
 endloop
endfacet
facet normal 0 0 0
 outer loop
 vertex 0.2 0.00875 -0.0151554
 vertex 0.2 0.009 -0.0155885
 vertex 0.2 0.0068883 -0.0166298
 endloop
endfacet
facet normal 0 0 0
 outer loop
 vertex 0.2 0.00875 -0.0151554
 vertex 0.2 0.0068883 -0.0166298
 vertex 0.2 0.00669696 -0.0161679
 endloop
endfacet
facet normal 0 0 0
 outer loop
 vertex -0.1 0.00669696 -0.0161679
 vertex -0.1 0.00452934 -0.0169037
 vertex -0.1 0.00465874 -0.0173867
 endloop
endfacet
facet normal 0 0 0
 outer loop
 vertex -0.1 0.00669696 -0.0161679
 vertex -0.1 0.00465874 -0.0173867
 vertex -0.1 0.0068883 -0.0166298
 endloop
endfacet
facet normal 0 0 0
 outer loop
 vertex 0.2 0.00669696 -0.0161679
 vertex 0.2 0.0068883 -0.0166298
 vertex 0.2 0.00465874 -0.0173867
 endloop
endfacet
facet normal 0 0 0
 outer loop
 vertex 0.2 0.00669696 -0.0161679
 vertex 0.2 0.00465874 -0.0173867
 vertex 0.2 0.00452934 -0.0169037
 endloop
endfacet
facet normal 0 0 0
 outer loop
 vertex -0.1 0.00452934 -0.0169037
 vertex -0.1 0.00228421 -0.0173503
 vertex -0.1 0.00234947 -0.017846
 endloop
endfacet
facet normal 0 0 0
 outer loop
 vertex -0.1 0.00452934 -0.0169037
 vertex -0.1 0.00234947 -0.017846
 vertex -0.1 0.00465874 -0.0173867
 endloop
endfacet
facet normal 0 0 0
 outer loop
 vertex 0.2 0.00452934 -0.0169037
 vertex 0.2 0.00465874 -0.0173867
 vertex 0.2 0.00234947 -0.017846
 endloop
endfacet
facet normal 0 0 0
 outer loop
 vertex 0.2 0.00452934 -0.0169037
 vertex 0.2 0.00234947 -0.017846
 vertex 0.2 0.00228421 -0.0173503
 endloop
endfacet
facet normal 0 0 0
 outer loop
 vertex -0.1 0.00228421 -0.0173503
 vertex -0.1 -1.5299e-09 -0.0175
 vertex -0.1 -1.57361e-09 -0.018
 endloop
endfacet
facet normal 0 0 0
 outer loop
 vertex -0.1 0.00228421 -0.0173503
 vertex -0.1 -1.57361e-09 -0.018
 vertex -0.1 0.00234947 -0.017846
 endloop
endfacet
facet normal 0 0 0
 outer loop
 vertex 0.2 0.00228421 -0.0173503
 vertex 0.2 0.00234947 -0.017846
 vertex 0.2 -1.57361e-09 -0.018
 endloop
endfacet
facet normal 0 0 0
 outer loop
 vertex 0.2 0.00228421 -0.0173503
 vertex 0.2 -1.57361e-09 -0.018
 vertex 0.2 -1.5299e-09 -0.0175
 endloop
endfacet
facet normal 0 0 0
 outer loop
 vertex -0.1 -1.5299e-09 -0.0175
 vertex -0.1 -0.00228421 -0.0173503
 vertex -0.1 -0.00234947 -0.017846
 endloop
endfacet
facet normal 0 0 0
 outer loop
 vertex -0.1 -1.5299e-09 -0.0175
 vertex -0.1 -0.00234947 -0.017846
 vertex -0.1 -1.57361e-09 -0.018
 endloop
endfacet
facet normal 0 0 0
 outer loop
 vertex 0.2 -1.5299e-09 -0.0175
 vertex 0.2 -1.57361e-09 -0.018
 vertex 0.2 -0.00234947 -0.017846
 endloop
endfacet
facet normal 0 0 0
 outer loop
 vertex 0.2 -1.5299e-09 -0.0175
 vertex 0.2 -0.00234947 -0.017846
 vertex 0.2 -0.00228421 -0.0173503
 endloop
endfacet
facet normal 0 0 0
 outer loop
 vertex -0.1 -0.00228421 -0.0173503
 vertex -0.1 -0.00452933 -0.0169037
 vertex -0.1 -0.00465874 -0.0173867
 endloop
endfacet
facet normal 0 0 0
 outer loop
 vertex -0.1 -0.00228421 -0.0173503
 vertex -0.1 -0.00465874 -0.0173867
 vertex -0.1 -0.00234947 -0.017846
 endloop
endfacet
facet normal 0 0 0
 outer loop
 vertex 0.2 -0.00228421 -0.0173503
 vertex 0.2 -0.00234947 -0.017846
 vertex 0.2 -0.00465874 -0.0173867
 endloop
endfacet
facet normal 0 0 0
 outer loop
 vertex 0.2 -0.00228421 -0.0173503
 vertex 0.2 -0.00465874 -0.0173867
 vertex 0.2 -0.00452933 -0.0169037
 endloop
endfacet
facet normal 0 0 0
 outer loop
 vertex -0.1 -0.00452933 -0.0169037
 vertex -0.1 -0.00669696 -0.0161679
 vertex -0.1 -0.0068883 -0.0166298
 endloop
endfacet
facet normal 0 0 0
 outer loop
 vertex -0.1 -0.00452933 -0.0169037
 vertex -0.1 -0.0068883 -0.0166298
 vertex -0.1 -0.00465874 -0.0173867
 endloop
endfacet
facet normal 0 0 0
 outer loop
 vertex 0.2 -0.00452933 -0.0169037
 vertex 0.2 -0.00465874 -0.0173867
 vertex 0.2 -0.0068883 -0.0166298
 endloop
endfacet
facet normal 0 0 0
 outer loop
 vertex 0.2 -0.00452933 -0.0169037
 vertex 0.2 -0.0068883 -0.0166298
 vertex 0.2 -0.00669696 -0.0161679
 endloop
endfacet
facet normal 0 0 0
 outer loop
 vertex -0.1 -0.00669696 -0.0161679
 vertex -0.1 -0.00875 -0.0151554
 vertex -0.1 -0.009 -0.0155885
 endloop
endfacet
facet normal 0 0 0
 outer loop
 vertex -0.1 -0.00669696 -0.0161679
 vertex -0.1 -0.009 -0.0155885
 vertex -0.1 -0.0068883 -0.0166298
 endloop
endfacet
facet normal 0 0 0
 outer loop
 vertex 0.2 -0.00669696 -0.0161679
 vertex 0.2 -0.0068883 -0.0166298
 vertex 0.2 -0.009 -0.0155885
 endloop
endfacet
facet normal 0 0 0
 outer loop
 vertex 0.2 -0.00669696 -0.0161679
 vertex 0.2 -0.009 -0.0155885
 vertex 0.2 -0.00875 -0.0151554
 endloop
endfacet
facet normal 0 0 0
 outer loop
 vertex -0.1 -0.00875 -0.0151554
 vertex -0.1 -0.0106533 -0.0138837
 vertex -0.1 -0.0109577 -0.0142804
 endloop
endfacet
facet normal 0 0 0
 outer loop
 vertex -0.1 -0.00875 -0.0151554
 vertex -0.1 -0.0109577 -0.0142804
 vertex -0.1 -0.009 -0.0155885
 endloop
endfacet
facet normal 0 0 0
 outer loop
 vertex 0.2 -0.00875 -0.0151554
 vertex 0.2 -0.009 -0.0155885
 vertex 0.2 -0.0109577 -0.0142804
 endloop
endfacet
facet normal 0 0 0
 outer loop
 vertex 0.2 -0.00875 -0.0151554
 vertex 0.2 -0.0109577 -0.0142804
 vertex 0.2 -0.0106533 -0.0138837
 endloop
endfacet
facet normal 0 0 0
 outer loop
 vertex -0.1 -0.0106533 -0.0138837
 vertex -0.1 -0.0123744 -0.0123744
 vertex -0.1 -0.0127279 -0.0127279
 endloop
endfacet
facet normal 0 0 0
 outer loop
 vertex -0.1 -0.0106533 -0.0138837
 vertex -0.1 -0.0127279 -0.0127279
 vertex -0.1 -0.0109577 -0.0142804
 endloop
endfacet
facet normal 0 0 0
 outer loop
 vertex 0.2 -0.0106533 -0.0138837
 vertex 0.2 -0.0109577 -0.0142804
 vertex 0.2 -0.0127279 -0.0127279
 endloop
endfacet
facet normal 0 0 0
 outer loop
 vertex 0.2 -0.0106533 -0.0138837
 vertex 0.2 -0.0127279 -0.0127279
 vertex 0.2 -0.0123744 -0.0123744
 endloop
endfacet
facet normal 0 0 0
 outer loop
 vertex -0.1 -0.0123744 -0.0123744
 vertex -0.1 -0.0138837 -0.0106533
 vertex -0.1 -0.0142804 -0.0109577
 endloop
endfacet
facet normal 0 0 0
 outer loop
 vertex -0.1 -0.0123744 -0.0123744
 vertex -0.1 -0.0142804 -0.0109577
 vertex -0.1 -0.0127279 -0.0127279
 endloop
endfacet
facet normal 0 0 0
 outer loop
 vertex 0.2 -0.0123744 -0.0123744
 vertex 0.2 -0.0127279 -0.0127279
 vertex 0.2 -0.0142804 -0.0109577
 endloop
endfacet
facet normal 0 0 0
 outer loop
 vertex 0.2 -0.0123744 -0.0123744
 vertex 0.2 -0.0142804 -0.0109577
 vertex 0.2 -0.0138837 -0.0106533
 endloop
endfacet
facet normal 0 0 0
 outer loop
 vertex -0.1 -0.0138837 -0.0106533
 vertex -0.1 -0.0151554 -0.00875
 vertex -0.1 -0.0155885 -0.009
 endloop
endfacet
facet normal 0 0 0
 outer loop
 vertex -0.1 -0.0138837 -0.0106533
 vertex -0.1 -0.0155885 -0.009
 vertex -0.1 -0.0142804 -0.0109577
 endloop
endfacet
facet normal 0 0 0
 outer loop
 vertex 0.2 -0.0138837 -0.0106533
 vertex 0.2 -0.0142804 -0.0109577
 vertex 0.2 -0.0155885 -0.009
 endloop
endfacet
facet normal 0 0 0
 outer loop
 vertex 0.2 -0.0138837 -0.0106533
 vertex 0.2 -0.0155885 -0.009
 vertex 0.2 -0.0151554 -0.00875
 endloop
endfacet
facet normal 0 0 0
 outer loop
 vertex -0.1 -0.0151554 -0.00875
 vertex -0.1 -0.0161679 -0.00669696
 vertex -0.1 -0.0166298 -0.0068883
 endloop
endfacet
facet normal 0 0 0
 outer loop
 vertex -0.1 -0.0151554 -0.00875
 vertex -0.1 -0.0166298 -0.0068883
 vertex -0.1 -0.0155885 -0.009
 endloop
endfacet
facet normal 0 0 0
 outer loop
 vertex 0.2 -0.0151554 -0.00875
 vertex 0.2 -0.0155885 -0.009
 vertex 0.2 -0.0166298 -0.0068883
 endloop
endfacet
facet normal 0 0 0
 outer loop
 vertex 0.2 -0.0151554 -0.00875
 vertex 0.2 -0.0166298 -0.0068883
 vertex 0.2 -0.0161679 -0.00669696
 endloop
endfacet
facet normal 0 0 0
 outer loop
 vertex -0.1 -0.0161679 -0.00669696
 vertex -0.1 -0.0169037 -0.00452933
 vertex -0.1 -0.0173867 -0.00465874
 endloop
endfacet
facet normal 0 0 0
 outer loop
 vertex -0.1 -0.0161679 -0.00669696
 vertex -0.1 -0.0173867 -0.00465874
 vertex -0.1 -0.0166298 -0.0068883
 endloop
endfacet
facet normal 0 0 0
 outer loop
 vertex 0.2 -0.0161679 -0.00669696
 vertex 0.2 -0.0166298 -0.0068883
 vertex 0.2 -0.0173867 -0.00465874
 endloop
endfacet
facet normal 0 0 0
 outer loop
 vertex 0.2 -0.0161679 -0.00669696
 vertex 0.2 -0.0173867 -0.00465874
 vertex 0.2 -0.0169037 -0.00452933
 endloop
endfacet
facet normal 0 0 0
 outer loop
 vertex -0.1 -0.0169037 -0.00452933
 vertex -0.1 -0.0173503 -0.00228421
 vertex -0.1 -0.017846 -0.00234947
 endloop
endfacet
facet normal 0 0 0
 outer loop
 vertex -0.1 -0.0169037 -0.00452933
 vertex -0.1 -0.017846 -0.00234947
 vertex -0.1 -0.0173867 -0.00465874
 endloop
endfacet
facet normal 0 0 0
 outer loop
 vertex 0.2 -0.0169037 -0.00452933
 vertex 0.2 -0.0173867 -0.00465874
 vertex 0.2 -0.017846 -0.00234947
 endloop
endfacet
facet normal 0 0 0
 outer loop
 vertex 0.2 -0.0169037 -0.00452933
 vertex 0.2 -0.017846 -0.00234947
 vertex 0.2 -0.0173503 -0.00228421
 endloop
endfacet
facet normal 0 0 0
 outer loop
 vertex -0.1 -0.0173503 -0.00228421
 vertex -0.1 -0.0175 2.08685e-10
 vertex -0.1 -0.018 2.14648e-10
 endloop
endfacet
facet normal 0 0 0
 outer loop
 vertex -0.1 -0.0173503 -0.00228421
 vertex -0.1 -0.018 2.14648e-10
 vertex -0.1 -0.017846 -0.00234947
 endloop
endfacet
facet normal 0 0 0
 outer loop
 vertex 0.2 -0.0173503 -0.00228421
 vertex 0.2 -0.017846 -0.00234947
 vertex 0.2 -0.018 2.14648e-10
 endloop
endfacet
facet normal 0 0 0
 outer loop
 vertex 0.2 -0.0173503 -0.00228421
 vertex 0.2 -0.018 2.14648e-10
 vertex 0.2 -0.0175 2.08685e-10
 endloop
endfacet
facet normal 0 0 0
 outer loop
 vertex -0.1 -0.0175 2.08685e-10
 vertex -0.1 -0.0173503 0.00228421
 vertex -0.1 -0.017846 0.00234948
 endloop
endfacet
facet normal 0 0 0
 outer loop
 vertex -0.1 -0.0175 2.08685e-10
 vertex -0.1 -0.017846 0.00234948
 vertex -0.1 -0.018 2.14648e-10
 endloop
endfacet
facet normal 0 0 0
 outer loop
 vertex 0.2 -0.0175 2.08685e-10
 vertex 0.2 -0.018 2.14648e-10
 vertex 0.2 -0.017846 0.00234948
 endloop
endfacet
facet normal 0 0 0
 outer loop
 vertex 0.2 -0.0175 2.08685e-10
 vertex 0.2 -0.017846 0.00234948
 vertex 0.2 -0.0173503 0.00228421
 endloop
endfacet
facet normal 0 0 0
 outer loop
 vertex -0.1 -0.0173503 0.00228421
 vertex -0.1 -0.0169037 0.00452933
 vertex -0.1 -0.0173867 0.00465874
 endloop
endfacet
facet normal 0 0 0
 outer loop
 vertex -0.1 -0.0173503 0.00228421
 vertex -0.1 -0.0173867 0.00465874
 vertex -0.1 -0.017846 0.00234948
 endloop
endfacet
facet normal 0 0 0
 outer loop
 vertex 0.2 -0.0173503 0.00228421
 vertex 0.2 -0.017846 0.00234948
 vertex 0.2 -0.0173867 0.00465874
 endloop
endfacet
facet normal 0 0 0
 outer loop
 vertex 0.2 -0.0173503 0.00228421
 vertex 0.2 -0.0173867 0.00465874
 vertex 0.2 -0.0169037 0.00452933
 endloop
endfacet
facet normal 0 0 0
 outer loop
 vertex -0.1 -0.0169037 0.00452933
 vertex -0.1 -0.0161679 0.00669696
 vertex -0.1 -0.0166298 0.0068883
 endloop
endfacet
facet normal 0 0 0
 outer loop
 vertex -0.1 -0.0169037 0.00452933
 vertex -0.1 -0.0166298 0.0068883
 vertex -0.1 -0.0173867 0.00465874
 endloop
endfacet
facet normal 0 0 0
 outer loop
 vertex 0.2 -0.0169037 0.00452933
 vertex 0.2 -0.0173867 0.00465874
 vertex 0.2 -0.0166298 0.0068883
 endloop
endfacet
facet normal 0 0 0
 outer loop
 vertex 0.2 -0.0169037 0.00452933
 vertex 0.2 -0.0166298 0.0068883
 vertex 0.2 -0.0161679 0.00669696
 endloop
endfacet
facet normal 0 0 0
 outer loop
 vertex -0.1 -0.0161679 0.00669696
 vertex -0.1 -0.0151554 0.00875
 vertex -0.1 -0.0155885 0.009
 endloop
endfacet
facet normal 0 0 0
 outer loop
 vertex -0.1 -0.0161679 0.00669696
 vertex -0.1 -0.0155885 0.009
 vertex -0.1 -0.0166298 0.0068883
 endloop
endfacet
facet normal 0 0 0
 outer loop
 vertex 0.2 -0.0161679 0.00669696
 vertex 0.2 -0.0166298 0.0068883
 vertex 0.2 -0.0155885 0.009
 endloop
endfacet
facet normal 0 0 0
 outer loop
 vertex 0.2 -0.0161679 0.00669696
 vertex 0.2 -0.0155885 0.009
 vertex 0.2 -0.0151554 0.00875
 endloop
endfacet
facet normal 0 0 0
 outer loop
 vertex -0.1 -0.0151554 0.00875
 vertex -0.1 -0.0138837 0.0106533
 vertex -0.1 -0.0142804 0.0109577
 endloop
endfacet
facet normal 0 0 0
 outer loop
 vertex -0.1 -0.0151554 0.00875
 vertex -0.1 -0.0142804 0.0109577
 vertex -0.1 -0.0155885 0.009
 endloop
endfacet
facet normal 0 0 0
 outer loop
 vertex 0.2 -0.0151554 0.00875
 vertex 0.2 -0.0155885 0.009
 vertex 0.2 -0.0142804 0.0109577
 endloop
endfacet
facet normal 0 0 0
 outer loop
 vertex 0.2 -0.0151554 0.00875
 vertex 0.2 -0.0142804 0.0109577
 vertex 0.2 -0.0138837 0.0106533
 endloop
endfacet
facet normal 0 0 0
 outer loop
 vertex -0.1 -0.0138837 0.0106533
 vertex -0.1 -0.0123744 0.0123744
 vertex -0.1 -0.0127279 0.0127279
 endloop
endfacet
facet normal 0 0 0
 outer loop
 vertex -0.1 -0.0138837 0.0106533
 vertex -0.1 -0.0127279 0.0127279
 vertex -0.1 -0.0142804 0.0109577
 endloop
endfacet
facet normal 0 0 0
 outer loop
 vertex 0.2 -0.0138837 0.0106533
 vertex 0.2 -0.0142804 0.0109577
 vertex 0.2 -0.0127279 0.0127279
 endloop
endfacet
facet normal 0 0 0
 outer loop
 vertex 0.2 -0.0138837 0.0106533
 vertex 0.2 -0.0127279 0.0127279
 vertex 0.2 -0.0123744 0.0123744
 endloop
endfacet
facet normal 0 0 0
 outer loop
 vertex -0.1 -0.0123744 0.0123744
 vertex -0.1 -0.0106533 0.0138837
 vertex -0.1 -0.0109577 0.0142804
 endloop
endfacet
facet normal 0 0 0
 outer loop
 vertex -0.1 -0.0123744 0.0123744
 vertex -0.1 -0.0109577 0.0142804
 vertex -0.1 -0.0127279 0.0127279
 endloop
endfacet
facet normal 0 0 0
 outer loop
 vertex 0.2 -0.0123744 0.0123744
 vertex 0.2 -0.0127279 0.0127279
 vertex 0.2 -0.0109577 0.0142804
 endloop
endfacet
facet normal 0 0 0
 outer loop
 vertex 0.2 -0.0123744 0.0123744
 vertex 0.2 -0.0109577 0.0142804
 vertex 0.2 -0.0106533 0.0138837
 endloop
endfacet
facet normal 0 0 0
 outer loop
 vertex -0.1 -0.0106533 0.0138837
 vertex -0.1 -0.00875 0.0151554
 vertex -0.1 -0.009 0.0155885
 endloop
endfacet
facet normal 0 0 0
 outer loop
 vertex -0.1 -0.0106533 0.0138837
 vertex -0.1 -0.009 0.0155885
 vertex -0.1 -0.0109577 0.0142804
 endloop
endfacet
facet normal 0 0 0
 outer loop
 vertex 0.2 -0.0106533 0.0138837
 vertex 0.2 -0.0109577 0.0142804
 vertex 0.2 -0.009 0.0155885
 endloop
endfacet
facet normal 0 0 0
 outer loop
 vertex 0.2 -0.0106533 0.0138837
 vertex 0.2 -0.009 0.0155885
 vertex 0.2 -0.00875 0.0151554
 endloop
endfacet
facet normal 0 0 0
 outer loop
 vertex -0.1 -0.00875 0.0151554
 vertex -0.1 -0.00669696 0.0161679
 vertex -0.1 -0.0068883 0.0166298
 endloop
endfacet
facet normal 0 0 0
 outer loop
 vertex -0.1 -0.00875 0.0151554
 vertex -0.1 -0.0068883 0.0166298
 vertex -0.1 -0.009 0.0155885
 endloop
endfacet
facet normal 0 0 0
 outer loop
 vertex 0.2 -0.00875 0.0151554
 vertex 0.2 -0.009 0.0155885
 vertex 0.2 -0.0068883 0.0166298
 endloop
endfacet
facet normal 0 0 0
 outer loop
 vertex 0.2 -0.00875 0.0151554
 vertex 0.2 -0.0068883 0.0166298
 vertex 0.2 -0.00669696 0.0161679
 endloop
endfacet
facet normal 0 0 0
 outer loop
 vertex -0.1 -0.00669696 0.0161679
 vertex -0.1 -0.00452933 0.0169037
 vertex -0.1 -0.00465874 0.0173867
 endloop
endfacet
facet normal 0 0 0
 outer loop
 vertex -0.1 -0.00669696 0.0161679
 vertex -0.1 -0.00465874 0.0173867
 vertex -0.1 -0.0068883 0.0166298
 endloop
endfacet
facet normal 0 0 0
 outer loop
 vertex 0.2 -0.00669696 0.0161679
 vertex 0.2 -0.0068883 0.0166298
 vertex 0.2 -0.00465874 0.0173867
 endloop
endfacet
facet normal 0 0 0
 outer loop
 vertex 0.2 -0.00669696 0.0161679
 vertex 0.2 -0.00465874 0.0173867
 vertex 0.2 -0.00452933 0.0169037
 endloop
endfacet
facet normal 0 0 0
 outer loop
 vertex -0.1 -0.00452933 0.0169037
 vertex -0.1 -0.00228421 0.0173503
 vertex -0.1 -0.00234947 0.017846
 endloop
endfacet
facet normal 0 0 0
 outer loop
 vertex -0.1 -0.00452933 0.0169037
 vertex -0.1 -0.00234947 0.017846
 vertex -0.1 -0.00465874 0.0173867
 endloop
endfacet
facet normal 0 0 0
 outer loop
 vertex 0.2 -0.00452933 0.0169037
 vertex 0.2 -0.00465874 0.0173867
 vertex 0.2 -0.00234947 0.017846
 endloop
endfacet
facet normal 0 0 0
 outer loop
 vertex 0.2 -0.00452933 0.0169037
 vertex 0.2 -0.00234947 0.017846
 vertex 0.2 -0.00228421 0.0173503
 endloop
endfacet
facet normal 0 0 0
 outer loop
 vertex -0.1 -0.00228421 0.0173503
 vertex -0.1 3.0598e-09 0.0175
 vertex -0.1 3.14722e-09 0.018
 endloop
endfacet
facet normal 0 0 0
 outer loop
 vertex -0.1 -0.00228421 0.0173503
 vertex -0.1 3.14722e-09 0.018
 vertex -0.1 -0.00234947 0.017846
 endloop
endfacet
facet normal 0 0 0
 outer loop
 vertex 0.2 -0.00228421 0.0173503
 vertex 0.2 -0.00234947 0.017846
 vertex 0.2 3.14722e-09 0.018
 endloop
endfacet
facet normal 0 0 0
 outer loop
 vertex 0.2 -0.00228421 0.0173503
 vertex 0.2 3.14722e-09 0.018
 vertex 0.2 3.0598e-09 0.0175
 endloop
endfacet
endsolid bandage
