solid ybco_tiles
facet normal 0 0 0
 outer loop
 vertex -0.075 -0.01 0.0205
 vertex -0.045 -0.01 0.0205
 vertex -0.045 0.01 0.0205
 endloop
endfacet
facet normal 0 0 0
 outer loop
 vertex -0.075 -0.01 0.0205
 vertex -0.045 0.01 0.0205
 vertex -0.075 0.01 0.0205
 endloop
endfacet
facet normal 0 0 0
 outer loop
 vertex -0.075 -0.01 0.0245
 vertex -0.045 0.01 0.0245
 vertex -0.045 -0.01 0.0245
 endloop
endfacet
facet normal 0 0 0
 outer loop
 vertex -0.075 -0.01 0.0245
 vertex -0.075 0.01 0.0245
 vertex -0.045 0.01 0.0245
 endloop
endfacet
facet normal 0 0 0
 outer loop
 vertex -0.075 -0.01 0.0205
 vertex -0.075 0.01 0.0205
 vertex -0.075 0.01 0.0245
 endloop
endfacet
facet normal 0 0 0
 outer loop
 vertex -0.075 -0.01 0.0205
 vertex -0.075 0.01 0.0245
 vertex -0.075 -0.01 0.0245
 endloop
endfacet
facet normal 0 0 0
 outer loop
 vertex -0.045 -0.01 0.0205
 vertex -0.045 -0.01 0.0245
 vertex -0.045 0.01 0.0245
 endloop
endfacet
facet normal 0 0 0
 outer loop
 vertex -0.045 -0.01 0.0205
 vertex -0.045 0.01 0.0245
 vertex -0.045 0.01 0.0205
 endloop
endfacet
facet normal 0 0 0
 outer loop
 vertex -0.075 -0.01 0.0205
 vertex -0.075 -0.01 0.0245
 vertex -0.045 -0.01 0.0245
 endloop
endfacet
facet normal 0 0 0
 outer loop
 vertex -0.075 -0.01 0.0205
 vertex -0.045 -0.01 0.0245
 vertex -0.045 -0.01 0.0205
 endloop
endfacet
facet normal 0 0 0
 outer loop
 vertex -0.075 0.01 0.0205
 vertex -0.045 0.01 0.0205
 vertex -0.045 0.01 0.0245
 endloop
endfacet
facet normal 0 0 0
 outer loop
 vertex -0.075 0.01 0.0205
 vertex -0.045 0.01 0.0245
 vertex -0.075 0.01 0.0245
 endloop
endfacet
facet normal 0 0 0
 outer loop
 vertex -0.075 -0.01 0.0175
 vertex -0.045 -0.01 0.0175
 vertex -0.045 0.01 0.0175
 endloop
endfacet
facet normal 0 0 0
 outer loop
 vertex -0.075 -0.01 0.0175
 vertex -0.045 0.01 0.0175
 vertex -0.075 0.01 0.0175
 endloop
endfacet
facet normal 0 0 0
 outer loop
 vertex -0.075 -0.01 0.0275
 vertex -0.045 0.01 0.0275
 vertex -0.045 -0.01 0.0275
 endloop
endfacet
facet normal 0 0 0
 outer loop
 vertex -0.075 -0.01 0.0275
 vertex -0.075 0.01 0.0275
 vertex -0.045 0.01 0.0275
 endloop
endfacet
facet normal 0 0 0
 outer loop
 vertex -0.075 -0.01 0.0175
 vertex -0.075 0.01 0.0175
 vertex -0.075 0.01 0.0275
 endloop
endfacet
facet normal 0 0 0
 outer loop
 vertex -0.075 -0.01 0.0175
 vertex -0.075 0.01 0.0275
 vertex -0.075 -0.01 0.0275
 endloop
endfacet
facet normal 0 0 0
 outer loop
 vertex -0.045 -0.01 0.0175
 vertex -0.045 -0.01 0.0275
 vertex -0.045 0.01 0.0275
 endloop
endfacet
facet normal 0 0 0
 outer loop
 vertex -0.045 -0.01 0.0175
 vertex -0.045 0.01 0.0275
 vertex -0.045 0.01 0.0175
 endloop
endfacet
facet normal 0 0 0
 outer loop
 vertex -0.075 -0.01 0.0175
 vertex -0.075 -0.01 0.0275
 vertex -0.045 -0.01 0.0275
 endloop
endfacet
facet normal 0 0 0
 outer loop
 vertex -0.075 -0.01 0.0175
 vertex -0.045 -0.01 0.0275
 vertex -0.045 -0.01 0.0175
 endloop
endfacet
facet normal 0 0 0
 outer loop
 vertex -0.075 0.01 0.0175
 vertex -0.045 0.01 0.0175
 vertex -0.045 0.01 0.0275
 endloop
endfacet
facet normal 0 0 0
 outer loop
 vertex -0.075 0.01 0.0175
 vertex -0.045 0.01 0.0275
 vertex -0.075 0.01 0.0275
 endloop
endfacet
facet normal 0 0 0
 outer loop
 vertex -0.075 0.0125 -0.002
 vertex -0.045 0.0125 -0.002
 vertex -0.045 0.0325 -0.002
 endloop
endfacet
facet normal 0 0 0
 outer loop
 vertex -0.075 0.0125 -0.002
 vertex -0.045 0.0325 -0.002
 vertex -0.075 0.0325 -0.002
 endloop
endfacet
facet normal 0 0 0
 outer loop
 vertex -0.075 0.0125 0.002
 vertex -0.045 0.0325 0.002
 vertex -0.045 0.0125 0.002
 endloop
endfacet
facet normal 0 0 0
 outer loop
 vertex -0.075 0.0125 0.002
 vertex -0.075 0.0325 0.002
 vertex -0.045 0.0325 0.002
 endloop
endfacet
facet normal 0 0 0
 outer loop
 vertex -0.075 0.0125 -0.002
 vertex -0.075 0.0325 -0.002
 vertex -0.075 0.0325 0.002
 endloop
endfacet
facet normal 0 0 0
 outer loop
 vertex -0.075 0.0125 -0.002
 vertex -0.075 0.0325 0.002
 vertex -0.075 0.0125 0.002
 endloop
endfacet
facet normal 0 0 0
 outer loop
 vertex -0.045 0.0125 -0.002
 vertex -0.045 0.0125 0.002
 vertex -0.045 0.0325 0.002
 endloop
endfacet
facet normal 0 0 0
 outer loop
 vertex -0.045 0.0125 -0.002
 vertex -0.045 0.0325 0.002
 vertex -0.045 0.0325 -0.002
 endloop
endfacet
facet normal 0 0 0
 outer loop
 vertex -0.075 0.0125 -0.002
 vertex -0.075 0.0125 0.002
 vertex -0.045 0.0125 0.002
 endloop
endfacet
facet normal 0 0 0
 outer loop
 vertex -0.075 0.0125 -0.002
 vertex -0.045 0.0125 0.002
 vertex -0.045 0.0125 -0.002
 endloop
endfacet
facet normal 0 0 0
 outer loop
 vertex -0.075 0.0325 -0.002
 vertex -0.045 0.0325 -0.002
 vertex -0.045 0.0325 0.002
 endloop
endfacet
facet normal 0 0 0
 outer loop
 vertex -0.075 0.0325 -0.002
 vertex -0.045 0.0325 0.002
 vertex -0.075 0.0325 0.002
 endloop
endfacet
facet normal 0 0 0
 outer loop
 vertex -0.075 0.0125 -0.005
 vertex -0.045 0.0125 -0.005
 vertex -0.045 0.0325 -0.005
 endloop
endfacet
facet normal 0 0 0
 outer loop
 vertex -0.075 0.0125 -0.005
 vertex -0.045 0.0325 -0.005
 vertex -0.075 0.0325 -0.005
 endloop
endfacet
facet normal 0 0 0
 outer loop
 vertex -0.075 0.0125 0.005
 vertex -0.045 0.0325 0.005
 vertex -0.045 0.0125 0.005
 endloop
endfacet
facet normal 0 0 0
 outer loop
 vertex -0.075 0.0125 0.005
 vertex -0.075 0.0325 0.005
 vertex -0.045 0.0325 0.005
 endloop
endfacet
facet normal 0 0 0
 outer loop
 vertex -0.075 0.0125 -0.005
 vertex -0.075 0.0325 -0.005
 vertex -0.075 0.0325 0.005
 endloop
endfacet
facet normal 0 0 0
 outer loop
 vertex -0.075 0.0125 -0.005
 vertex -0.075 0.0325 0.005
 vertex -0.075 0.0125 0.005
 endloop
endfacet
facet normal 0 0 0
 outer loop
 vertex -0.045 0.0125 -0.005
 vertex -0.045 0.0125 0.005
 vertex -0.045 0.0325 0.005
 endloop
endfacet
facet normal 0 0 0
 outer loop
 vertex -0.045 0.0125 -0.005
 vertex -0.045 0.0325 0.005
 vertex -0.045 0.0325 -0.005
 endloop
endfacet
facet normal 0 0 0
 outer loop
 vertex -0.075 0.0125 -0.005
 vertex -0.075 0.0125 0.005
 vertex -0.045 0.0125 0.005
 endloop
endfacet
facet normal 0 0 0
 outer loop
 vertex -0.075 0.0125 -0.005
 vertex -0.045 0.0125 0.005
 vertex -0.045 0.0125 -0.005
 endloop
endfacet
facet normal 0 0 0
 outer loop
 vertex -0.075 0.0325 -0.005
 vertex -0.045 0.0325 -0.005
 vertex -0.045 0.0325 0.005
 endloop
endfacet
facet normal 0 0 0
 outer loop
 vertex -0.075 0.0325 -0.005
 vertex -0.045 0.0325 0.005
 vertex -0.075 0.0325 0.005
 endloop
endfacet
facet normal 0 0 0
 outer loop
 vertex -0.075 -0.01 -0.0245
 vertex -0.045 -0.01 -0.0245
 vertex -0.045 0.01 -0.0245
 endloop
endfacet
facet normal 0 0 0
 outer loop
 vertex -0.075 -0.01 -0.0245
 vertex -0.045 0.01 -0.0245
 vertex -0.075 0.01 -0.0245
 endloop
endfacet
facet normal 0 0 0
 outer loop
 vertex -0.075 -0.01 -0.0205
 vertex -0.045 0.01 -0.0205
 vertex -0.045 -0.01 -0.0205
 endloop
endfacet
facet normal 0 0 0
 outer loop
 vertex -0.075 -0.01 -0.0205
 vertex -0.075 0.01 -0.0205
 vertex -0.045 0.01 -0.0205
 endloop
endfacet
facet normal 0 0 0
 outer loop
 vertex -0.075 -0.01 -0.0245
 vertex -0.075 0.01 -0.0245
 vertex -0.075 0.01 -0.0205
 endloop
endfacet
facet normal 0 0 0
 outer loop
 vertex -0.075 -0.01 -0.0245
 vertex -0.075 0.01 -0.0205
 vertex -0.075 -0.01 -0.0205
 endloop
endfacet
facet normal 0 0 0
 outer loop
 vertex -0.045 -0.01 -0.0245
 vertex -0.045 -0.01 -0.0205
 vertex -0.045 0.01 -0.0205
 endloop
endfacet
facet normal 0 0 0
 outer loop
 vertex -0.045 -0.01 -0.0245
 vertex -0.045 0.01 -0.0205
 vertex -0.045 0.01 -0.0245
 endloop
endfacet
facet normal 0 0 0
 outer loop
 vertex -0.075 -0.01 -0.0245
 vertex -0.075 -0.01 -0.0205
 vertex -0.045 -0.01 -0.0205
 endloop
endfacet
facet normal 0 0 0
 outer loop
 vertex -0.075 -0.01 -0.0245
 vertex -0.045 -0.01 -0.0205
 vertex -0.045 -0.01 -0.0245
 endloop
endfacet
facet normal 0 0 0
 outer loop
 vertex -0.075 0.01 -0.0245
 vertex -0.045 0.01 -0.0245
 vertex -0.045 0.01 -0.0205
 endloop
endfacet
facet normal 0 0 0
 outer loop
 vertex -0.075 0.01 -0.0245
 vertex -0.045 0.01 -0.0205
 vertex -0.075 0.01 -0.0205
 endloop
endfacet
facet normal 0 0 0
 outer loop
 vertex -0.075 -0.01 -0.0275
 vertex -0.045 -0.01 -0.0275
 vertex -0.045 0.01 -0.0275
 endloop
endfacet
facet normal 0 0 0
 outer loop
 vertex -0.075 -0.01 -0.0275
 vertex -0.045 0.01 -0.0275
 vertex -0.075 0.01 -0.0275
 endloop
endfacet
facet normal 0 0 0
 outer loop
 vertex -0.075 -0.01 -0.0175
 vertex -0.045 0.01 -0.0175
 vertex -0.045 -0.01 -0.0175
 endloop
endfacet
facet normal 0 0 0
 outer loop
 vertex -0.075 -0.01 -0.0175
 vertex -0.075 0.01 -0.0175
 vertex -0.045 0.01 -0.0175
 endloop
endfacet
facet normal 0 0 0
 outer loop
 vertex -0.075 -0.01 -0.0275
 vertex -0.075 0.01 -0.0275
 vertex -0.075 0.01 -0.0175
 endloop
endfacet
facet normal 0 0 0
 outer loop
 vertex -0.075 -0.01 -0.0275
 vertex -0.075 0.01 -0.0175
 vertex -0.075 -0.01 -0.0175
 endloop
endfacet
facet normal 0 0 0
 outer loop
 vertex -0.045 -0.01 -0.0275
 vertex -0.045 -0.01 -0.0175
 vertex -0.045 0.01 -0.0175
 endloop
endfacet
facet normal 0 0 0
 outer loop
 vertex -0.045 -0.01 -0.0275
 vertex -0.045 0.01 -0.0175
 vertex -0.045 0.01 -0.0275
 endloop
endfacet
facet normal 0 0 0
 outer loop
 vertex -0.075 -0.01 -0.0275
 vertex -0.075 -0.01 -0.0175
 vertex -0.045 -0.01 -0.0175
 endloop
endfacet
facet normal 0 0 0
 outer loop
 vertex -0.075 -0.01 -0.0275
 vertex -0.045 -0.01 -0.0175
 vertex -0.045 -0.01 -0.0275
 endloop
endfacet
facet normal 0 0 0
 outer loop
 vertex -0.075 0.01 -0.0275
 vertex -0.045 0.01 -0.0275
 vertex -0.045 0.01 -0.0175
 endloop
endfacet
facet normal 0 0 0
 outer loop
 vertex -0.075 0.01 -0.0275
 vertex -0.045 0.01 -0.0175
 vertex -0.075 0.01 -0.0175
 endloop
endfacet
facet normal 0 0 0
 outer loop
 vertex -0.075 -0.0325 -0.002
 vertex -0.045 -0.0325 -0.002
 vertex -0.045 -0.0125 -0.002
 endloop
endfacet
facet normal 0 0 0
 outer loop
 vertex -0.075 -0.0325 -0.002
 vertex -0.045 -0.0125 -0.002
 vertex -0.075 -0.0125 -0.002
 endloop
endfacet
facet normal 0 0 0
 outer loop
 vertex -0.075 -0.0325 0.002
 vertex -0.045 -0.0125 0.002
 vertex -0.045 -0.0325 0.002
 endloop
endfacet
facet normal 0 0 0
 outer loop
 vertex -0.075 -0.0325 0.002
 vertex -0.075 -0.0125 0.002
 vertex -0.045 -0.0125 0.002
 endloop
endfacet
facet normal 0 0 0
 outer loop
 vertex -0.075 -0.0325 -0.002
 vertex -0.075 -0.0125 -0.002
 vertex -0.075 -0.0125 0.002
 endloop
endfacet
facet normal 0 0 0
 outer loop
 vertex -0.075 -0.0325 -0.002
 vertex -0.075 -0.0125 0.002
 vertex -0.075 -0.0325 0.002
 endloop
endfacet
facet normal 0 0 0
 outer loop
 vertex -0.045 -0.0325 -0.002
 vertex -0.045 -0.0325 0.002
 vertex -0.045 -0.0125 0.002
 endloop
endfacet
facet normal 0 0 0
 outer loop
 vertex -0.045 -0.0325 -0.002
 vertex -0.045 -0.0125 0.002
 vertex -0.045 -0.0125 -0.002
 endloop
endfacet
facet normal 0 0 0
 outer loop
 vertex -0.075 -0.0325 -0.002
 vertex -0.075 -0.0325 0.002
 vertex -0.045 -0.0325 0.002
 endloop
endfacet
facet normal 0 0 0
 outer loop
 vertex -0.075 -0.0325 -0.002
 vertex -0.045 -0.0325 0.002
 vertex -0.045 -0.0325 -0.002
 endloop
endfacet
facet normal 0 0 0
 outer loop
 vertex -0.075 -0.0125 -0.002
 vertex -0.045 -0.0125 -0.002
 vertex -0.045 -0.0125 0.002
 endloop
endfacet
facet normal 0 0 0
 outer loop
 vertex -0.075 -0.0125 -0.002
 vertex -0.045 -0.0125 0.002
 vertex -0.075 -0.0125 0.002
 endloop
endfacet
facet normal 0 0 0
 outer loop
 vertex -0.075 -0.0325 -0.005
 vertex -0.045 -0.0325 -0.005
 vertex -0.045 -0.0125 -0.005
 endloop
endfacet
facet normal 0 0 0
 outer loop
 vertex -0.075 -0.0325 -0.005
 vertex -0.045 -0.0125 -0.005
 vertex -0.075 -0.0125 -0.005
 endloop
endfacet
facet normal 0 0 0
 outer loop
 vertex -0.075 -0.0325 0.005
 vertex -0.045 -0.0125 0.005
 vertex -0.045 -0.0325 0.005
 endloop
endfacet
facet normal 0 0 0
 outer loop
 vertex -0.075 -0.0325 0.005
 vertex -0.075 -0.0125 0.005
 vertex -0.045 -0.0125 0.005
 endloop
endfacet
facet normal 0 0 0
 outer loop
 vertex -0.075 -0.0325 -0.005
 vertex -0.075 -0.0125 -0.005
 vertex -0.075 -0.0125 0.005
 endloop
endfacet
facet normal 0 0 0
 outer loop
 vertex -0.075 -0.0325 -0.005
 vertex -0.075 -0.0125 0.005
 vertex -0.075 -0.0325 0.005
 endloop
endfacet
facet normal 0 0 0
 outer loop
 vertex -0.045 -0.0325 -0.005
 vertex -0.045 -0.0325 0.005
 vertex -0.045 -0.0125 0.005
 endloop
endfacet
facet normal 0 0 0
 outer loop
 vertex -0.045 -0.0325 -0.005
 vertex -0.045 -0.0125 0.005
 vertex -0.045 -0.0125 -0.005
 endloop
endfacet
facet normal 0 0 0
 outer loop
 vertex -0.075 -0.0325 -0.005
 vertex -0.075 -0.0325 0.005
 vertex -0.045 -0.0325 0.005
 endloop
endfacet
facet normal 0 0 0
 outer loop
 vertex -0.075 -0.0325 -0.005
 vertex -0.045 -0.0325 0.005
 vertex -0.045 -0.0325 -0.005
 endloop
endfacet
facet normal 0 0 0
 outer loop
 vertex -0.075 -0.0125 -0.005
 vertex -0.045 -0.0125 -0.005
 vertex -0.045 -0.0125 0.005
 endloop
endfacet
facet normal 0 0 0
 outer loop
 vertex -0.075 -0.0125 -0.005
 vertex -0.045 -0.0125 0.005
 vertex -0.075 -0.0125 0.005
 endloop
endfacet
facet normal 0 0 0
 outer loop
 vertex -0.015 -0.01 0.0205
 vertex 0.015 -0.01 0.0205
 vertex 0.015 0.01 0.0205
 endloop
endfacet
facet normal 0 0 0
 outer loop
 vertex -0.015 -0.01 0.0205
 vertex 0.015 0.01 0.0205
 vertex -0.015 0.01 0.0205
 endloop
endfacet
facet normal 0 0 0
 outer loop
 vertex -0.015 -0.01 0.0245
 vertex 0.015 0.01 0.0245
 vertex 0.015 -0.01 0.0245
 endloop
endfacet
facet normal 0 0 0
 outer loop
 vertex -0.015 -0.01 0.0245
 vertex -0.015 0.01 0.0245
 vertex 0.015 0.01 0.0245
 endloop
endfacet
facet normal 0 0 0
 outer loop
 vertex -0.015 -0.01 0.0205
 vertex -0.015 0.01 0.0205
 vertex -0.015 0.01 0.0245
 endloop
endfacet
facet normal 0 0 0
 outer loop
 vertex -0.015 -0.01 0.0205
 vertex -0.015 0.01 0.0245
 vertex -0.015 -0.01 0.0245
 endloop
endfacet
facet normal 0 0 0
 outer loop
 vertex 0.015 -0.01 0.0205
 vertex 0.015 -0.01 0.0245
 vertex 0.015 0.01 0.0245
 endloop
endfacet
facet normal 0 0 0
 outer loop
 vertex 0.015 -0.01 0.0205
 vertex 0.015 0.01 0.0245
 vertex 0.015 0.01 0.0205
 endloop
endfacet
facet normal 0 0 0
 outer loop
 vertex -0.015 -0.01 0.0205
 vertex -0.015 -0.01 0.0245
 vertex 0.015 -0.01 0.0245
 endloop
endfacet
facet normal 0 0 0
 outer loop
 vertex -0.015 -0.01 0.0205
 vertex 0.015 -0.01 0.0245
 vertex 0.015 -0.01 0.0205
 endloop
endfacet
facet normal 0 0 0
 outer loop
 vertex -0.015 0.01 0.0205
 vertex 0.015 0.01 0.0205
 vertex 0.015 0.01 0.0245
 endloop
endfacet
facet normal 0 0 0
 outer loop
 vertex -0.015 0.01 0.0205
 vertex 0.015 0.01 0.0245
 vertex -0.015 0.01 0.0245
 endloop
endfacet
facet normal 0 0 0
 outer loop
 vertex -0.015 -0.01 0.0175
 vertex 0.015 -0.01 0.0175
 vertex 0.015 0.01 0.0175
 endloop
endfacet
facet normal 0 0 0
 outer loop
 vertex -0.015 -0.01 0.0175
 vertex 0.015 0.01 0.0175
 vertex -0.015 0.01 0.0175
 endloop
endfacet
facet normal 0 0 0
 outer loop
 vertex -0.015 -0.01 0.0275
 vertex 0.015 0.01 0.0275
 vertex 0.015 -0.01 0.0275
 endloop
endfacet
facet normal 0 0 0
 outer loop
 vertex -0.015 -0.01 0.0275
 vertex -0.015 0.01 0.0275
 vertex 0.015 0.01 0.0275
 endloop
endfacet
facet normal 0 0 0
 outer loop
 vertex -0.015 -0.01 0.0175
 vertex -0.015 0.01 0.0175
 vertex -0.015 0.01 0.0275
 endloop
endfacet
facet normal 0 0 0
 outer loop
 vertex -0.015 -0.01 0.0175
 vertex -0.015 0.01 0.0275
 vertex -0.015 -0.01 0.0275
 endloop
endfacet
facet normal 0 0 0
 outer loop
 vertex 0.015 -0.01 0.0175
 vertex 0.015 -0.01 0.0275
 vertex 0.015 0.01 0.0275
 endloop
endfacet
facet normal 0 0 0
 outer loop
 vertex 0.015 -0.01 0.0175
 vertex 0.015 0.01 0.0275
 vertex 0.015 0.01 0.0175
 endloop
endfacet
facet normal 0 0 0
 outer loop
 vertex -0.015 -0.01 0.0175
 vertex -0.015 -0.01 0.0275
 vertex 0.015 -0.01 0.0275
 endloop
endfacet
facet normal 0 0 0
 outer loop
 vertex -0.015 -0.01 0.0175
 vertex 0.015 -0.01 0.0275
 vertex 0.015 -0.01 0.0175
 endloop
endfacet
facet normal 0 0 0
 outer loop
 vertex -0.015 0.01 0.0175
 vertex 0.015 0.01 0.0175
 vertex 0.015 0.01 0.0275
 endloop
endfacet
facet normal 0 0 0
 outer loop
 vertex -0.015 0.01 0.0175
 vertex 0.015 0.01 0.0275
 vertex -0.015 0.01 0.0275
 endloop
endfacet
facet normal 0 0 0
 outer loop
 vertex -0.015 0.0125 -0.002
 vertex 0.015 0.0125 -0.002
 vertex 0.015 0.0325 -0.002
 endloop
endfacet
facet normal 0 0 0
 outer loop
 vertex -0.015 0.0125 -0.002
 vertex 0.015 0.0325 -0.002
 vertex -0.015 0.0325 -0.002
 endloop
endfacet
facet normal 0 0 0
 outer loop
 vertex -0.015 0.0125 0.002
 vertex 0.015 0.0325 0.002
 vertex 0.015 0.0125 0.002
 endloop
endfacet
facet normal 0 0 0
 outer loop
 vertex -0.015 0.0125 0.002
 vertex -0.015 0.0325 0.002
 vertex 0.015 0.0325 0.002
 endloop
endfacet
facet normal 0 0 0
 outer loop
 vertex -0.015 0.0125 -0.002
 vertex -0.015 0.0325 -0.002
 vertex -0.015 0.0325 0.002
 endloop
endfacet
facet normal 0 0 0
 outer loop
 vertex -0.015 0.0125 -0.002
 vertex -0.015 0.0325 0.002
 vertex -0.015 0.0125 0.002
 endloop
endfacet
facet normal 0 0 0
 outer loop
 vertex 0.015 0.0125 -0.002
 vertex 0.015 0.0125 0.002
 vertex 0.015 0.0325 0.002
 endloop
endfacet
facet normal 0 0 0
 outer loop
 vertex 0.015 0.0125 -0.002
 vertex 0.015 0.0325 0.002
 vertex 0.015 0.0325 -0.002
 endloop
endfacet
facet normal 0 0 0
 outer loop
 vertex -0.015 0.0125 -0.002
 vertex -0.015 0.0125 0.002
 vertex 0.015 0.0125 0.002
 endloop
endfacet
facet normal 0 0 0
 outer loop
 vertex -0.015 0.0125 -0.002
 vertex 0.015 0.0125 0.002
 vertex 0.015 0.0125 -0.002
 endloop
endfacet
facet normal 0 0 0
 outer loop
 vertex -0.015 0.0325 -0.002
 vertex 0.015 0.0325 -0.002
 vertex 0.015 0.0325 0.002
 endloop
endfacet
facet normal 0 0 0
 outer loop
 vertex -0.015 0.0325 -0.002
 vertex 0.015 0.0325 0.002
 vertex -0.015 0.0325 0.002
 endloop
endfacet
facet normal 0 0 0
 outer loop
 vertex -0.015 0.0125 -0.005
 vertex 0.015 0.0125 -0.005
 vertex 0.015 0.0325 -0.005
 endloop
endfacet
facet normal 0 0 0
 outer loop
 vertex -0.015 0.0125 -0.005
 vertex 0.015 0.0325 -0.005
 vertex -0.015 0.0325 -0.005
 endloop
endfacet
facet normal 0 0 0
 outer loop
 vertex -0.015 0.0125 0.005
 vertex 0.015 0.0325 0.005
 vertex 0.015 0.0125 0.005
 endloop
endfacet
facet normal 0 0 0
 outer loop
 vertex -0.015 0.0125 0.005
 vertex -0.015 0.0325 0.005
 vertex 0.015 0.0325 0.005
 endloop
endfacet
facet normal 0 0 0
 outer loop
 vertex -0.015 0.0125 -0.005
 vertex -0.015 0.0325 -0.005
 vertex -0.015 0.0325 0.005
 endloop
endfacet
facet normal 0 0 0
 outer loop
 vertex -0.015 0.0125 -0.005
 vertex -0.015 0.0325 0.005
 vertex -0.015 0.0125 0.005
 endloop
endfacet
facet normal 0 0 0
 outer loop
 vertex 0.015 0.0125 -0.005
 vertex 0.015 0.0125 0.005
 vertex 0.015 0.0325 0.005
 endloop
endfacet
facet normal 0 0 0
 outer loop
 vertex 0.015 0.0125 -0.005
 vertex 0.015 0.0325 0.005
 vertex 0.015 0.0325 -0.005
 endloop
endfacet
facet normal 0 0 0
 outer loop
 vertex -0.015 0.0125 -0.005
 vertex -0.015 0.0125 0.005
 vertex 0.015 0.0125 0.005
 endloop
endfacet
facet normal 0 0 0
 outer loop
 vertex -0.015 0.0125 -0.005
 vertex 0.015 0.0125 0.005
 vertex 0.015 0.0125 -0.005
 endloop
endfacet
facet normal 0 0 0
 outer loop
 vertex -0.015 0.0325 -0.005
 vertex 0.015 0.0325 -0.005
 vertex 0.015 0.0325 0.005
 endloop
endfacet
facet normal 0 0 0
 outer loop
 vertex -0.015 0.0325 -0.005
 vertex 0.015 0.0325 0.005
 vertex -0.015 0.0325 0.005
 endloop
endfacet
facet normal 0 0 0
 outer loop
 vertex -0.015 -0.01 -0.0245
 vertex 0.015 -0.01 -0.0245
 vertex 0.015 0.01 -0.0245
 endloop
endfacet
facet normal 0 0 0
 outer loop
 vertex -0.015 -0.01 -0.0245
 vertex 0.015 0.01 -0.0245
 vertex -0.015 0.01 -0.0245
 endloop
endfacet
facet normal 0 0 0
 outer loop
 vertex -0.015 -0.01 -0.0205
 vertex 0.015 0.01 -0.0205
 vertex 0.015 -0.01 -0.0205
 endloop
endfacet
facet normal 0 0 0
 outer loop
 vertex -0.015 -0.01 -0.0205
 vertex -0.015 0.01 -0.0205
 vertex 0.015 0.01 -0.0205
 endloop
endfacet
facet normal 0 0 0
 outer loop
 vertex -0.015 -0.01 -0.0245
 vertex -0.015 0.01 -0.0245
 vertex -0.015 0.01 -0.0205
 endloop
endfacet
facet normal 0 0 0
 outer loop
 vertex -0.015 -0.01 -0.0245
 vertex -0.015 0.01 -0.0205
 vertex -0.015 -0.01 -0.0205
 endloop
endfacet
facet normal 0 0 0
 outer loop
 vertex 0.015 -0.01 -0.0245
 vertex 0.015 -0.01 -0.0205
 vertex 0.015 0.01 -0.0205
 endloop
endfacet
facet normal 0 0 0
 outer loop
 vertex 0.015 -0.01 -0.0245
 vertex 0.015 0.01 -0.0205
 vertex 0.015 0.01 -0.0245
 endloop
endfacet
facet normal 0 0 0
 outer loop
 vertex -0.015 -0.01 -0.0245
 vertex -0.015 -0.01 -0.0205
 vertex 0.015 -0.01 -0.0205
 endloop
endfacet
facet normal 0 0 0
 outer loop
 vertex -0.015 -0.01 -0.0245
 vertex 0.015 -0.01 -0.0205
 vertex 0.015 -0.01 -0.0245
 endloop
endfacet
facet normal 0 0 0
 outer loop
 vertex -0.015 0.01 -0.0245
 vertex 0.015 0.01 -0.0245
 vertex 0.015 0.01 -0.0205
 endloop
endfacet
facet normal 0 0 0
 outer loop
 vertex -0.015 0.01 -0.0245
 vertex 0.015 0.01 -0.0205
 vertex -0.015 0.01 -0.0205
 endloop
endfacet
facet normal 0 0 0
 outer loop
 vertex -0.015 -0.01 -0.0275
 vertex 0.015 -0.01 -0.0275
 vertex 0.015 0.01 -0.0275
 endloop
endfacet
facet normal 0 0 0
 outer loop
 vertex -0.015 -0.01 -0.0275
 vertex 0.015 0.01 -0.0275
 vertex -0.015 0.01 -0.0275
 endloop
endfacet
facet normal 0 0 0
 outer loop
 vertex -0.015 -0.01 -0.0175
 vertex 0.015 0.01 -0.0175
 vertex 0.015 -0.01 -0.0175
 endloop
endfacet
facet normal 0 0 0
 outer loop
 vertex -0.015 -0.01 -0.0175
 vertex -0.015 0.01 -0.0175
 vertex 0.015 0.01 -0.0175
 endloop
endfacet
facet normal 0 0 0
 outer loop
 vertex -0.015 -0.01 -0.0275
 vertex -0.015 0.01 -0.0275
 vertex -0.015 0.01 -0.0175
 endloop
endfacet
facet normal 0 0 0
 outer loop
 vertex -0.015 -0.01 -0.0275
 vertex -0.015 0.01 -0.0175
 vertex -0.015 -0.01 -0.0175
 endloop
endfacet
facet normal 0 0 0
 outer loop
 vertex 0.015 -0.01 -0.0275
 vertex 0.015 -0.01 -0.0175
 vertex 0.015 0.01 -0.0175
 endloop
endfacet
facet normal 0 0 0
 outer loop
 vertex 0.015 -0.01 -0.0275
 vertex 0.015 0.01 -0.0175
 vertex 0.015 0.01 -0.0275
 endloop
endfacet
facet normal 0 0 0
 outer loop
 vertex -0.015 -0.01 -0.0275
 vertex -0.015 -0.01 -0.0175
 vertex 0.015 -0.01 -0.0175
 endloop
endfacet
facet normal 0 0 0
 outer loop
 vertex -0.015 -0.01 -0.0275
 vertex 0.015 -0.01 -0.0175
 vertex 0.015 -0.01 -0.0275
 endloop
endfacet
facet normal 0 0 0
 outer loop
 vertex -0.015 0.01 -0.0275
 vertex 0.015 0.01 -0.0275
 vertex 0.015 0.01 -0.0175
 endloop
endfacet
facet normal 0 0 0
 outer loop
 vertex -0.015 0.01 -0.0275
 vertex 0.015 0.01 -0.0175
 vertex -0.015 0.01 -0.0175
 endloop
endfacet
facet normal 0 0 0
 outer loop
 vertex -0.015 -0.0325 -0.002
 vertex 0.015 -0.0325 -0.002
 vertex 0.015 -0.0125 -0.002
 endloop
endfacet
facet normal 0 0 0
 outer loop
 vertex -0.015 -0.0325 -0.002
 vertex 0.015 -0.0125 -0.002
 vertex -0.015 -0.0125 -0.002
 endloop
endfacet
facet normal 0 0 0
 outer loop
 vertex -0.015 -0.0325 0.002
 vertex 0.015 -0.0125 0.002
 vertex 0.015 -0.0325 0.002
 endloop
endfacet
facet normal 0 0 0
 outer loop
 vertex -0.015 -0.0325 0.002
 vertex -0.015 -0.0125 0.002
 vertex 0.015 -0.0125 0.002
 endloop
endfacet
facet normal 0 0 0
 outer loop
 vertex -0.015 -0.0325 -0.002
 vertex -0.015 -0.0125 -0.002
 vertex -0.015 -0.0125 0.002
 endloop
endfacet
facet normal 0 0 0
 outer loop
 vertex -0.015 -0.0325 -0.002
 vertex -0.015 -0.0125 0.002
 vertex -0.015 -0.0325 0.002
 endloop
endfacet
facet normal 0 0 0
 outer loop
 vertex 0.015 -0.0325 -0.002
 vertex 0.015 -0.0325 0.002
 vertex 0.015 -0.0125 0.002
 endloop
endfacet
facet normal 0 0 0
 outer loop
 vertex 0.015 -0.0325 -0.002
 vertex 0.015 -0.0125 0.002
 vertex 0.015 -0.0125 -0.002
 endloop
endfacet
facet normal 0 0 0
 outer loop
 vertex -0.015 -0.0325 -0.002
 vertex -0.015 -0.0325 0.002
 vertex 0.015 -0.0325 0.002
 endloop
endfacet
facet normal 0 0 0
 outer loop
 vertex -0.015 -0.0325 -0.002
 vertex 0.015 -0.0325 0.002
 vertex 0.015 -0.0325 -0.002
 endloop
endfacet
facet normal 0 0 0
 outer loop
 vertex -0.015 -0.0125 -0.002
 vertex 0.015 -0.0125 -0.002
 vertex 0.015 -0.0125 0.002
 endloop
endfacet
facet normal 0 0 0
 outer loop
 vertex -0.015 -0.0125 -0.002
 vertex 0.015 -0.0125 0.002
 vertex -0.015 -0.0125 0.002
 endloop
endfacet
facet normal 0 0 0
 outer loop
 vertex -0.015 -0.0325 -0.005
 vertex 0.015 -0.0325 -0.005
 vertex 0.015 -0.0125 -0.005
 endloop
endfacet
facet normal 0 0 0
 outer loop
 vertex -0.015 -0.0325 -0.005
 vertex 0.015 -0.0125 -0.005
 vertex -0.015 -0.0125 -0.005
 endloop
endfacet
facet normal 0 0 0
 outer loop
 vertex -0.015 -0.0325 0.005
 vertex 0.015 -0.0125 0.005
 vertex 0.015 -0.0325 0.005
 endloop
endfacet
facet normal 0 0 0
 outer loop
 vertex -0.015 -0.0325 0.005
 vertex -0.015 -0.0125 0.005
 vertex 0.015 -0.0125 0.005
 endloop
endfacet
facet normal 0 0 0
 outer loop
 vertex -0.015 -0.0325 -0.005
 vertex -0.015 -0.0125 -0.005
 vertex -0.015 -0.0125 0.005
 endloop
endfacet
facet normal 0 0 0
 outer loop
 vertex -0.015 -0.0325 -0.005
 vertex -0.015 -0.0125 0.005
 vertex -0.015 -0.0325 0.005
 endloop
endfacet
facet normal 0 0 0
 outer loop
 vertex 0.015 -0.0325 -0.005
 vertex 0.015 -0.0325 0.005
 vertex 0.015 -0.0125 0.005
 endloop
endfacet
facet normal 0 0 0
 outer loop
 vertex 0.015 -0.0325 -0.005
 vertex 0.015 -0.0125 0.005
 vertex 0.015 -0.0125 -0.005
 endloop
endfacet
facet normal 0 0 0
 outer loop
 vertex -0.015 -0.0325 -0.005
 vertex -0.015 -0.0325 0.005
 vertex 0.015 -0.0325 0.005
 endloop
endfacet
facet normal 0 0 0
 outer loop
 vertex -0.015 -0.0325 -0.005
 vertex 0.015 -0.0325 0.005
 vertex 0.015 -0.0325 -0.005
 endloop
endfacet
facet normal 0 0 0
 outer loop
 vertex -0.015 -0.0125 -0.005
 vertex 0.015 -0.0125 -0.005
 vertex 0.015 -0.0125 0.005
 endloop
endfacet
facet normal 0 0 0
 outer loop
 vertex -0.015 -0.0125 -0.005
 vertex 0.015 -0.0125 0.005
 vertex -0.015 -0.0125 0.005
 endloop
endfacet
facet normal 0 0 0
 outer loop
 vertex 0.045 -0.01 0.0205
 vertex 0.075 -0.01 0.0205
 vertex 0.075 0.01 0.0205
 endloop
endfacet
facet normal 0 0 0
 outer loop
 vertex 0.045 -0.01 0.0205
 vertex 0.075 0.01 0.0205
 vertex 0.045 0.01 0.0205
 endloop
endfacet
facet normal 0 0 0
 outer loop
 vertex 0.045 -0.01 0.0245
 vertex 0.075 0.01 0.0245
 vertex 0.075 -0.01 0.0245
 endloop
endfacet
facet normal 0 0 0
 outer loop
 vertex 0.045 -0.01 0.0245
 vertex 0.045 0.01 0.0245
 vertex 0.075 0.01 0.0245
 endloop
endfacet
facet normal 0 0 0
 outer loop
 vertex 0.045 -0.01 0.0205
 vertex 0.045 0.01 0.0205
 vertex 0.045 0.01 0.0245
 endloop
endfacet
facet normal 0 0 0
 outer loop
 vertex 0.045 -0.01 0.0205
 vertex 0.045 0.01 0.0245
 vertex 0.045 -0.01 0.0245
 endloop
endfacet
facet normal 0 0 0
 outer loop
 vertex 0.075 -0.01 0.0205
 vertex 0.075 -0.01 0.0245
 vertex 0.075 0.01 0.0245
 endloop
endfacet
facet normal 0 0 0
 outer loop
 vertex 0.075 -0.01 0.0205
 vertex 0.075 0.01 0.0245
 vertex 0.075 0.01 0.0205
 endloop
endfacet
facet normal 0 0 0
 outer loop
 vertex 0.045 -0.01 0.0205
 vertex 0.045 -0.01 0.0245
 vertex 0.075 -0.01 0.0245
 endloop
endfacet
facet normal 0 0 0
 outer loop
 vertex 0.045 -0.01 0.0205
 vertex 0.075 -0.01 0.0245
 vertex 0.075 -0.01 0.0205
 endloop
endfacet
facet normal 0 0 0
 outer loop
 vertex 0.045 0.01 0.0205
 vertex 0.075 0.01 0.0205
 vertex 0.075 0.01 0.0245
 endloop
endfacet
facet normal 0 0 0
 outer loop
 vertex 0.045 0.01 0.0205
 vertex 0.075 0.01 0.0245
 vertex 0.045 0.01 0.0245
 endloop
endfacet
facet normal 0 0 0
 outer loop
 vertex 0.045 -0.01 0.0175
 vertex 0.075 -0.01 0.0175
 vertex 0.075 0.01 0.0175
 endloop
endfacet
facet normal 0 0 0
 outer loop
 vertex 0.045 -0.01 0.0175
 vertex 0.075 0.01 0.0175
 vertex 0.045 0.01 0.0175
 endloop
endfacet
facet normal 0 0 0
 outer loop
 vertex 0.045 -0.01 0.0275
 vertex 0.075 0.01 0.0275
 vertex 0.075 -0.01 0.0275
 endloop
endfacet
facet normal 0 0 0
 outer loop
 vertex 0.045 -0.01 0.0275
 vertex 0.045 0.01 0.0275
 vertex 0.075 0.01 0.0275
 endloop
endfacet
facet normal 0 0 0
 outer loop
 vertex 0.045 -0.01 0.0175
 vertex 0.045 0.01 0.0175
 vertex 0.045 0.01 0.0275
 endloop
endfacet
facet normal 0 0 0
 outer loop
 vertex 0.045 -0.01 0.0175
 vertex 0.045 0.01 0.0275
 vertex 0.045 -0.01 0.0275
 endloop
endfacet
facet normal 0 0 0
 outer loop
 vertex 0.075 -0.01 0.0175
 vertex 0.075 -0.01 0.0275
 vertex 0.075 0.01 0.0275
 endloop
endfacet
facet normal 0 0 0
 outer loop
 vertex 0.075 -0.01 0.0175
 vertex 0.075 0.01 0.0275
 vertex 0.075 0.01 0.0175
 endloop
endfacet
facet normal 0 0 0
 outer loop
 vertex 0.045 -0.01 0.0175
 vertex 0.045 -0.01 0.0275
 vertex 0.075 -0.01 0.0275
 endloop
endfacet
facet normal 0 0 0
 outer loop
 vertex 0.045 -0.01 0.0175
 vertex 0.075 -0.01 0.0275
 vertex 0.075 -0.01 0.0175
 endloop
endfacet
facet normal 0 0 0
 outer loop
 vertex 0.045 0.01 0.0175
 vertex 0.075 0.01 0.0175
 vertex 0.075 0.01 0.0275
 endloop
endfacet
facet normal 0 0 0
 outer loop
 vertex 0.045 0.01 0.0175
 vertex 0.075 0.01 0.0275
 vertex 0.045 0.01 0.0275
 endloop
endfacet
facet normal 0 0 0
 outer loop
 vertex 0.045 0.0125 -0.002
 vertex 0.075 0.0125 -0.002
 vertex 0.075 0.0325 -0.002
 endloop
endfacet
facet normal 0 0 0
 outer loop
 vertex 0.045 0.0125 -0.002
 vertex 0.075 0.0325 -0.002
 vertex 0.045 0.0325 -0.002
 endloop
endfacet
facet normal 0 0 0
 outer loop
 vertex 0.045 0.0125 0.002
 vertex 0.075 0.0325 0.002
 vertex 0.075 0.0125 0.002
 endloop
endfacet
facet normal 0 0 0
 outer loop
 vertex 0.045 0.0125 0.002
 vertex 0.045 0.0325 0.002
 vertex 0.075 0.0325 0.002
 endloop
endfacet
facet normal 0 0 0
 outer loop
 vertex 0.045 0.0125 -0.002
 vertex 0.045 0.0325 -0.002
 vertex 0.045 0.0325 0.002
 endloop
endfacet
facet normal 0 0 0
 outer loop
 vertex 0.045 0.0125 -0.002
 vertex 0.045 0.0325 0.002
 vertex 0.045 0.0125 0.002
 endloop
endfacet
facet normal 0 0 0
 outer loop
 vertex 0.075 0.0125 -0.002
 vertex 0.075 0.0125 0.002
 vertex 0.075 0.0325 0.002
 endloop
endfacet
facet normal 0 0 0
 outer loop
 vertex 0.075 0.0125 -0.002
 vertex 0.075 0.0325 0.002
 vertex 0.075 0.0325 -0.002
 endloop
endfacet
facet normal 0 0 0
 outer loop
 vertex 0.045 0.0125 -0.002
 vertex 0.045 0.0125 0.002
 vertex 0.075 0.0125 0.002
 endloop
endfacet
facet normal 0 0 0
 outer loop
 vertex 0.045 0.0125 -0.002
 vertex 0.075 0.0125 0.002
 vertex 0.075 0.0125 -0.002
 endloop
endfacet
facet normal 0 0 0
 outer loop
 vertex 0.045 0.0325 -0.002
 vertex 0.075 0.0325 -0.002
 vertex 0.075 0.0325 0.002
 endloop
endfacet
facet normal 0 0 0
 outer loop
 vertex 0.045 0.0325 -0.002
 vertex 0.075 0.0325 0.002
 vertex 0.045 0.0325 0.002
 endloop
endfacet
facet normal 0 0 0
 outer loop
 vertex 0.045 0.0125 -0.005
 vertex 0.075 0.0125 -0.005
 vertex 0.075 0.0325 -0.005
 endloop
endfacet
facet normal 0 0 0
 outer loop
 vertex 0.045 0.0125 -0.005
 vertex 0.075 0.0325 -0.005
 vertex 0.045 0.0325 -0.005
 endloop
endfacet
facet normal 0 0 0
 outer loop
 vertex 0.045 0.0125 0.005
 vertex 0.075 0.0325 0.005
 vertex 0.075 0.0125 0.005
 endloop
endfacet
facet normal 0 0 0
 outer loop
 vertex 0.045 0.0125 0.005
 vertex 0.045 0.0325 0.005
 vertex 0.075 0.0325 0.005
 endloop
endfacet
facet normal 0 0 0
 outer loop
 vertex 0.045 0.0125 -0.005
 vertex 0.045 0.0325 -0.005
 vertex 0.045 0.0325 0.005
 endloop
endfacet
facet normal 0 0 0
 outer loop
 vertex 0.045 0.0125 -0.005
 vertex 0.045 0.0325 0.005
 vertex 0.045 0.0125 0.005
 endloop
endfacet
facet normal 0 0 0
 outer loop
 vertex 0.075 0.0125 -0.005
 vertex 0.075 0.0125 0.005
 vertex 0.075 0.0325 0.005
 endloop
endfacet
facet normal 0 0 0
 outer loop
 vertex 0.075 0.0125 -0.005
 vertex 0.075 0.0325 0.005
 vertex 0.075 0.0325 -0.005
 endloop
endfacet
facet normal 0 0 0
 outer loop
 vertex 0.045 0.0125 -0.005
 vertex 0.045 0.0125 0.005
 vertex 0.075 0.0125 0.005
 endloop
endfacet
facet normal 0 0 0
 outer loop
 vertex 0.045 0.0125 -0.005
 vertex 0.075 0.0125 0.005
 vertex 0.075 0.0125 -0.005
 endloop
endfacet
facet normal 0 0 0
 outer loop
 vertex 0.045 0.0325 -0.005
 vertex 0.075 0.0325 -0.005
 vertex 0.075 0.0325 0.005
 endloop
endfacet
facet normal 0 0 0
 outer loop
 vertex 0.045 0.0325 -0.005
 vertex 0.075 0.0325 0.005
 vertex 0.045 0.0325 0.005
 endloop
endfacet
facet normal 0 0 0
 outer loop
 vertex 0.045 -0.01 -0.0245
 vertex 0.075 -0.01 -0.0245
 vertex 0.075 0.01 -0.0245
 endloop
endfacet
facet normal 0 0 0
 outer loop
 vertex 0.045 -0.01 -0.0245
 vertex 0.075 0.01 -0.0245
 vertex 0.045 0.01 -0.0245
 endloop
endfacet
facet normal 0 0 0
 outer loop
 vertex 0.045 -0.01 -0.0205
 vertex 0.075 0.01 -0.0205
 vertex 0.075 -0.01 -0.0205
 endloop
endfacet
facet normal 0 0 0
 outer loop
 vertex 0.045 -0.01 -0.0205
 vertex 0.045 0.01 -0.0205
 vertex 0.075 0.01 -0.0205
 endloop
endfacet
facet normal 0 0 0
 outer loop
 vertex 0.045 -0.01 -0.0245
 vertex 0.045 0.01 -0.0245
 vertex 0.045 0.01 -0.0205
 endloop
endfacet
facet normal 0 0 0
 outer loop
 vertex 0.045 -0.01 -0.0245
 vertex 0.045 0.01 -0.0205
 vertex 0.045 -0.01 -0.0205
 endloop
endfacet
facet normal 0 0 0
 outer loop
 vertex 0.075 -0.01 -0.0245
 vertex 0.075 -0.01 -0.0205
 vertex 0.075 0.01 -0.0205
 endloop
endfacet
facet normal 0 0 0
 outer loop
 vertex 0.075 -0.01 -0.0245
 vertex 0.075 0.01 -0.0205
 vertex 0.075 0.01 -0.0245
 endloop
endfacet
facet normal 0 0 0
 outer loop
 vertex 0.045 -0.01 -0.0245
 vertex 0.045 -0.01 -0.0205
 vertex 0.075 -0.01 -0.0205
 endloop
endfacet
facet normal 0 0 0
 outer loop
 vertex 0.045 -0.01 -0.0245
 vertex 0.075 -0.01 -0.0205
 vertex 0.075 -0.01 -0.0245
 endloop
endfacet
facet normal 0 0 0
 outer loop
 vertex 0.045 0.01 -0.0245
 vertex 0.075 0.01 -0.0245
 vertex 0.075 0.01 -0.0205
 endloop
endfacet
facet normal 0 0 0
 outer loop
 vertex 0.045 0.01 -0.0245
 vertex 0.075 0.01 -0.0205
 vertex 0.045 0.01 -0.0205
 endloop
endfacet
facet normal 0 0 0
 outer loop
 vertex 0.045 -0.01 -0.0275
 vertex 0.075 -0.01 -0.0275
 vertex 0.075 0.01 -0.0275
 endloop
endfacet
facet normal 0 0 0
 outer loop
 vertex 0.045 -0.01 -0.0275
 vertex 0.075 0.01 -0.0275
 vertex 0.045 0.01 -0.0275
 endloop
endfacet
facet normal 0 0 0
 outer loop
 vertex 0.045 -0.01 -0.0175
 vertex 0.075 0.01 -0.0175
 vertex 0.075 -0.01 -0.0175
 endloop
endfacet
facet normal 0 0 0
 outer loop
 vertex 0.045 -0.01 -0.0175
 vertex 0.045 0.01 -0.0175
 vertex 0.075 0.01 -0.0175
 endloop
endfacet
facet normal 0 0 0
 outer loop
 vertex 0.045 -0.01 -0.0275
 vertex 0.045 0.01 -0.0275
 vertex 0.045 0.01 -0.0175
 endloop
endfacet
facet normal 0 0 0
 outer loop
 vertex 0.045 -0.01 -0.0275
 vertex 0.045 0.01 -0.0175
 vertex 0.045 -0.01 -0.0175
 endloop
endfacet
facet normal 0 0 0
 outer loop
 vertex 0.075 -0.01 -0.0275
 vertex 0.075 -0.01 -0.0175
 vertex 0.075 0.01 -0.0175
 endloop
endfacet
facet normal 0 0 0
 outer loop
 vertex 0.075 -0.01 -0.0275
 vertex 0.075 0.01 -0.0175
 vertex 0.075 0.01 -0.0275
 endloop
endfacet
facet normal 0 0 0
 outer loop
 vertex 0.045 -0.01 -0.0275
 vertex 0.045 -0.01 -0.0175
 vertex 0.075 -0.01 -0.0175
 endloop
endfacet
facet normal 0 0 0
 outer loop
 vertex 0.045 -0.01 -0.0275
 vertex 0.075 -0.01 -0.0175
 vertex 0.075 -0.01 -0.0275
 endloop
endfacet
facet normal 0 0 0
 outer loop
 vertex 0.045 0.01 -0.0275
 vertex 0.075 0.01 -0.0275
 vertex 0.075 0.01 -0.0175
 endloop
endfacet
facet normal 0 0 0
 outer loop
 vertex 0.045 0.01 -0.0275
 vertex 0.075 0.01 -0.0175
 vertex 0.045 0.01 -0.0175
 endloop
endfacet
facet normal 0 0 0
 outer loop
 vertex 0.045 -0.0325 -0.002
 vertex 0.075 -0.0325 -0.002
 vertex 0.075 -0.0125 -0.002
 endloop
endfacet
facet normal 0 0 0
 outer loop
 vertex 0.045 -0.0325 -0.002
 vertex 0.075 -0.0125 -0.002
 vertex 0.045 -0.0125 -0.002
 endloop
endfacet
facet normal 0 0 0
 outer loop
 vertex 0.045 -0.0325 0.002
 vertex 0.075 -0.0125 0.002
 vertex 0.075 -0.0325 0.002
 endloop
endfacet
facet normal 0 0 0
 outer loop
 vertex 0.045 -0.0325 0.002
 vertex 0.045 -0.0125 0.002
 vertex 0.075 -0.0125 0.002
 endloop
endfacet
facet normal 0 0 0
 outer loop
 vertex 0.045 -0.0325 -0.002
 vertex 0.045 -0.0125 -0.002
 vertex 0.045 -0.0125 0.002
 endloop
endfacet
facet normal 0 0 0
 outer loop
 vertex 0.045 -0.0325 -0.002
 vertex 0.045 -0.0125 0.002
 vertex 0.045 -0.0325 0.002
 endloop
endfacet
facet normal 0 0 0
 outer loop
 vertex 0.075 -0.0325 -0.002
 vertex 0.075 -0.0325 0.002
 vertex 0.075 -0.0125 0.002
 endloop
endfacet
facet normal 0 0 0
 outer loop
 vertex 0.075 -0.0325 -0.002
 vertex 0.075 -0.0125 0.002
 vertex 0.075 -0.0125 -0.002
 endloop
endfacet
facet normal 0 0 0
 outer loop
 vertex 0.045 -0.0325 -0.002
 vertex 0.045 -0.0325 0.002
 vertex 0.075 -0.0325 0.002
 endloop
endfacet
facet normal 0 0 0
 outer loop
 vertex 0.045 -0.0325 -0.002
 vertex 0.075 -0.0325 0.002
 vertex 0.075 -0.0325 -0.002
 endloop
endfacet
facet normal 0 0 0
 outer loop
 vertex 0.045 -0.0125 -0.002
 vertex 0.075 -0.0125 -0.002
 vertex 0.075 -0.0125 0.002
 endloop
endfacet
facet normal 0 0 0
 outer loop
 vertex 0.045 -0.0125 -0.002
 vertex 0.075 -0.0125 0.002
 vertex 0.045 -0.0125 0.002
 endloop
endfacet
facet normal 0 0 0
 outer loop
 vertex 0.045 -0.0325 -0.005
 vertex 0.075 -0.0325 -0.005
 vertex 0.075 -0.0125 -0.005
 endloop
endfacet
facet normal 0 0 0
 outer loop
 vertex 0.045 -0.0325 -0.005
 vertex 0.075 -0.0125 -0.005
 vertex 0.045 -0.0125 -0.005
 endloop
endfacet
facet normal 0 0 0
 outer loop
 vertex 0.045 -0.0325 0.005
 vertex 0.075 -0.0125 0.005
 vertex 0.075 -0.0325 0.005
 endloop
endfacet
facet normal 0 0 0
 outer loop
 vertex 0.045 -0.0325 0.005
 vertex 0.045 -0.0125 0.005
 vertex 0.075 -0.0125 0.005
 endloop
endfacet
facet normal 0 0 0
 outer loop
 vertex 0.045 -0.0325 -0.005
 vertex 0.045 -0.0125 -0.005
 vertex 0.045 -0.0125 0.005
 endloop
endfacet
facet normal 0 0 0
 outer loop
 vertex 0.045 -0.0325 -0.005
 vertex 0.045 -0.0125 0.005
 vertex 0.045 -0.0325 0.005
 endloop
endfacet
facet normal 0 0 0
 outer loop
 vertex 0.075 -0.0325 -0.005
 vertex 0.075 -0.0325 0.005
 vertex 0.075 -0.0125 0.005
 endloop
endfacet
facet normal 0 0 0
 outer loop
 vertex 0.075 -0.0325 -0.005
 vertex 0.075 -0.0125 0.005
 vertex 0.075 -0.0125 -0.005
 endloop
endfacet
facet normal 0 0 0
 outer loop
 vertex 0.045 -0.0325 -0.005
 vertex 0.045 -0.0325 0.005
 vertex 0.075 -0.0325 0.005
 endloop
endfacet
facet normal 0 0 0
 outer loop
 vertex 0.045 -0.0325 -0.005
 vertex 0.075 -0.0325 0.005
 vertex 0.075 -0.0325 -0.005
 endloop
endfacet
facet normal 0 0 0
 outer loop
 vertex 0.045 -0.0125 -0.005
 vertex 0.075 -0.0125 -0.005
 vertex 0.075 -0.0125 0.005
 endloop
endfacet
facet normal 0 0 0
 outer loop
 vertex 0.045 -0.0125 -0.005
 vertex 0.075 -0.0125 0.005
 vertex 0.045 -0.0125 0.005
 endloop
endfacet
facet normal 0 0 0
 outer loop
 vertex 0.105 -0.01 0.0205
 vertex 0.135 -0.01 0.0205
 vertex 0.135 0.01 0.0205
 endloop
endfacet
facet normal 0 0 0
 outer loop
 vertex 0.105 -0.01 0.0205
 vertex 0.135 0.01 0.0205
 vertex 0.105 0.01 0.0205
 endloop
endfacet
facet normal 0 0 0
 outer loop
 vertex 0.105 -0.01 0.0245
 vertex 0.135 0.01 0.0245
 vertex 0.135 -0.01 0.0245
 endloop
endfacet
facet normal 0 0 0
 outer loop
 vertex 0.105 -0.01 0.0245
 vertex 0.105 0.01 0.0245
 vertex 0.135 0.01 0.0245
 endloop
endfacet
facet normal 0 0 0
 outer loop
 vertex 0.105 -0.01 0.0205
 vertex 0.105 0.01 0.0205
 vertex 0.105 0.01 0.0245
 endloop
endfacet
facet normal 0 0 0
 outer loop
 vertex 0.105 -0.01 0.0205
 vertex 0.105 0.01 0.0245
 vertex 0.105 -0.01 0.0245
 endloop
endfacet
facet normal 0 0 0
 outer loop
 vertex 0.135 -0.01 0.0205
 vertex 0.135 -0.01 0.0245
 vertex 0.135 0.01 0.0245
 endloop
endfacet
facet normal 0 0 0
 outer loop
 vertex 0.135 -0.01 0.0205
 vertex 0.135 0.01 0.0245
 vertex 0.135 0.01 0.0205
 endloop
endfacet
facet normal 0 0 0
 outer loop
 vertex 0.105 -0.01 0.0205
 vertex 0.105 -0.01 0.0245
 vertex 0.135 -0.01 0.0245
 endloop
endfacet
facet normal 0 0 0
 outer loop
 vertex 0.105 -0.01 0.0205
 vertex 0.135 -0.01 0.0245
 vertex 0.135 -0.01 0.0205
 endloop
endfacet
facet normal 0 0 0
 outer loop
 vertex 0.105 0.01 0.0205
 vertex 0.135 0.01 0.0205
 vertex 0.135 0.01 0.0245
 endloop
endfacet
facet normal 0 0 0
 outer loop
 vertex 0.105 0.01 0.0205
 vertex 0.135 0.01 0.0245
 vertex 0.105 0.01 0.0245
 endloop
endfacet
facet normal 0 0 0
 outer loop
 vertex 0.105 -0.01 0.0175
 vertex 0.135 -0.01 0.0175
 vertex 0.135 0.01 0.0175
 endloop
endfacet
facet normal 0 0 0
 outer loop
 vertex 0.105 -0.01 0.0175
 vertex 0.135 0.01 0.0175
 vertex 0.105 0.01 0.0175
 endloop
endfacet
facet normal 0 0 0
 outer loop
 vertex 0.105 -0.01 0.0275
 vertex 0.135 0.01 0.0275
 vertex 0.135 -0.01 0.0275
 endloop
endfacet
facet normal 0 0 0
 outer loop
 vertex 0.105 -0.01 0.0275
 vertex 0.105 0.01 0.0275
 vertex 0.135 0.01 0.0275
 endloop
endfacet
facet normal 0 0 0
 outer loop
 vertex 0.105 -0.01 0.0175
 vertex 0.105 0.01 0.0175
 vertex 0.105 0.01 0.0275
 endloop
endfacet
facet normal 0 0 0
 outer loop
 vertex 0.105 -0.01 0.0175
 vertex 0.105 0.01 0.0275
 vertex 0.105 -0.01 0.0275
 endloop
endfacet
facet normal 0 0 0
 outer loop
 vertex 0.135 -0.01 0.0175
 vertex 0.135 -0.01 0.0275
 vertex 0.135 0.01 0.0275
 endloop
endfacet
facet normal 0 0 0
 outer loop
 vertex 0.135 -0.01 0.0175
 vertex 0.135 0.01 0.0275
 vertex 0.135 0.01 0.0175
 endloop
endfacet
facet normal 0 0 0
 outer loop
 vertex 0.105 -0.01 0.0175
 vertex 0.105 -0.01 0.0275
 vertex 0.135 -0.01 0.0275
 endloop
endfacet
facet normal 0 0 0
 outer loop
 vertex 0.105 -0.01 0.0175
 vertex 0.135 -0.01 0.0275
 vertex 0.135 -0.01 0.0175
 endloop
endfacet
facet normal 0 0 0
 outer loop
 vertex 0.105 0.01 0.0175
 vertex 0.135 0.01 0.0175
 vertex 0.135 0.01 0.0275
 endloop
endfacet
facet normal 0 0 0
 outer loop
 vertex 0.105 0.01 0.0175
 vertex 0.135 0.01 0.0275
 vertex 0.105 0.01 0.0275
 endloop
endfacet
facet normal 0 0 0
 outer loop
 vertex 0.105 0.0125 -0.002
 vertex 0.135 0.0125 -0.002
 vertex 0.135 0.0325 -0.002
 endloop
endfacet
facet normal 0 0 0
 outer loop
 vertex 0.105 0.0125 -0.002
 vertex 0.135 0.0325 -0.002
 vertex 0.105 0.0325 -0.002
 endloop
endfacet
facet normal 0 0 0
 outer loop
 vertex 0.105 0.0125 0.002
 vertex 0.135 0.0325 0.002
 vertex 0.135 0.0125 0.002
 endloop
endfacet
facet normal 0 0 0
 outer loop
 vertex 0.105 0.0125 0.002
 vertex 0.105 0.0325 0.002
 vertex 0.135 0.0325 0.002
 endloop
endfacet
facet normal 0 0 0
 outer loop
 vertex 0.105 0.0125 -0.002
 vertex 0.105 0.0325 -0.002
 vertex 0.105 0.0325 0.002
 endloop
endfacet
facet normal 0 0 0
 outer loop
 vertex 0.105 0.0125 -0.002
 vertex 0.105 0.0325 0.002
 vertex 0.105 0.0125 0.002
 endloop
endfacet
facet normal 0 0 0
 outer loop
 vertex 0.135 0.0125 -0.002
 vertex 0.135 0.0125 0.002
 vertex 0.135 0.0325 0.002
 endloop
endfacet
facet normal 0 0 0
 outer loop
 vertex 0.135 0.0125 -0.002
 vertex 0.135 0.0325 0.002
 vertex 0.135 0.0325 -0.002
 endloop
endfacet
facet normal 0 0 0
 outer loop
 vertex 0.105 0.0125 -0.002
 vertex 0.105 0.0125 0.002
 vertex 0.135 0.0125 0.002
 endloop
endfacet
facet normal 0 0 0
 outer loop
 vertex 0.105 0.0125 -0.002
 vertex 0.135 0.0125 0.002
 vertex 0.135 0.0125 -0.002
 endloop
endfacet
facet normal 0 0 0
 outer loop
 vertex 0.105 0.0325 -0.002
 vertex 0.135 0.0325 -0.002
 vertex 0.135 0.0325 0.002
 endloop
endfacet
facet normal 0 0 0
 outer loop
 vertex 0.105 0.0325 -0.002
 vertex 0.135 0.0325 0.002
 vertex 0.105 0.0325 0.002
 endloop
endfacet
facet normal 0 0 0
 outer loop
 vertex 0.105 0.0125 -0.005
 vertex 0.135 0.0125 -0.005
 vertex 0.135 0.0325 -0.005
 endloop
endfacet
facet normal 0 0 0
 outer loop
 vertex 0.105 0.0125 -0.005
 vertex 0.135 0.0325 -0.005
 vertex 0.105 0.0325 -0.005
 endloop
endfacet
facet normal 0 0 0
 outer loop
 vertex 0.105 0.0125 0.005
 vertex 0.135 0.0325 0.005
 vertex 0.135 0.0125 0.005
 endloop
endfacet
facet normal 0 0 0
 outer loop
 vertex 0.105 0.0125 0.005
 vertex 0.105 0.0325 0.005
 vertex 0.135 0.0325 0.005
 endloop
endfacet
facet normal 0 0 0
 outer loop
 vertex 0.105 0.0125 -0.005
 vertex 0.105 0.0325 -0.005
 vertex 0.105 0.0325 0.005
 endloop
endfacet
facet normal 0 0 0
 outer loop
 vertex 0.105 0.0125 -0.005
 vertex 0.105 0.0325 0.005
 vertex 0.105 0.0125 0.005
 endloop
endfacet
facet normal 0 0 0
 outer loop
 vertex 0.135 0.0125 -0.005
 vertex 0.135 0.0125 0.005
 vertex 0.135 0.0325 0.005
 endloop
endfacet
facet normal 0 0 0
 outer loop
 vertex 0.135 0.0125 -0.005
 vertex 0.135 0.0325 0.005
 vertex 0.135 0.0325 -0.005
 endloop
endfacet
facet normal 0 0 0
 outer loop
 vertex 0.105 0.0125 -0.005
 vertex 0.105 0.0125 0.005
 vertex 0.135 0.0125 0.005
 endloop
endfacet
facet normal 0 0 0
 outer loop
 vertex 0.105 0.0125 -0.005
 vertex 0.135 0.0125 0.005
 vertex 0.135 0.0125 -0.005
 endloop
endfacet
facet normal 0 0 0
 outer loop
 vertex 0.105 0.0325 -0.005
 vertex 0.135 0.0325 -0.005
 vertex 0.135 0.0325 0.005
 endloop
endfacet
facet normal 0 0 0
 outer loop
 vertex 0.105 0.0325 -0.005
 vertex 0.135 0.0325 0.005
 vertex 0.105 0.0325 0.005
 endloop
endfacet
facet normal 0 0 0
 outer loop
 vertex 0.105 -0.01 -0.0245
 vertex 0.135 -0.01 -0.0245
 vertex 0.135 0.01 -0.0245
 endloop
endfacet
facet normal 0 0 0
 outer loop
 vertex 0.105 -0.01 -0.0245
 vertex 0.135 0.01 -0.0245
 vertex 0.105 0.01 -0.0245
 endloop
endfacet
facet normal 0 0 0
 outer loop
 vertex 0.105 -0.01 -0.0205
 vertex 0.135 0.01 -0.0205
 vertex 0.135 -0.01 -0.0205
 endloop
endfacet
facet normal 0 0 0
 outer loop
 vertex 0.105 -0.01 -0.0205
 vertex 0.105 0.01 -0.0205
 vertex 0.135 0.01 -0.0205
 endloop
endfacet
facet normal 0 0 0
 outer loop
 vertex 0.105 -0.01 -0.0245
 vertex 0.105 0.01 -0.0245
 vertex 0.105 0.01 -0.0205
 endloop
endfacet
facet normal 0 0 0
 outer loop
 vertex 0.105 -0.01 -0.0245
 vertex 0.105 0.01 -0.0205
 vertex 0.105 -0.01 -0.0205
 endloop
endfacet
facet normal 0 0 0
 outer loop
 vertex 0.135 -0.01 -0.0245
 vertex 0.135 -0.01 -0.0205
 vertex 0.135 0.01 -0.0205
 endloop
endfacet
facet normal 0 0 0
 outer loop
 vertex 0.135 -0.01 -0.0245
 vertex 0.135 0.01 -0.0205
 vertex 0.135 0.01 -0.0245
 endloop
endfacet
facet normal 0 0 0
 outer loop
 vertex 0.105 -0.01 -0.0245
 vertex 0.105 -0.01 -0.0205
 vertex 0.135 -0.01 -0.0205
 endloop
endfacet
facet normal 0 0 0
 outer loop
 vertex 0.105 -0.01 -0.0245
 vertex 0.135 -0.01 -0.0205
 vertex 0.135 -0.01 -0.0245
 endloop
endfacet
facet normal 0 0 0
 outer loop
 vertex 0.105 0.01 -0.0245
 vertex 0.135 0.01 -0.0245
 vertex 0.135 0.01 -0.0205
 endloop
endfacet
facet normal 0 0 0
 outer loop
 vertex 0.105 0.01 -0.0245
 vertex 0.135 0.01 -0.0205
 vertex 0.105 0.01 -0.0205
 endloop
endfacet
facet normal 0 0 0
 outer loop
 vertex 0.105 -0.01 -0.0275
 vertex 0.135 -0.01 -0.0275
 vertex 0.135 0.01 -0.0275
 endloop
endfacet
facet normal 0 0 0
 outer loop
 vertex 0.105 -0.01 -0.0275
 vertex 0.135 0.01 -0.0275
 vertex 0.105 0.01 -0.0275
 endloop
endfacet
facet normal 0 0 0
 outer loop
 vertex 0.105 -0.01 -0.0175
 vertex 0.135 0.01 -0.0175
 vertex 0.135 -0.01 -0.0175
 endloop
endfacet
facet normal 0 0 0
 outer loop
 vertex 0.105 -0.01 -0.0175
 vertex 0.105 0.01 -0.0175
 vertex 0.135 0.01 -0.0175
 endloop
endfacet
facet normal 0 0 0
 outer loop
 vertex 0.105 -0.01 -0.0275
 vertex 0.105 0.01 -0.0275
 vertex 0.105 0.01 -0.0175
 endloop
endfacet
facet normal 0 0 0
 outer loop
 vertex 0.105 -0.01 -0.0275
 vertex 0.105 0.01 -0.0175
 vertex 0.105 -0.01 -0.0175
 endloop
endfacet
facet normal 0 0 0
 outer loop
 vertex 0.135 -0.01 -0.0275
 vertex 0.135 -0.01 -0.0175
 vertex 0.135 0.01 -0.0175
 endloop
endfacet
facet normal 0 0 0
 outer loop
 vertex 0.135 -0.01 -0.0275
 vertex 0.135 0.01 -0.0175
 vertex 0.135 0.01 -0.0275
 endloop
endfacet
facet normal 0 0 0
 outer loop
 vertex 0.105 -0.01 -0.0275
 vertex 0.105 -0.01 -0.0175
 vertex 0.135 -0.01 -0.0175
 endloop
endfacet
facet normal 0 0 0
 outer loop
 vertex 0.105 -0.01 -0.0275
 vertex 0.135 -0.01 -0.0175
 vertex 0.135 -0.01 -0.0275
 endloop
endfacet
facet normal 0 0 0
 outer loop
 vertex 0.105 0.01 -0.0275
 vertex 0.135 0.01 -0.0275
 vertex 0.135 0.01 -0.0175
 endloop
endfacet
facet normal 0 0 0
 outer loop
 vertex 0.105 0.01 -0.0275
 vertex 0.135 0.01 -0.0175
 vertex 0.105 0.01 -0.0175
 endloop
endfacet
facet normal 0 0 0
 outer loop
 vertex 0.105 -0.0325 -0.002
 vertex 0.135 -0.0325 -0.002
 vertex 0.135 -0.0125 -0.002
 endloop
endfacet
facet normal 0 0 0
 outer loop
 vertex 0.105 -0.0325 -0.002
 vertex 0.135 -0.0125 -0.002
 vertex 0.105 -0.0125 -0.002
 endloop
endfacet
facet normal 0 0 0
 outer loop
 vertex 0.105 -0.0325 0.002
 vertex 0.135 -0.0125 0.002
 vertex 0.135 -0.0325 0.002
 endloop
endfacet
facet normal 0 0 0
 outer loop
 vertex 0.105 -0.0325 0.002
 vertex 0.105 -0.0125 0.002
 vertex 0.135 -0.0125 0.002
 endloop
endfacet
facet normal 0 0 0
 outer loop
 vertex 0.105 -0.0325 -0.002
 vertex 0.105 -0.0125 -0.002
 vertex 0.105 -0.0125 0.002
 endloop
endfacet
facet normal 0 0 0
 outer loop
 vertex 0.105 -0.0325 -0.002
 vertex 0.105 -0.0125 0.002
 vertex 0.105 -0.0325 0.002
 endloop
endfacet
facet normal 0 0 0
 outer loop
 vertex 0.135 -0.0325 -0.002
 vertex 0.135 -0.0325 0.002
 vertex 0.135 -0.0125 0.002
 endloop
endfacet
facet normal 0 0 0
 outer loop
 vertex 0.135 -0.0325 -0.002
 vertex 0.135 -0.0125 0.002
 vertex 0.135 -0.0125 -0.002
 endloop
endfacet
facet normal 0 0 0
 outer loop
 vertex 0.105 -0.0325 -0.002
 vertex 0.105 -0.0325 0.002
 vertex 0.135 -0.0325 0.002
 endloop
endfacet
facet normal 0 0 0
 outer loop
 vertex 0.105 -0.0325 -0.002
 vertex 0.135 -0.0325 0.002
 vertex 0.135 -0.0325 -0.002
 endloop
endfacet
facet normal 0 0 0
 outer loop
 vertex 0.105 -0.0125 -0.002
 vertex 0.135 -0.0125 -0.002
 vertex 0.135 -0.0125 0.002
 endloop
endfacet
facet normal 0 0 0
 outer loop
 vertex 0.105 -0.0125 -0.002
 vertex 0.135 -0.0125 0.002
 vertex 0.105 -0.0125 0.002
 endloop
endfacet
facet normal 0 0 0
 outer loop
 vertex 0.105 -0.0325 -0.005
 vertex 0.135 -0.0325 -0.005
 vertex 0.135 -0.0125 -0.005
 endloop
endfacet
facet normal 0 0 0
 outer loop
 vertex 0.105 -0.0325 -0.005
 vertex 0.135 -0.0125 -0.005
 vertex 0.105 -0.0125 -0.005
 endloop
endfacet
facet normal 0 0 0
 outer loop
 vertex 0.105 -0.0325 0.005
 vertex 0.135 -0.0125 0.005
 vertex 0.135 -0.0325 0.005
 endloop
endfacet
facet normal 0 0 0
 outer loop
 vertex 0.105 -0.0325 0.005
 vertex 0.105 -0.0125 0.005
 vertex 0.135 -0.0125 0.005
 endloop
endfacet
facet normal 0 0 0
 outer loop
 vertex 0.105 -0.0325 -0.005
 vertex 0.105 -0.0125 -0.005
 vertex 0.105 -0.0125 0.005
 endloop
endfacet
facet normal 0 0 0
 outer loop
 vertex 0.105 -0.0325 -0.005
 vertex 0.105 -0.0125 0.005
 vertex 0.105 -0.0325 0.005
 endloop
endfacet
facet normal 0 0 0
 outer loop
 vertex 0.135 -0.0325 -0.005
 vertex 0.135 -0.0325 0.005
 vertex 0.135 -0.0125 0.005
 endloop
endfacet
facet normal 0 0 0
 outer loop
 vertex 0.135 -0.0325 -0.005
 vertex 0.135 -0.0125 0.005
 vertex 0.135 -0.0125 -0.005
 endloop
endfacet
facet normal 0 0 0
 outer loop
 vertex 0.105 -0.0325 -0.005
 vertex 0.105 -0.0325 0.005
 vertex 0.135 -0.0325 0.005
 endloop
endfacet
facet normal 0 0 0
 outer loop
 vertex 0.105 -0.0325 -0.005
 vertex 0.135 -0.0325 0.005
 vertex 0.135 -0.0325 -0.005
 endloop
endfacet
facet normal 0 0 0
 outer loop
 vertex 0.105 -0.0125 -0.005
 vertex 0.135 -0.0125 -0.005
 vertex 0.135 -0.0125 0.005
 endloop
endfacet
facet normal 0 0 0
 outer loop
 vertex 0.105 -0.0125 -0.005
 vertex 0.135 -0.0125 0.005
 vertex 0.105 -0.0125 0.005
 endloop
endfacet
endsolid ybco_tiles
